<?xml version="1.0" standalone="no"?>
<!DOCTYPE svg PUBLIC "-//W3C//DTD SVG 20010904//EN"
 "http://www.w3.org/TR/2001/REC-SVG-20010904/DTD/svg10.dtd">
<svg version="1.0" xmlns="http://www.w3.org/2000/svg"
 width="100%" height="100%" viewBox="0 0 512.000000 512.000000"
 preserveAspectRatio="xMidYMid meet">
<metadata>
Created by potrace 1.16, written by Peter Selinger 2001-2019
</metadata>
<g transform="translate(0.000000,512.000000) scale(0.100000,-0.100000)"
fill="#000000" stroke="none">
<path d="M1034 4860 c-52 -12 -90 -46 -114 -102 -59 -137 -24 -460 76 -695 20
-49 36 -103 36 -120 0 -18 -2 -61 -3 -95 -3 -85 28 -184 88 -279 26 -41 59
-98 72 -127 l24 -51 -56 -118 c-74 -157 -88 -207 -94 -343 -8 -174 32 -408 95
-558 34 -81 109 -196 171 -264 45 -48 47 -50 81 -40 22 6 27 11 14 11 -11 1
-34 16 -52 34 l-32 33 69 2 69 3 -8 -36 -8 -37 31 6 c18 3 95 13 172 22 83 10
147 22 156 31 16 13 32 13 137 -3 24 -4 32 -1 32 11 0 11 -11 15 -45 15 -25 0
-45 2 -45 4 0 3 5 17 10 33 9 26 9 27 -5 9 -8 -11 -15 -23 -15 -28 0 -4 -126
-8 -279 -8 l-279 0 -40 45 c-54 62 -106 164 -136 269 -32 109 -33 126 -5 126
29 0 83 35 104 66 9 15 39 76 65 136 27 60 61 126 76 145 31 41 167 133 197
133 27 0 17 9 -29 25 -34 11 -44 11 -89 -7 -122 -47 -170 -115 -201 -283 -18
-100 -42 -148 -84 -170 -57 -30 -68 -22 -76 52 -10 98 1 199 30 277 23 60 36
116 18 76 -13 -29 -43 -68 -56 -73 -29 -11 21 159 84 283 67 132 67 132 31
190 -17 28 -31 54 -31 59 0 4 -16 29 -36 55 -77 102 -111 222 -90 325 12 54
11 58 -22 126 -83 167 -116 314 -117 515 0 161 9 203 56 249 96 97 311 11 685
-274 113 -86 351 -315 364 -351 8 -21 7 -32 -6 -53 -14 -21 -15 -24 -2 -13 9
7 21 26 28 42 17 42 -7 76 -134 189 -58 51 -106 95 -106 96 0 2 24 -10 53 -25
59 -32 162 -64 176 -56 5 4 17 -4 27 -16 9 -13 14 -16 12 -8 -5 12 9 15 76 16
49 1 134 14 216 32 307 69 421 70 710 3 69 -16 142 -32 163 -36 21 -3 37 -9
35 -13 -42 -78 -60 -181 -40 -231 7 -20 10 -10 15 52 8 87 31 153 59 168 11 6
45 17 76 25 31 8 66 17 77 21 15 4 9 -6 -20 -38 -22 -25 -47 -43 -56 -41 -10
2 -19 -6 -23 -20 -9 -37 -7 -126 4 -133 6 -3 10 4 10 17 0 39 45 121 98 178
46 51 172 150 172 135 0 -3 -33 -45 -72 -92 -132 -155 -152 -187 -153 -244 0
-44 4 -54 27 -72 39 -29 168 -38 353 -25 105 8 165 8 200 1 l50 -11 -53 -1
c-113 -2 -302 -61 -327 -101 -4 -6 16 0 44 14 56 29 75 33 45 11 -28 -21 -10
-18 38 6 25 13 67 23 102 25 46 2 52 1 26 -4 -52 -12 -122 -49 -171 -93 l-44
-38 40 0 c22 -1 71 4 109 9 38 6 71 8 74 6 2 -3 -16 -18 -41 -33 -91 -56 -92
-54 28 -49 61 3 126 8 145 11 l35 5 -35 -16 c-19 -9 -64 -25 -100 -35 -58 -16
-61 -18 -28 -18 20 -1 67 10 103 23 41 15 61 19 54 10 -6 -7 -20 -16 -31 -20
-16 -5 -18 -8 -7 -15 18 -11 9 -18 -48 -35 l-48 -14 45 6 c51 6 50 0 -3 -18
-20 -7 -37 -17 -37 -21 -1 -5 25 -28 56 -53 32 -24 54 -44 50 -44 -3 0 -38 16
-76 37 -112 58 -92 31 26 -35 129 -73 137 -71 127 43 l-5 70 44 32 c57 41 84
92 69 134 -6 16 -19 43 -31 58 -11 16 -20 33 -20 37 0 4 33 39 73 78 61 59 77
83 100 142 46 118 59 204 55 349 -3 118 -6 136 -31 187 -34 70 -75 93 -149 85
-96 -12 -257 -111 -435 -268 -75 -66 -186 -189 -179 -197 6 -5 85 56 142 110
22 22 47 38 55 36 8 -2 13 2 12 9 -4 20 138 142 202 173 37 19 83 32 120 35
l60 5 -72 -19 c-76 -21 -127 -44 -138 -62 -4 -6 6 -4 21 4 37 19 125 37 172
36 32 -1 29 -3 -24 -14 -73 -16 -244 -84 -244 -97 0 -5 -4 -7 -8 -4 -5 3 -24
-8 -43 -25 -30 -27 -24 -25 55 17 l89 47 121 1 c67 1 129 -4 138 -9 13 -8 -1
-10 -51 -7 -101 6 -198 -14 -292 -59 -45 -22 -79 -42 -76 -45 3 -3 19 2 35 10
89 46 265 72 322 47 21 -9 17 -10 -25 -6 -54 6 -132 -11 -205 -44 l-45 -21 40
6 c51 6 169 -12 204 -32 l26 -15 -25 5 c-59 11 -178 16 -210 8 -30 -7 -23 -9
51 -14 53 -3 97 -12 115 -22 16 -10 20 -14 9 -10 -11 4 -69 9 -130 10 -100 3
-107 2 -80 -10 17 -8 64 -19 105 -25 41 -7 77 -14 80 -18 3 -3 -15 -2 -40 1
l-45 6 45 -20 45 -20 -60 6 c-91 8 -325 -26 -325 -48 0 -4 -8 -5 -17 -2 -14 5
-15 4 -4 -4 9 -6 23 -4 45 7 40 21 215 21 264 0 32 -13 28 -14 -65 -11 -69 2
-111 -2 -143 -12 -25 -9 -34 -13 -20 -11 113 24 283 13 326 -20 17 -14 16 -14
-11 -3 -17 7 -78 12 -145 11 -139 0 -214 -19 -279 -71 l-46 -36 35 38 c19 21
49 47 65 57 17 10 26 19 22 19 -19 0 -76 -35 -116 -74 -25 -22 -40 -34 -33
-25 6 9 9 19 5 22 -9 9 28 48 39 41 4 -3 8 -2 7 3 -1 4 -1 17 0 28 1 15 3 17
10 7 6 -11 10 -10 15 4 3 9 4 19 1 22 -3 3 -5 0 -5 -7 0 -7 -5 -9 -10 -6 -6 3
-13 -1 -16 -9 -3 -9 -11 -13 -18 -9 -6 4 -14 8 -18 8 -19 0 -16 14 8 29 14 10
28 15 31 12 3 -3 20 7 37 22 17 15 43 35 56 45 15 11 9 9 -15 -4 -22 -12 -46
-29 -52 -37 -7 -9 -13 -13 -13 -9 0 4 -9 3 -20 -3 -34 -18 -22 -2 22 30 22 16
37 30 31 30 -13 0 -82 -51 -106 -77 -9 -11 -26 -37 -37 -59 -15 -31 -19 -35
-20 -16 -2 159 334 540 580 656 79 37 162 46 208 22 87 -45 117 -150 109 -391
-5 -167 -25 -271 -77 -408 -15 -41 -23 -84 -24 -145 -1 -52 -9 -108 -20 -141
-20 -59 -106 -213 -138 -248 -19 -20 -19 -27 -10 -80 6 -32 14 -69 18 -83 5
-22 3 -21 -22 10 -38 48 -154 162 -195 190 l-34 24 20 -23 c11 -13 58 -63 105
-111 154 -158 192 -250 193 -470 1 -130 -15 -276 -34 -312 -21 -40 -125 -14
-173 43 -36 43 -41 56 -65 188 -30 169 -70 223 -186 252 -27 6 -79 25 -115 41
l-65 30 49 18 c75 29 79 40 15 40 -35 0 -88 11 -144 30 -102 35 -182 39 -266
14 -135 -40 -219 -110 -275 -228 -43 -90 -72 -226 -57 -259 6 -12 25 -51 41
-87 16 -36 37 -74 47 -85 l17 -20 -8 20 c-24 67 -10 144 32 172 20 13 37 14
87 8 118 -16 198 -12 249 13 118 58 188 160 198 289 l5 72 34 -21 c29 -19 31
-23 17 -33 -30 -22 -17 -36 72 -76 123 -57 150 -87 219 -243 82 -186 151 -249
237 -216 27 10 28 10 22 -17 -17 -70 -83 -81 -169 -29 -59 36 -67 34 -43 -12
36 -70 113 -111 160 -87 l25 13 -23 -62 c-44 -115 -150 -298 -181 -310 -7 -2
-118 0 -246 6 -211 10 -272 19 -253 37 3 3 83 6 177 6 168 0 173 1 229 28 61
30 137 105 169 169 11 21 18 38 15 38 -2 0 -22 -25 -45 -55 -24 -32 -47 -53
-53 -49 -6 4 -8 3 -5 -3 8 -13 -38 -56 -93 -84 -41 -21 -61 -24 -204 -27 -172
-4 -190 0 -163 41 23 36 90 64 185 79 81 12 82 13 50 25 -45 16 -112 16 -152
-1 -42 -18 -103 -71 -122 -107 -8 -16 -18 -29 -23 -29 -5 0 -20 17 -34 38 -15
20 -41 46 -59 56 -29 17 -28 15 10 -18 23 -21 47 -46 52 -56 9 -17 4 -18 -66
-15 -52 2 -74 -1 -71 -9 2 -7 28 -10 74 -8 62 4 74 1 93 -18 12 -12 19 -27 17
-33 -4 -13 -79 -16 -142 -5 -35 6 -38 5 -22 -6 10 -8 39 -17 65 -21 26 -4 55
-11 65 -16 18 -10 24 -64 7 -74 -5 -3 -42 8 -82 25 -83 35 -88 35 -88 15 0 -8
8 -15 18 -15 20 0 123 -38 136 -50 5 -5 -2 -21 -16 -39 -28 -32 -32 -31 -101
13 -48 32 -42 9 7 -25 52 -37 55 -44 26 -59 -18 -10 -29 -4 -78 39 -31 27 -59
48 -61 45 -3 -2 17 -27 44 -54 27 -27 47 -51 44 -53 -2 -3 -18 -12 -35 -20
l-32 -16 -51 59 c-29 33 -57 60 -63 60 -5 0 9 -21 32 -47 63 -72 66 -80 29
-88 -17 -4 -32 -5 -33 -3 -1 1 -22 34 -47 71 -24 37 -45 64 -47 59 -1 -5 13
-33 33 -62 27 -41 33 -55 23 -61 -10 -7 -9 -9 3 -9 9 0 19 -7 23 -15 4 -13 -7
-15 -72 -14 -42 1 -69 3 -59 6 16 4 15 7 -8 19 -15 8 -33 14 -40 14 -7 0 -18
6 -24 13 -6 8 -30 19 -53 26 -72 22 -166 68 -193 95 -29 29 -33 72 -10 116 25
48 110 144 141 160 72 35 124 117 124 194 0 18 -3 16 -19 -10 -28 -46 -34 -47
-86 -17 -45 25 -50 26 -110 15 -79 -15 -144 -15 -201 -1 -51 13 -111 1 -139
-28 -15 -14 -19 -14 -46 6 -32 24 -35 18 -17 -41 12 -40 62 -98 84 -98 7 0 15
-14 19 -30 5 -21 23 -43 60 -70 71 -52 107 -101 103 -137 -2 -23 -18 -38 -80
-78 -72 -47 -95 -78 -65 -88 15 -5 -89 -44 -156 -59 -27 -5 -71 -8 -98 -6 -45
5 -49 3 -60 -24 -6 -16 -16 -31 -21 -34 -5 -3 0 13 12 35 11 23 18 46 15 51
-3 6 -22 10 -42 10 l-36 0 59 55 c67 63 44 59 -28 -5 l-48 -42 -35 22 c-19 12
-35 23 -35 25 0 2 21 15 46 30 25 15 43 29 40 32 -3 3 -20 -3 -38 -14 -57 -33
-64 -33 -93 -3 l-27 28 40 21 c23 12 48 21 57 21 15 0 20 12 9 22 -3 4 -31 -5
-62 -19 l-57 -25 -33 36 c-18 20 -30 41 -27 46 3 5 31 14 63 20 87 17 109 32
37 25 -86 -8 -334 -94 -493 -170 -74 -36 -137 -63 -139 -61 -6 5 92 61 145 81
23 10 42 21 42 26 0 5 5 9 12 9 6 0 41 12 77 27 36 15 107 39 156 53 64 19 89
31 86 41 -2 8 -6 22 -8 32 -4 13 1 17 23 18 20 1 23 3 9 6 -36 7 -636 -75
-786 -108 -186 -40 -403 -112 -552 -182 -64 -31 -117 -58 -117 -61 0 -3 33 10
72 28 251 114 547 198 885 250 20 3 21 0 16 -28 -3 -17 -10 -39 -15 -49 -5 -9
-5 -17 0 -17 18 0 102 32 102 39 0 4 -11 18 -25 31 -24 22 -24 25 -8 31 27 11
52 11 35 0 -10 -6 -10 -13 -2 -33 l11 -24 121 33 c102 28 245 53 213 38 -5 -2
-68 -20 -140 -40 -71 -19 -174 -48 -227 -64 -54 -16 -95 -25 -92 -20 9 15 -9
11 -118 -27 -125 -44 -258 -106 -358 -170 -104 -66 -283 -202 -355 -270 -60
-57 -48 -48 94 67 107 87 280 199 406 262 115 57 304 132 312 123 3 -2 -8 -28
-24 -57 -27 -51 -32 -55 -168 -123 -77 -39 -176 -96 -220 -126 -89 -62 -252
-220 -304 -296 l-33 -49 37 45 c161 192 356 336 601 445 l56 25 -16 -23 c-73
-101 -141 -243 -177 -364 -17 -60 -34 -89 -91 -160 -175 -219 -356 -537 -478
-843 -29 -74 -120 -365 -120 -386 0 -2 170 -3 378 -2 l377 3 3 22 c2 13 -1 23
-7 23 -6 0 -20 18 -31 40 -11 22 -25 40 -30 40 -12 0 -34 49 -31 69 1 7 -4 11
-11 9 -7 -3 -21 4 -30 14 -9 11 -22 17 -27 13 -7 -4 -11 3 -11 17 0 13 -4 19
-8 13 -4 -5 -20 -11 -36 -13 l-29 -3 7 103 c9 139 40 278 67 299 14 10 20 25
19 45 -4 60 -1 79 12 66 8 -8 9 -15 2 -22 -24 -24 17 -364 48 -395 7 -7 8 -3
5 10 -14 49 -27 142 -31 227 l-5 93 9 -72 c12 -91 51 -209 96 -290 38 -69 124
-178 172 -218 18 -15 32 -33 32 -40 0 -22 41 -55 67 -55 13 0 45 10 71 21 l46
21 -35 32 c-19 17 -69 59 -110 94 -86 73 -175 180 -212 256 -57 116 -86 287
-87 506 0 59 -5 111 -10 116 -7 7 -3 49 13 133 l24 122 59 63 c42 44 39 42
-11 -9 -39 -38 -96 -107 -128 -152 -55 -78 -69 -113 -46 -113 5 0 8 -4 5 -9
-4 -5 0 -12 6 -14 10 -4 10 -6 0 -6 -7 -1 -11 -5 -8 -9 3 -4 -17 -118 -44
-253 -59 -293 -78 -471 -64 -591 6 -45 9 -85 8 -87 -7 -9 -71 25 -97 51 -15
15 -31 28 -36 28 -5 0 -13 9 -16 20 -3 11 -10 20 -14 20 -11 0 -31 46 -31 70
0 11 -9 24 -20 30 -11 6 -20 7 -20 1 0 -5 -17 -7 -37 -5 -21 2 -46 4 -55 4
-10 1 -18 3 -18 6 0 39 213 466 308 618 63 100 257 372 273 382 5 3 6 10 3 16
-4 6 -3 8 3 5 5 -3 27 12 49 34 55 57 190 163 324 254 63 43 120 85 127 93 6
8 16 11 22 7 6 -3 11 -2 11 4 0 5 28 25 63 44 62 35 167 81 167 73 0 -2 -51
-32 -112 -67 -141 -78 -189 -109 -183 -119 3 -4 -3 -7 -13 -6 -9 0 -16 -4 -15
-10 1 -7 -5 -11 -15 -10 -9 0 -16 -5 -14 -12 1 -6 -1 -11 -5 -11 -19 3 -34 -2
-29 -9 3 -5 -1 -9 -8 -9 -14 0 -156 -100 -216 -152 -28 -24 -31 -30 -16 -31
15 0 17 -5 13 -30 -6 -25 -3 -30 16 -34 72 -15 105 -20 130 -19 18 0 27 -5 27
-15 0 -12 3 -13 12 -4 9 9 7 17 -8 33 -10 13 -14 19 -7 16 6 -4 15 -2 18 4 4
5 13 8 21 5 8 -3 27 15 49 44 49 67 226 233 322 302 139 100 123 76 -32 -49
-145 -117 -228 -193 -210 -193 4 0 1 -8 -8 -17 -15 -17 -21 -36 -18 -59 2 -18
49 -34 100 -34 l49 0 -29 -82 c-30 -86 -36 -155 -20 -233 6 -29 8 -10 7 70 -1
104 1 114 32 187 19 43 31 82 27 88 -4 6 -1 9 7 8 7 -2 12 5 12 14 -1 10 3 15
9 11 6 -4 8 0 4 11 -5 11 -3 15 5 10 8 -5 9 -2 5 10 -5 11 -3 15 5 10 8 -5 9
-2 5 9 -3 9 -3 16 2 14 4 -1 41 40 82 92 41 52 94 110 119 130 l44 36 -21 -31
c-12 -17 -30 -37 -39 -45 -9 -7 -28 -31 -41 -52 -13 -21 -28 -35 -32 -32 -5 2
-8 -3 -7 -13 0 -9 -4 -16 -11 -15 -6 1 -17 -5 -25 -15 -12 -15 -11 -16 5 -3
23 18 22 16 -19 -67 -23 -49 -33 -80 -29 -95 4 -15 3 -18 -3 -9 -7 11 -12 6
-21 -20 -9 -29 -9 -31 3 -15 12 16 18 17 37 7 13 -8 41 -10 70 -7 39 5 49 3
52 -11 4 -13 5 -11 6 5 0 12 -4 23 -10 25 -8 3 -6 10 5 20 9 9 16 23 16 31 0
29 89 261 90 233 0 -6 7 -1 15 10 9 10 0 -12 -18 -51 -31 -63 -77 -192 -77
-217 0 -5 4 -7 8 -4 8 5 98 -49 224 -135 140 -96 208 -107 363 -62 30 8 -18
-40 -167 -169 -176 -151 -167 -156 17 -9 79 62 343 325 393 389 14 18 39 40
56 49 55 28 250 155 277 180 l26 24 28 -68 c52 -131 51 -128 58 -109 5 11 3
15 -5 10 -8 -5 -9 -2 -5 9 3 10 2 17 -3 17 -6 0 -10 8 -10 18 0 9 -14 48 -30
87 -17 38 -30 70 -30 71 0 1 13 4 29 6 26 4 31 -1 60 -52 17 -32 28 -60 24
-63 -3 -4 -2 -7 4 -7 14 0 77 -140 118 -263 46 -136 68 -269 69 -402 1 -98 -1
-114 -22 -147 -13 -20 -37 -49 -53 -63 -40 -33 -26 -33 18 1 66 50 88 141 72
302 -20 197 -65 344 -179 580 -52 108 -65 143 -52 140 41 -8 180 -233 243
-392 15 -39 28 -66 28 -60 1 17 -45 136 -75 197 -37 73 -92 165 -131 216 -18
24 -33 47 -33 51 0 4 12 15 26 25 l26 17 56 -58 c77 -82 130 -154 134 -184 1
-14 10 -25 18 -25 33 0 126 -263 155 -440 l15 -90 -5 91 c-11 215 -126 469
-293 645 -56 60 -63 72 -51 84 12 12 24 6 89 -42 68 -52 254 -226 222 -208
-18 10 -7 -12 60 -114 44 -67 74 -108 54 -74 -5 9 -2 11 9 7 13 -5 13 -9 3
-22 -11 -13 -11 -14 1 -7 11 6 13 4 8 -9 -4 -10 -3 -15 3 -11 6 3 10 2 10 -4
0 -5 3 -17 7 -27 4 -11 2 -15 -4 -11 -6 4 -12 -46 -16 -146 -7 -166 -23 -250
-63 -330 -17 -32 -21 -47 -11 -39 44 37 87 182 96 327 l6 100 24 -95 c33 -131
39 -319 17 -477 -10 -65 -21 -148 -27 -185 -16 -116 -81 -272 -161 -391 -26
-39 -34 -57 -24 -57 8 0 32 27 55 60 76 114 131 256 145 372 11 89 26 69 26
-35 0 -65 -9 -140 -30 -242 -17 -82 -28 -150 -25 -153 2 -2 10 -2 18 1 9 3 24
61 42 163 24 128 29 185 28 294 0 74 -1 216 -1 315 -1 151 -6 208 -31 356 -31
180 -42 220 -106 394 -32 86 -36 109 -33 168 2 46 0 67 -8 67 -6 0 -54 20
-105 43 -52 24 -105 49 -119 55 -24 11 -24 11 5 6 26 -5 28 -4 11 7 -11 6 -37
12 -58 12 -28 0 -36 3 -26 9 9 6 5 7 -12 2 l-25 -6 22 19 c13 11 19 23 15 27
-12 13 93 -31 177 -73 44 -22 82 -45 86 -51 9 -14 5 -13 -75 21 -40 17 -74 29
-76 27 -4 -5 177 -83 191 -83 6 0 9 6 7 14 -4 18 57 81 79 81 37 0 273 -111
389 -183 89 -55 266 -188 375 -282 l90 -77 -82 81 c-172 166 -419 333 -642
432 l-120 52 27 21 c15 11 32 27 38 35 9 11 31 9 143 -18 73 -18 135 -31 137
-28 3 2 -27 13 -66 23 -38 10 -70 21 -70 25 0 4 -10 5 -22 1 -13 -3 -19 -1
-15 5 4 6 -4 8 -20 5 -14 -3 -24 -1 -21 4 3 5 -15 10 -40 11 -26 1 -48 7 -50
13 -2 5 -15 7 -29 4 -19 -5 -24 -4 -19 5 6 9 0 10 -20 5 -21 -5 -25 -4 -19 6
6 10 2 12 -15 7 -13 -3 -29 -2 -34 2 -6 5 -72 18 -146 31 -133 21 -148 25
-138 35 4 5 472 -13 492 -18 5 -2 -7 -20 -26 -40 -34 -35 -34 -37 -12 -37 16
0 40 21 83 73 119 142 196 317 257 582 24 105 28 140 27 280 0 141 -3 171 -25
250 -14 50 -36 126 -48 171 l-22 80 65 116 c83 146 108 218 114 333 3 60 15
121 34 182 37 118 56 230 65 374 11 204 -24 346 -102 405 -34 26 -45 29 -113
29 -71 0 -82 -3 -166 -48 -86 -45 -171 -104 -359 -247 -158 -121 -285 -186
-405 -205 -42 -7 -43 -6 -37 16 l6 24 -12 -24 c-11 -21 -16 -22 -62 -16 -28 3
-103 19 -166 35 -277 69 -417 68 -751 -6 -230 -50 -284 -47 -324 20 -27 45
-34 42 -10 -4 19 -37 11 -38 -66 -11 -89 30 -149 65 -265 152 -229 172 -409
279 -514 303 -71 17 -80 18 -126 6z m2636 -701 c0 -4 -7 -12 -15 -19 -11 -9
-15 -9 -15 -1 0 7 -4 9 -10 6 -5 -3 -7 0 -4 9 5 14 44 19 44 5z m398 -44 c68
-20 76 -36 9 -18 -60 15 -193 17 -256 2 -58 -13 -63 -5 -9 14 57 20 191 21
256 2z m-541 -891 c21 -6 21 -7 -14 -40 -20 -19 -44 -34 -53 -34 -10 0 -23 -7
-30 -16 -9 -10 -26 -14 -49 -12 -32 3 -36 6 -36 32 0 16 7 32 15 36 72 36 122
46 167 34z m61 -112 c6 -40 -26 -126 -63 -170 -80 -93 -196 -126 -291 -82 -27
13 -52 23 -56 22 -9 -2 -68 67 -68 80 0 6 14 -8 30 -30 38 -52 49 -55 16 -4
-14 20 -28 49 -31 63 -6 23 -2 28 22 37 15 5 35 13 44 17 12 4 19 -2 27 -23
13 -38 67 -99 105 -118 27 -15 32 -14 56 3 14 11 39 39 56 62 24 35 30 52 30
99 0 31 5 60 10 65 6 4 33 6 60 5 43 -3 50 -6 53 -26z m-571 -264 c-2 -13 -4
-5 -4 17 -1 22 1 32 4 23 2 -10 2 -28 0 -40z m-453 -526 c2 -4 61 -3 130 1
110 8 130 7 151 -7 51 -33 26 -68 -50 -71 -47 -1 -62 -6 -77 -24 -20 -26 -24
-71 -7 -88 6 -6 10 -16 7 -23 -6 -20 -49 26 -59 66 -6 20 -14 33 -17 27 -4 -5
-18 -12 -30 -16 -13 -3 -21 -3 -18 0 4 4 -11 23 -32 42 -21 20 -45 51 -54 69
l-16 32 33 0 c19 0 36 -3 39 -8z m1081 -286 c70 -13 234 -50 274 -62 11 -4 5
-15 -21 -41 l-36 -35 -103 36 c-81 28 -94 35 -59 31 127 -16 128 -16 95 -5
-16 5 -70 14 -120 19 -115 13 -145 22 -163 49 -14 21 -13 22 19 22 19 0 70 -6
114 -14z m14 -86 c124 -38 171 -55 171 -64 0 -2 -15 -15 -33 -29 l-34 -26 -84
43 c-46 24 -105 51 -131 61 -34 12 -48 23 -48 36 0 11 6 19 13 19 6 0 72 -18
146 -40z m-1850 26 c-2 -2 -56 -25 -119 -51 -63 -25 -142 -61 -175 -79 -33
-18 -77 -38 -97 -45 -21 -7 -38 -17 -38 -21 0 -5 -7 -6 -17 -3 -11 4 -14 3 -9
-5 5 -8 2 -10 -8 -6 -9 3 -18 0 -21 -8 -3 -8 -13 -15 -22 -15 -28 0 31 43 90
65 30 12 105 46 167 77 117 59 201 93 234 94 11 1 17 -1 15 -3z m35 -71 c-17
-8 -44 -16 -60 -20 -25 -4 -23 -2 11 15 22 11 49 19 60 19 15 0 12 -4 -11 -14z
m1758 -89 l143 -64 7 -88 c3 -49 11 -101 17 -116 6 -16 8 -28 5 -28 -2 0 11
-25 31 -55 19 -30 33 -55 31 -55 -9 0 -86 112 -81 120 9 14 -92 116 -220 224
-82 69 -114 102 -102 104 9 2 17 8 17 13 0 13 -2 14 152 -55z m-768 -82 c172
-48 221 -57 278 -51 26 2 45 0 42 -5 -10 -16 -208 -141 -271 -170 -88 -42
-207 -61 -292 -48 -74 12 -188 61 -197 84 -3 9 -10 14 -14 11 -4 -3 -3 13 2
35 6 22 16 40 24 40 8 0 14 5 14 12 0 6 3 9 6 5 8 -7 144 61 194 97 19 14 46
25 59 26 13 0 82 -16 155 -36z m-1134 -157 c0 -2 -12 -14 -27 -28 l-28 -24 24
28 c23 25 31 32 31 24z m2045 -48 c-3 -4 5 -25 18 -46 54 -87 43 -83 -16 6
-35 52 -41 85 -11 60 7 -6 11 -15 9 -20z m142 -331 c-3 -8 -6 -5 -6 6 -1 11 2
17 5 13 3 -3 4 -12 1 -19z m-2838 -258 c-9 -54 -15 -76 -20 -63 -10 26 15 163
27 150 3 -3 0 -42 -7 -87z m-142 -872 c-3 -8 -6 -5 -6 6 -1 11 2 17 5 13 3 -3
4 -12 1 -19z m448 3 c3 -5 2 -12 -3 -15 -5 -3 -9 1 -9 9 0 17 3 19 12 6z"/>
<path d="M1054 4741 c-31 -14 -47 -30 -65 -67 -22 -45 -24 -61 -23 -189 0
-122 4 -151 28 -230 53 -175 127 -301 202 -343 16 -9 15 -12 -9 -42 -47 -55
-30 -109 69 -211 36 -36 45 -53 46 -83 1 -21 -3 -41 -9 -44 -15 -10 -25 -60
-13 -67 9 -5 96 38 153 77 15 11 27 27 27 36 0 10 10 26 21 36 27 23 16 34
-64 66 -69 27 -70 36 -1 15 49 -15 82 -19 72 -10 -2 3 -39 13 -80 24 -42 10
-87 26 -99 35 -28 19 -23 19 61 1 93 -20 113 -19 67 6 -45 24 -42 36 4 20 18
-6 50 -11 73 -11 l41 0 -30 16 c-70 36 -66 44 25 44 95 0 121 9 101 34 -21 25
-111 79 -165 99 l-51 18 65 -6 c40 -4 89 -17 128 -35 34 -16 62 -25 62 -20 0
15 -70 52 -154 81 l-81 29 200 -5 c110 -3 209 -8 219 -11 18 -6 19 -2 13 62
-12 134 -120 294 -307 460 -67 59 -228 170 -236 162 -2 -3 22 -26 53 -51 70
-56 315 -292 292 -280 -15 7 -153 122 -358 296 -108 91 -204 122 -277 88z
m246 -95 c19 -9 26 -14 15 -10 -11 3 -51 12 -90 20 l-70 14 55 -4 c30 -2 71
-10 90 -20z m30 -42 c38 -17 80 -51 135 -107 44 -45 108 -102 142 -126 35 -24
60 -48 56 -54 -3 -6 -1 -7 6 -3 6 4 14 0 17 -8 3 -9 9 -14 13 -12 3 2 17 -8
31 -21 l25 -25 -34 17 c-39 19 -111 46 -111 41 0 -2 24 -18 53 -34 28 -17 68
-44 87 -61 l35 -31 -49 25 c-64 33 -79 21 -21 -17 64 -42 63 -48 -3 -17 -31
15 -73 30 -92 33 -33 5 -33 5 8 -10 50 -19 51 -28 1 -14 -18 6 -59 9 -89 9
l-55 -1 60 -9 c71 -10 130 -32 165 -59 21 -17 17 -16 -25 4 -54 26 -227 61
-254 51 -25 -10 -183 -36 -188 -31 -7 7 96 42 182 62 l80 19 -59 3 c-52 3 -85
-2 -176 -24 -20 -4 -22 -3 -10 5 28 20 125 53 195 66 l70 13 -80 1 c-44 1 -97
-4 -118 -10 -22 -6 -41 -8 -43 -6 -6 6 119 44 170 52 48 8 43 12 -24 25 -49 9
-101 5 -195 -15 l-30 -6 26 15 c38 22 151 38 223 31 l61 -5 -50 16 c-49 16
-204 16 -250 1 -11 -4 0 3 25 15 46 22 123 28 205 15 l40 -6 -45 15 c-45 15
-212 15 -270 -1 -22 -5 -22 -4 5 11 20 12 62 20 130 24 l100 6 -45 13 c-45 13
-165 11 -205 -3 -11 -4 -6 1 10 11 22 13 52 18 117 18 48 1 90 4 93 7 10 10
-180 17 -225 8 -64 -12 -62 -4 4 15 38 11 75 15 114 11 39 -4 51 -3 37 3 -11
5 -49 10 -85 12 -63 1 -64 2 -21 9 24 4 66 3 93 -2 67 -12 72 -3 13 23 -38 17
-61 20 -114 17 -36 -3 -75 -9 -86 -13 -11 -5 -17 -5 -13 -1 14 16 85 35 133
35 33 1 69 -8 105 -25z m319 -490 c28 -15 50 -28 47 -31 -2 -2 -19 3 -37 12
-66 34 -233 29 -344 -11 -16 -5 -18 -4 -8 6 20 22 135 49 214 49 62 1 84 -4
128 -25z"/>
<path d="M1528 4323 c7 -3 16 -2 19 1 4 3 -2 6 -13 5 -11 0 -14 -3 -6 -6z"/>
<path d="M1650 4229 c0 -5 5 -7 10 -4 6 3 10 8 10 11 0 2 -4 4 -10 4 -5 0 -10
-5 -10 -11z"/>
<path d="M3371 4554 c0 -11 3 -14 6 -6 3 7 2 16 -1 19 -3 4 -6 -2 -5 -13z"/>
<path d="M3342 4453 c-15 -48 -8 -55 8 -8 7 20 10 38 8 41 -3 2 -10 -13 -16
-33z"/>
<path d="M2766 4259 c-15 -183 -18 -274 -10 -266 17 17 40 307 27 332 -8 13
-12 -3 -17 -66z"/>
<path d="M3839 4323 c-13 -16 -12 -17 4 -4 16 13 21 21 13 21 -2 0 -10 -8 -17
-17z"/>
<path d="M2642 4183 c-6 -76 -21 -180 -33 -230 l-23 -93 27 -137 c15 -76 27
-171 27 -211 0 -46 4 -71 10 -67 20 12 11 178 -15 281 -27 106 -31 176 -14
221 6 15 17 51 24 78 l14 50 2 -50 1 -50 13 50 c7 28 14 82 14 122 1 70 -16
173 -29 173 -4 0 -12 -62 -18 -137z"/>
<path d="M2350 4294 c0 -3 16 -40 36 -82 47 -99 49 -164 9 -307 l-27 -99 18
-51 c14 -38 19 -77 19 -160 0 -105 -1 -113 -32 -169 -36 -65 -38 -85 -4 -37
72 101 86 231 37 352 l-26 66 34 104 c25 73 35 95 36 74 1 -26 2 -27 10 -9 10
24 14 87 12 171 -2 54 -6 67 -32 95 -22 25 -29 29 -30 16 0 -28 -18 -21 -35
12 -14 28 -25 38 -25 24z"/>
<path d="M2910 4250 c-47 -73 -59 -115 -58 -200 0 -48 3 -64 7 -45 l6 30 14
-43 c20 -59 32 -63 15 -5 -8 25 -14 63 -14 84 0 39 32 155 56 202 23 44 9 31
-26 -23z"/>
<path d="M2200 4219 c0 -42 -2 -92 -5 -110 -5 -34 -5 -34 11 6 19 47 22 133 6
161 -9 15 -11 4 -12 -57z"/>
<path d="M3013 4234 c-45 -99 -42 -264 6 -369 l19 -40 -4 40 -4 40 20 -40 20
-40 -4 35 c-3 19 -10 76 -16 125 -7 50 -10 138 -9 198 2 59 3 107 1 107 -2 0
-15 -25 -29 -56z"/>
<path d="M2528 4225 c-12 -62 -10 -174 3 -153 5 10 8 57 7 105 -3 73 -4 81
-10 48z"/>
<path d="M2097 4205 c3 -22 7 -42 9 -44 8 -9 2 45 -6 64 -7 14 -8 8 -3 -20z"/>
<path d="M3111 4200 c0 -25 4 -61 9 -80 9 -33 90 -164 90 -147 0 5 -8 21 -19
35 -39 56 -65 119 -71 177 -7 56 -7 57 -9 15z"/>
<path d="M2310 4158 c0 -18 -14 -89 -30 -158 -33 -138 -34 -149 -21 -135 28
29 80 325 57 325 -3 0 -6 -15 -6 -32z"/>
<path d="M2113 4100 c0 -30 2 -43 4 -27 2 15 2 39 0 55 -2 15 -4 2 -4 -28z"/>
<path d="M3660 4099 c0 -5 5 -7 10 -4 6 3 10 8 10 11 0 2 -4 4 -10 4 -5 0 -10
-5 -10 -11z"/>
<path d="M2769 3933 c0 -64 -26 -202 -28 -153 -1 19 -5 41 -10 48 -11 17 -18
-18 -31 -153 -12 -126 -12 -198 0 -170 5 11 9 32 9 47 1 20 5 26 16 22 12 -5
15 3 15 37 0 24 7 75 15 114 16 78 31 255 21 255 -3 0 -6 -21 -7 -47z"/>
<path d="M1076 3913 c-9 -59 -7 -81 14 -153 23 -77 67 -133 123 -155 50 -20
46 -6 -7 26 -31 19 -50 42 -69 80 -31 61 -34 97 -11 140 15 29 14 32 -11 65
-14 19 -27 34 -29 34 -2 0 -6 -17 -10 -37z"/>
<path d="M4292 3940 c-46 -11 -60 -26 -40 -42 31 -26 48 -63 48 -105 0 -39 -6
-49 -53 -98 -31 -32 -47 -55 -38 -55 8 0 36 22 62 50 58 59 98 169 83 223 -11
35 -17 38 -62 27z"/>
<path d="M1592 3916 c21 -12 48 -31 60 -42 l23 -19 -19 23 c-11 12 -15 22 -10
22 5 0 -11 9 -35 20 -57 26 -65 25 -19 -4z"/>
<path d="M2121 3924 c0 -11 3 -14 6 -6 3 7 2 16 -1 19 -3 4 -6 -2 -5 -13z"/>
<path d="M3182 3872 c-13 -31 -37 -80 -54 -107 l-30 -49 -19 35 c-27 50 -23
26 5 -29 13 -26 29 -65 36 -87 25 -80 25 -80 78 -36 57 47 95 67 164 85 37 10
45 15 26 15 -32 1 -101 -24 -140 -51 -14 -10 -28 -18 -31 -18 -9 0 100 171
154 240 l50 65 -51 -55 c-28 -30 -81 -102 -117 -160 -36 -58 -74 -115 -83
-128 -18 -22 -18 -22 -38 44 l-21 67 29 51 c34 60 72 155 68 168 -2 4 -14 -18
-26 -50z"/>
<path d="M2131 3890 c0 -8 4 -24 9 -35 5 -13 9 -14 9 -5 0 8 -4 24 -9 35 -5
13 -9 14 -9 5z"/>
<path d="M1980 3857 c0 -4 25 -57 55 -117 30 -61 53 -110 50 -110 -3 0 -26 15
-52 34 -59 42 -113 69 -121 62 -3 -3 -1 -6 5 -6 17 0 160 -97 210 -142 44 -41
51 -37 13 7 -10 11 -48 76 -85 145 -68 126 -75 139 -75 127z"/>
<path d="M2497 3809 c17 -19 36 -52 42 -74 26 -97 5 -291 -45 -403 -34 -77
-23 -77 15 0 43 89 61 168 61 273 0 134 -23 195 -85 227 -13 7 -9 -1 12 -23z"/>
<path d="M2894 3758 c-35 -76 -39 -90 -39 -168 0 -73 4 -92 27 -135 14 -27 38
-61 53 -75 25 -23 25 -20 -8 30 -67 104 -71 180 -16 335 16 48 28 89 26 91 -2
2 -21 -33 -43 -78z"/>
<path d="M2795 3757 c-47 -103 -57 -273 -19 -337 l15 -25 -8 25 c-4 14 -8 70
-7 125 1 79 6 117 27 180 14 43 24 81 22 84 -3 2 -16 -21 -30 -52z"/>
<path d="M2165 3776 c8 -40 34 -100 40 -95 2 3 -7 32 -21 65 -14 32 -22 46
-19 30z"/>
<path d="M3330 3361 c-40 -13 -84 -37 -103 -59 -14 -16 -3 -12 46 14 35 18 88
38 118 43 l54 9 -45 0 c-25 0 -56 -3 -70 -7z"/>
<path d="M1805 3340 c72 -9 122 -27 201 -71 49 -27 56 -29 40 -11 -11 13 -48
37 -83 54 -52 25 -78 32 -141 34 l-77 3 60 -9z"/>
<path d="M1760 3269 c-30 -4 -75 -14 -99 -23 -24 -9 -73 -16 -109 -16 -36 0
-62 -3 -59 -6 3 -4 35 -14 69 -24 l63 -17 6 -80 c10 -135 73 -239 179 -297 66
-36 140 -42 253 -22 58 10 96 12 112 6 32 -12 48 -69 42 -150 -4 -62 -7 -80
-22 -125 l-7 -20 17 20 c30 35 66 122 71 172 4 34 -3 85 -25 178 -53 220 -103
294 -245 361 -80 38 -164 53 -246 43z m20 -144 c11 -4 14 -16 12 -48 -5 -65
13 -119 59 -171 52 -58 81 -61 147 -10 26 19 51 42 55 50 6 11 14 8 37 -13 17
-14 30 -32 30 -39 0 -20 -60 -61 -110 -74 -109 -29 -246 36 -302 144 -21 41
-35 133 -24 161 6 17 38 16 96 0z m266 -20 c18 -27 13 -52 -11 -62 -21 -7 -62
15 -68 37 -13 49 50 69 79 25z"/>
<path d="M2814 3124 c-18 -97 20 -264 80 -349 32 -46 31 -40 -5 30 -48 93 -63
153 -64 257 0 54 -1 98 -2 98 -1 0 -5 -16 -9 -36z"/>
<path d="M1550 3140 c-8 -5 -10 -10 -5 -10 6 0 17 5 25 10 8 5 11 10 5 10 -5
0 -17 -5 -25 -10z"/>
<path d="M3760 2839 c-74 -67 -160 -108 -251 -121 -136 -18 -153 -28 -43 -24
111 3 178 26 254 86 33 26 109 111 98 110 -1 -1 -28 -23 -58 -51z"/>
<path d="M3565 2825 c-55 -30 -131 -65 -170 -76 -91 -28 -106 -42 -24 -23 68
15 169 61 259 119 83 52 48 42 -65 -20z"/>
<path d="M1540 2824 c0 -17 56 -82 91 -106 39 -26 49 -28 133 -27 l91 2 -70 9
c-116 15 -144 26 -196 78 -27 27 -49 47 -49 44z"/>
<path d="M1715 2801 c38 -41 117 -78 180 -85 53 -6 47 -2 -55 29 -30 9 -77 33
-105 52 l-50 36 30 -32z"/>
<path d="M2720 2777 c87 -26 126 -55 169 -127 11 -19 21 -30 21 -24 0 7 -15
33 -32 60 -37 54 -99 92 -163 99 l-40 5 45 -13z"/>
<path d="M3759 2737 c-26 -29 -71 -66 -100 -82 -47 -25 -68 -30 -159 -35
l-105 -5 83 -8 c113 -11 172 6 244 72 42 39 100 113 86 110 -2 0 -24 -24 -49
-52z"/>
<path d="M1411 2724 c-1 -6 4 -37 10 -69 19 -103 79 -196 153 -240 42 -24 156
-68 156 -60 0 3 -33 21 -72 40 -122 60 -186 135 -224 265 -13 41 -23 70 -23
64z"/>
<path d="M1631 2639 c40 -53 81 -69 174 -68 79 2 79 2 25 9 -106 13 -130 21
-177 57 l-48 36 26 -34z"/>
<path d="M3751 2629 c-45 -70 -132 -118 -220 -120 -44 -1 -45 -1 -16 -10 86
-28 199 32 251 133 23 44 13 42 -15 -3z"/>
<path d="M3892 2626 c-31 -86 -143 -172 -272 -208 l-65 -19 62 5 c146 12 244
81 282 199 16 48 10 70 -7 23z"/>
<path d="M1313 2525 c3 -108 6 -125 29 -171 41 -79 117 -134 186 -134 18 0 73
29 97 51 20 18 20 18 17 -24 -3 -23 -9 -48 -15 -55 -9 -11 6 -12 79 -6 106 8
123 18 100 61 -22 43 -80 91 -119 98 -18 4 -57 2 -86 -3 -61 -11 -106 -3 -155
27 -42 27 -89 95 -104 153 -6 24 -16 61 -21 83 -8 32 -10 17 -8 -80z"/>
<path d="M3983 2588 c-17 -63 -66 -134 -118 -171 -25 -17 -83 -44 -128 -59
l-82 -26 60 5 c112 9 165 35 215 105 29 40 75 159 68 179 -2 6 -9 -9 -15 -33z"/>
<path d="M2911 2594 c0 -11 3 -14 6 -6 3 7 2 16 -1 19 -3 4 -6 -2 -5 -13z"/>
<path d="M1553 2583 c30 -35 129 -81 218 -102 46 -11 93 -23 104 -26 13 -4 11
-1 -6 9 -14 8 -65 26 -115 40 -109 30 -150 47 -189 77 -27 21 -28 21 -12 2z"/>
<path d="M2928 2500 c3 -55 0 -85 -11 -112 -9 -21 -14 -38 -11 -38 3 0 12 16
20 35 15 36 17 123 4 165 -4 14 -5 -8 -2 -50z"/>
<path d="M2359 2495 c-12 -55 -5 -105 20 -145 18 -27 20 -5 5 40 -11 31 -14
63 -10 103 3 31 4 57 2 57 -3 0 -10 -25 -17 -55z"/>
<path d="M3235 2151 c-9 -16 3 -31 26 -31 14 0 19 6 17 17 -4 20 -33 29 -43
14z"/>
<path d="M2045 2140 c-4 -6 -1 -17 5 -26 15 -18 42 0 33 22 -6 16 -29 19 -38
4z"/>
<path d="M3144 2139 c-3 -6 0 -17 7 -25 18 -17 44 -2 36 20 -7 18 -33 21 -43
5z"/>
<path d="M2142 2114 c4 -21 22 -23 26 -1 2 10 -3 17 -13 17 -10 0 -15 -6 -13
-16z"/>
<path d="M3062 2113 c4 -21 33 -25 33 -3 0 8 -8 16 -18 18 -14 3 -18 -1 -15
-15z"/>
<path d="M1908 2113 c6 -2 18 -2 25 0 6 3 1 5 -13 5 -14 0 -19 -2 -12 -5z"/>
<path d="M3224 2009 c-10 -17 23 -46 38 -31 8 8 8 15 -2 27 -15 18 -26 19 -36
4z"/>
<path d="M2037 1996 c-6 -16 19 -30 28 -16 7 11 -2 30 -15 30 -4 0 -10 -6 -13
-14z"/>
<path d="M3140 2003 c1 -20 19 -35 35 -29 14 5 15 9 5 21 -13 16 -40 21 -40 8z"/>
<path d="M2132 1986 c1 -10 8 -17 13 -17 15 1 12 24 -3 29 -9 3 -13 -2 -10
-12z"/>
<path d="M2092 1888 c6 -18 28 -21 28 -4 0 9 -7 16 -16 16 -9 0 -14 -5 -12
-12z"/>
<path d="M2225 1890 c4 -6 0 -22 -9 -35 -24 -37 -19 -44 8 -10 23 28 25 55 4
55 -5 0 -6 -5 -3 -10z"/>
<path d="M4255 1890 c11 -5 27 -9 35 -9 9 0 8 4 -5 9 -11 5 -27 9 -35 9 -9 0
-8 -4 5 -9z"/>
<path d="M4356 1871 c-19 -7 -18 -8 4 -14 13 -3 26 -4 29 -2 2 3 -2 5 -10 5
-11 0 -11 2 1 10 18 11 3 12 -24 1z"/>
<path d="M4430 1854 c71 -31 354 -134 357 -130 4 4 -220 94 -316 127 -65 23
-90 24 -41 3z"/>
<path d="M2180 1791 c-7 -15 -7 -22 2 -27 7 -4 10 -4 6 1 -4 4 -3 16 3 26 5
11 7 19 5 19 -3 0 -10 -9 -16 -19z"/>
<path d="M3018 1773 c6 -2 18 -2 25 0 6 3 1 5 -13 5 -14 0 -19 -2 -12 -5z"/>
<path d="M3792 1765 c3 -3 45 -25 95 -49 207 -101 358 -209 518 -370 117 -118
119 -117 12 6 -72 82 -198 187 -313 261 -97 63 -277 157 -299 157 -10 0 -16
-2 -13 -5z"/>
<path d="M1579 1483 c-13 -16 -12 -17 4 -4 9 7 17 15 17 17 0 8 -8 3 -21 -13z"/>
<path d="M1807 1474 c-3 -3 -3 -13 0 -22 4 -10 2 -13 -5 -8 -8 5 -10 2 -5 -10
5 -15 7 -15 15 0 5 9 7 20 3 25 -3 5 1 12 7 14 7 3 8 6 2 6 -6 1 -13 -2 -17
-5z"/>
<path d="M1509 1393 c-13 -16 -12 -17 4 -4 16 13 21 21 13 21 -2 0 -10 -8 -17
-17z"/>
<path d="M1756 1373 c-20 -42 -56 -141 -56 -155 0 -23 18 5 24 37 4 19 11 35
16 35 6 0 10 8 10 17 0 28 15 4 16 -27 1 -16 18 -55 37 -87 47 -76 246 -270
352 -342 11 -8 -20 24 -70 69 -172 159 -298 306 -298 347 0 7 -4 13 -9 13 -5
0 -6 5 -3 11 4 5 -1 19 -10 29 -10 11 -12 20 -6 24 5 4 15 -2 21 -11 11 -17
11 -17 6 0 -3 9 -9 24 -13 34 -4 10 -2 14 4 10 7 -5 9 0 6 13 -3 11 -6 20 -7
20 -1 0 -10 -17 -20 -37z"/>
<path d="M1461 1381 c-8 -6 -9 -11 -3 -15 6 -3 14 -1 17 5 9 14 2 20 -14 10z"/>
<path d="M1981 1344 c0 -11 3 -14 6 -6 3 7 2 16 -1 19 -3 4 -6 -2 -5 -13z"/>
<path d="M1425 1309 c-4 -6 -5 -12 -2 -15 2 -3 7 2 10 11 7 17 1 20 -8 4z"/>
<path d="M1691 1174 c0 -11 3 -14 6 -6 3 7 2 16 -1 19 -3 4 -6 -2 -5 -13z"/>
<path d="M2936 1103 c-10 -70 12 -145 60 -201 31 -37 34 -45 23 -60 -12 -15
-11 -15 7 1 l21 18 -27 29 c-43 46 -63 98 -69 185 l-7 80 -8 -52z"/>
<path d="M2821 1094 c-1 -40 41 -123 80 -160 l32 -29 -34 50 c-18 27 -43 77
-56 110 -18 51 -22 55 -22 29z"/>
<path d="M3197 1023 c-36 -43 -63 -80 -61 -82 7 -7 73 60 106 107 50 72 25 58
-45 -25z"/>
<path d="M3615 1055 c-18 -9 -23 -14 -13 -15 14 0 16 -4 8 -25 -5 -14 -7 -32
-4 -40 4 -8 -1 -27 -11 -41 -25 -38 -13 -38 13 0 13 19 26 56 31 85 4 28 8 51
7 50 -1 0 -14 -7 -31 -14z"/>
<path d="M3277 892 c-54 -168 -106 -270 -179 -347 -66 -72 -66 -86 2 -28 54
47 100 118 144 224 31 78 82 256 74 264 -1 2 -20 -49 -41 -113z"/>
<path d="M1700 995 c0 -4 14 -34 32 -68 39 -72 142 -184 276 -299 139 -119
153 -126 37 -18 -156 145 -242 239 -296 318 -27 41 -49 71 -49 67z"/>
<path d="M1929 961 c26 -51 106 -137 167 -181 39 -27 32 -18 -33 44 -46 43
-97 100 -115 127 -38 59 -46 63 -19 10z"/>
<path d="M2713 913 c-10 -52 -9 -73 3 -120 16 -63 61 -152 99 -198 21 -25 20
-20 -9 35 -52 99 -69 156 -75 255 l-6 90 -12 -62z"/>
<path d="M3224 933 c-15 -21 -55 -67 -89 -103 -54 -57 -56 -61 -17 -31 42 32
93 90 127 144 25 40 12 33 -21 -10z"/>
<path d="M1410 895 c0 -25 73 -136 142 -216 96 -111 444 -460 507 -509 25 -19
-41 51 -145 155 -250 251 -397 414 -456 504 -26 40 -48 70 -48 66z"/>
<path d="M2821 867 c-1 -16 -5 -26 -9 -23 -12 7 21 -144 47 -218 12 -33 48
-111 81 -173 33 -62 60 -120 60 -128 0 -19 -97 -91 -196 -145 -41 -23 -74 -43
-74 -46 0 -8 85 30 140 62 64 37 150 110 150 127 0 7 -25 64 -56 127 -80 163
-104 231 -124 345 -10 55 -18 87 -19 72z"/>
<path d="M3811 807 c-2 -37 -73 -173 -127 -245 -31 -40 -47 -69 -37 -63 30 15
99 95 121 138 27 52 55 149 49 171 -4 16 -5 16 -6 -1z"/>
<path d="M2321 735 c-42 -111 -50 -272 -20 -390 22 -85 71 -237 75 -232 3 2
-12 67 -31 143 -33 124 -36 153 -37 264 0 95 5 142 21 195 11 38 18 71 16 73
-2 2 -13 -22 -24 -53z"/>
<path d="M3579 594 c-78 -83 -362 -290 -500 -365 -115 -61 -79 -54 45 9 149
77 383 253 457 345 35 43 34 49 -2 11z"/>
<path d="M2491 479 c-2 -90 132 -473 164 -471 14 1 53 128 48 160 -3 23 -2 24
6 7 8 -17 9 -16 9 10 0 17 3 59 6 95 l6 65 -25 -79 c-14 -44 -30 -117 -37
-163 -8 -53 -15 -78 -20 -69 -26 46 -123 324 -138 396 -13 59 -19 74 -19 49z"/>
<path d="M1350 219 c58 -55 135 -114 213 -164 46 -30 30 -8 -20 27 -27 18 -95
70 -153 116 -99 79 -101 80 -40 21z"/>
<path d="M1170 40 c0 -5 5 -10 11 -10 5 0 7 5 4 10 -3 6 -8 10 -11 10 -2 0 -4
-4 -4 -10z"/>
</g>
</svg>