<?xml version="1.0" standalone="no"?>
<!DOCTYPE svg PUBLIC "-//W3C//DTD SVG 20010904//EN"
 "http://www.w3.org/TR/2001/REC-SVG-20010904/DTD/svg10.dtd">
<svg version="1.0" xmlns="http://www.w3.org/2000/svg"
 width="100%" height="100%" viewBox="0 0 512.000000 512.000000"
 preserveAspectRatio="xMidYMid meet">
<metadata>
Created by potrace 1.16, written by Peter Selinger 2001-2019
</metadata>
<g transform="translate(0.000000,512.000000) scale(0.100000,-0.100000)"
fill="#000000" stroke="none">
<path d="M3932 4785 c-18 -8 -75 -54 -125 -103 -51 -48 -122 -105 -159 -126
-60 -35 -139 -95 -261 -196 -27 -24 -35 -27 -31 -14 8 23 -1 14 -43 -41 -17
-22 -52 -55 -78 -74 -42 -30 -46 -31 -40 -12 10 34 0 25 -52 -40 -44 -57 -48
-59 -57 -39 -9 19 -12 15 -38 -40 -22 -48 -31 -60 -45 -56 -114 34 -554 42
-718 13 -55 -10 -106 -19 -114 -20 -8 -1 -19 14 -26 38 -11 33 -13 36 -15 15
-1 -22 -4 -20 -23 18 -11 23 -26 41 -32 39 -5 -2 -23 13 -38 35 -28 37 -47 49
-47 28 0 -5 -38 11 -85 35 -64 34 -97 45 -130 45 -63 0 -187 -42 -280 -96
-102 -58 -119 -65 -300 -114 -182 -50 -356 -112 -408 -146 -61 -40 -152 -193
-129 -216 19 -19 124 -12 170 11 23 12 45 21 50 21 5 0 39 -61 76 -135 73
-149 133 -225 179 -225 23 0 26 -5 32 -47 11 -78 39 -131 77 -147 243 -106
314 -162 334 -264 5 -25 -3 -43 -42 -104 -69 -103 -71 -108 -29 -60 20 24 39
41 41 39 2 -2 -3 -35 -10 -73 -8 -38 -20 -133 -26 -210 -15 -167 -5 -283 36
-420 47 -156 54 -187 54 -234 0 -71 -17 -115 -81 -212 -87 -133 -103 -190
-104 -373 -1 -147 -1 -151 -33 -215 -17 -36 -54 -123 -83 -195 -28 -71 -64
-159 -81 -195 -61 -133 -72 -201 -72 -452 -1 -176 2 -228 12 -228 6 0 12 12
13 28 l1 27 8 -25 c6 -19 8 -13 9 30 l2 55 22 -54 c23 -56 53 -84 43 -39 -17
73 -25 232 -17 318 5 52 8 96 6 98 -5 6 -26 -101 -32 -167 -5 -53 -8 -60 -15
-41 -10 28 6 179 27 261 28 103 14 109 -16 7 -9 -35 -18 -54 -18 -42 -2 38 39
172 74 245 34 71 35 72 35 37 0 -72 22 -139 100 -295 43 -87 85 -167 94 -178
l16 -20 -3 20 c-1 11 -7 27 -12 35 -5 9 0 8 13 -4 24 -21 29 -31 10 -20 -8 4
-10 3 -5 -2 5 -5 12 -9 16 -9 11 0 71 -71 71 -84 0 -7 -4 -9 -10 -6 -25 16 -6
-16 29 -48 48 -43 80 -62 82 -47 1 5 2 16 3 23 3 15 -24 48 -34 42 -4 -2 -7 2
-7 10 0 8 22 -1 59 -26 32 -22 58 -38 58 -36 0 3 -54 48 -119 101 -66 53 -143
125 -172 161 -28 35 -55 62 -59 60 -4 -3 -7 1 -6 8 0 6 -16 45 -37 85 -47 92
-67 167 -67 258 0 81 8 114 21 92 6 -10 9 -8 9 7 0 11 14 47 30 80 25 49 29
54 25 28 -3 -23 0 -35 13 -43 12 -8 14 -13 5 -16 -17 -7 -17 -24 0 -24 8 0 18
-17 24 -37 9 -33 10 -29 6 33 -4 47 -2 74 6 78 7 5 11 -4 11 -27 0 -33 38
-173 45 -165 1 1 -6 37 -16 78 -11 41 -19 98 -18 125 1 28 -5 75 -14 105 -28
101 -30 340 -4 417 19 54 81 157 117 193 14 14 23 40 28 83 l7 62 5 -45 c3
-25 10 -44 16 -43 12 2 30 -66 79 -302 18 -88 38 -173 44 -189 7 -16 9 -38 6
-50 -5 -17 -4 -18 4 -6 6 9 11 10 11 3 0 -6 3 -20 6 -30 5 -15 4 -15 -5 -3
-14 19 -14 0 -1 -35 5 -14 14 -23 20 -20 5 3 10 2 10 -4 0 -5 -6 -12 -12 -14
-8 -3 -5 -6 5 -6 10 -1 15 -5 12 -11 -3 -5 -1 -10 4 -10 6 0 11 -6 11 -13 0
-8 18 -42 40 -75 22 -34 36 -62 33 -62 -4 0 3 -7 15 -16 12 -8 20 -19 17 -24
-3 -4 7 -15 20 -24 14 -9 23 -21 20 -25 -3 -5 1 -11 8 -14 6 -2 34 -33 62 -68
27 -34 44 -59 37 -55 -7 4 -12 3 -12 -2 0 -5 8 -12 18 -14 9 -3 27 -25 40 -49
22 -41 15 -37 -16 8 -6 10 4 -15 23 -54 37 -77 39 -84 28 -81 -18 3 -43 -15
-43 -31 0 -10 -3 -21 -7 -25 -4 -4 -8 -13 -9 -19 0 -7 -2 -19 -2 -29 -2 -17
-37 -15 -48 3 -3 5 2 6 10 3 9 -3 16 -1 16 6 0 6 -4 8 -10 5 -6 -3 -10 1 -10
9 0 8 -8 14 -18 13 -18 -1 -18 -2 1 -34 10 -18 23 -31 27 -28 5 3 11 1 14 -4
7 -11 -13 -9 -32 3 -8 5 -18 4 -25 -3 -8 -8 -8 -11 2 -11 7 0 9 -5 5 -11 -9
-16 -24 10 -16 29 3 10 1 13 -6 8 -8 -5 -10 -1 -5 10 4 11 3 15 -4 11 -7 -4
-18 11 -29 39 -10 26 -49 99 -87 163 -155 261 -200 375 -231 586 -3 17 -3 -1
-1 -40 7 -129 38 -215 168 -474 120 -240 122 -246 125 -320 3 -66 0 -83 -22
-126 l-26 -50 24 28 c23 25 34 53 52 132 l6 30 10 -27 c5 -16 14 -28 19 -28 4
0 5 -7 2 -17 -4 -11 -3 -14 5 -9 8 5 10 2 6 -9 -4 -9 0 -23 8 -33 9 -9 16 -24
16 -32 1 -8 5 -31 10 -50 l8 -35 7 39 c4 24 2 45 -4 53 -6 7 -9 19 -6 27 3 8
1 17 -6 19 -7 2 -9 7 -6 11 4 4 14 0 23 -9 9 -9 16 -12 16 -5 0 25 20 -3 26
-37 5 -29 9 -32 16 -19 5 9 14 13 20 10 6 -4 8 -2 4 4 -3 6 -1 14 5 18 9 5 10
-7 7 -44 -3 -33 -1 -49 5 -45 6 4 7 1 2 -7 -11 -19 -6 -101 7 -117 6 -7 7 -13
2 -13 -5 0 -2 -5 6 -10 21 -14 67 -12 73 3 4 9 6 9 6 0 1 -7 14 -13 30 -13
l29 0 -31 62 c-26 53 -31 74 -31 133 0 39 9 103 19 144 l19 73 48 -53 c46 -53
47 -53 48 -26 0 16 4 26 10 22 6 -3 1 10 -11 29 -19 33 -39 40 -39 15 0 -6 5
-7 12 -3 7 4 8 3 4 -4 -4 -7 -2 -12 5 -12 7 0 10 -2 7 -5 -2 -3 -16 1 -31 8
-18 8 -37 37 -66 97 -43 93 -52 130 -44 174 5 25 9 20 39 -55 18 -45 32 -85
32 -88 -1 -3 7 -25 16 -48 18 -42 31 -53 38 -32 4 12 87 -99 116 -156 32 -64
54 -151 53 -215 0 -33 4 -60 8 -60 5 0 25 29 46 64 37 64 96 136 211 259 l64
67 0 -62 c0 -41 -8 -79 -20 -108 -20 -45 -20 -45 0 -22 11 13 22 40 25 60 17
109 27 144 64 222 24 49 38 72 35 53 -3 -17 4 -92 16 -167 15 -91 19 -141 12
-149 -5 -7 -13 -27 -17 -45 -8 -40 -46 -86 -96 -118 -46 -29 -53 -30 -45 -7 5
12 -2 9 -20 -9 -16 -15 -25 -30 -22 -33 8 -8 62 19 107 53 30 22 33 23 27 6
-5 -10 -11 -29 -13 -41 -4 -19 -1 -21 26 -19 17 1 31 5 31 10 -1 4 21 33 48
64 54 63 92 116 92 128 0 4 -14 -12 -31 -36 -27 -37 -33 -41 -41 -26 -19 33
-21 337 -3 442 11 61 13 100 7 106 -6 6 5 48 30 116 119 321 168 457 183 507
9 31 34 108 57 171 40 114 40 114 73 114 18 0 44 9 57 20 l25 19 16 -42 c31
-81 48 -163 59 -289 13 -144 2 -258 -31 -334 -23 -52 -19 -57 10 -12 12 19 18
25 16 13 -3 -11 -9 -36 -13 -55 -3 -19 -17 -60 -30 -90 -13 -30 -17 -46 -9
-36 30 40 70 174 85 286 0 3 5 -3 11 -12 20 -35 22 -141 4 -203 -16 -56 -64
-162 -89 -196 -6 -8 1 -2 16 14 14 16 40 54 57 86 25 44 30 50 26 26 l-5 -30
15 33 c8 17 19 62 23 100 l7 67 28 -67 c53 -132 59 -289 18 -450 -25 -95 -51
-147 -104 -206 l-42 -46 36 27 c71 53 118 147 145 285 8 41 14 97 15 125 l1
52 24 -54 c53 -115 77 -234 80 -396 2 -141 2 -145 -7 -60 -12 123 -17 127 -18
15 -1 -52 -5 -111 -11 -129 -12 -44 -6 -51 14 -14 l15 28 -6 -38 c-4 -29 -2
-37 10 -37 11 0 18 21 27 87 26 181 -7 403 -84 568 -23 50 -51 126 -62 170
-12 44 -35 114 -52 155 -75 183 -92 239 -92 298 0 79 -23 209 -55 305 -14 43
-25 85 -25 95 1 23 39 131 40 112 1 -10 4 -9 10 5 12 27 12 37 0 30 -6 -4 -7
1 -3 12 12 34 15 35 42 11 l26 -23 -27 30 c-24 27 -26 34 -18 68 4 21 10 41
13 43 6 6 76 -62 95 -91 7 -11 6 -6 -3 11 -8 18 -33 48 -55 66 -38 33 -55 78
-29 78 22 0 79 -41 115 -83 20 -23 31 -32 25 -21 -15 31 -100 103 -128 110
-14 4 -25 16 -29 33 -3 14 -12 48 -20 75 -11 40 -11 51 -2 58 10 6 9 8 -3 8
-20 0 -32 26 -22 45 13 22 78 69 122 89 23 11 39 21 37 23 -7 7 -89 -38 -132
-72 l-40 -33 -32 64 c-36 72 -35 78 23 174 18 30 43 84 56 120 20 58 22 80 20
200 -5 214 -5 240 4 330 l8 85 103 100 c86 84 108 112 139 177 31 65 36 86 34
137 -2 57 0 64 49 138 105 161 136 250 147 418 3 55 13 170 21 257 22 214 4
292 -73 324 -39 17 -40 17 -81 -1z m101 -41 c39 -39 51 -113 37 -227 -6 -50
-17 -171 -25 -267 -17 -218 -44 -301 -146 -451 -61 -90 -102 -129 -135 -129
l-29 1 35 18 c19 11 44 29 55 41 l19 21 -24 -5 c-14 -3 -47 -8 -75 -11 -27 -4
-62 -13 -77 -21 -31 -16 -38 -27 -11 -17 14 6 13 0 -6 -30 -17 -28 -19 -36 -7
-31 26 10 18 -14 -18 -53 -27 -30 -41 -38 -72 -38 -24 -1 -44 4 -52 14 -7 9
-6 2 4 -15 16 -29 19 -31 53 -23 22 5 50 23 72 47 20 21 43 39 50 40 8 0 23 3
34 7 14 4 30 -1 48 -15 23 -18 27 -29 27 -74 0 -71 -31 -102 -112 -112 l-57
-7 8 29 c4 16 12 29 17 30 5 0 16 3 24 7 8 3 22 8 30 10 11 4 11 6 -3 6 -10 1
-33 -5 -51 -13 -32 -13 -34 -13 -39 6 -4 15 -2 18 11 13 9 -3 13 -3 9 1 -4 4
-28 8 -52 9 -37 0 -44 -2 -39 -15 27 -61 43 -122 42 -160 0 -26 -3 -35 -5 -21
-7 38 -59 174 -88 230 -14 28 -26 58 -28 68 -5 34 -90 159 -154 228 -53 58
-39 34 30 -51 58 -72 147 -243 182 -349 14 -42 25 -80 25 -84 0 -13 -72 103
-83 134 l-12 34 -13 -26 c-7 -17 -8 -23 -1 -16 8 8 19 -3 40 -40 72 -128 91
-177 95 -240 3 -47 2 -57 -6 -42 -9 17 -10 14 -5 -12 6 -43 -8 -42 -33 1 -31
52 -64 70 -118 63 -37 -4 -44 -2 -40 10 3 8 1 11 -4 8 -6 -3 -10 -12 -10 -19
0 -8 -8 -20 -17 -27 -15 -12 -16 -12 -10 3 3 9 11 35 17 57 6 25 23 50 43 65
32 26 32 26 7 26 -14 0 -38 7 -54 15 -30 16 -50 20 -28 6 16 -9 24 -61 10 -61
-5 0 -6 -5 -2 -11 4 -6 -2 -45 -12 -85 -11 -45 -21 -69 -26 -61 -4 7 -8 -3 -8
-25 0 -33 -3 -38 -22 -38 l-23 -1 21 -12 c12 -7 19 -18 17 -25 -4 -10 -8 -10
-21 0 -14 10 -15 10 -4 -2 29 -34 4 -54 -30 -23 -10 9 -18 11 -18 5 0 -6 6
-15 13 -19 15 -10 47 -70 47 -89 0 -19 19 -18 26 1 5 13 9 13 22 3 13 -11 15
-10 9 5 -5 12 -3 16 5 11 6 -4 36 -6 67 -5 67 2 91 21 122 97 15 36 26 51 36
47 10 -4 12 -14 8 -32 -4 -14 -8 -42 -9 -62 -3 -41 -52 -152 -89 -201 -46 -62
-51 -92 -33 -213 20 -138 20 -140 -6 -82 -11 26 -24 47 -29 47 -5 0 -5 7 -2
17 5 12 3 14 -7 8 -10 -6 -12 -4 -7 9 6 16 -31 132 -39 123 -3 -2 5 -28 16
-57 11 -29 19 -54 17 -57 -2 -2 -32 39 -66 90 -34 52 -74 105 -89 118 -14 13
-21 17 -15 9 124 -168 190 -277 234 -381 l28 -70 -52 42 c-50 40 -50 40 10
-17 74 -71 86 -89 118 -184 39 -115 42 -186 10 -305 -45 -173 -92 -252 -128
-216 -6 6 -8 11 -3 11 4 0 0 13 -10 29 -12 21 -22 27 -38 23 -21 -4 -21 -4 -1
11 17 13 18 16 4 22 -16 6 -22 35 -7 35 4 0 8 -4 8 -10 0 -5 5 -10 10 -10 14
0 12 13 -6 36 -8 10 -13 13 -9 7 3 -7 1 -13 -5 -13 -22 0 -3 25 35 47 22 12
44 35 52 53 18 43 17 46 -9 24 -13 -12 -10 -3 10 21 76 97 93 228 38 299 -52
68 -53 69 -302 72 l-224 3 -35 -35 c-26 -25 -35 -43 -35 -67 0 -39 31 -151 54
-195 9 -18 14 -32 11 -32 -5 0 5 -12 53 -63 16 -18 16 -19 -7 -15 -14 2 -26
-3 -29 -11 -3 -8 0 -11 7 -7 6 4 11 3 11 -2 0 -6 -7 -12 -15 -16 -9 -3 -14
-16 -13 -31 2 -26 8 -30 23 -17 6 4 -8 -10 -30 -30 -23 -22 -32 -35 -21 -31
14 5 17 3 11 -7 -6 -10 -4 -12 11 -7 12 5 8 -2 -11 -18 -29 -24 -29 -24 -5
-19 18 4 16 1 -9 -10 -18 -9 -37 -13 -42 -10 -5 3 -9 1 -9 -4 0 -14 -81 -32
-142 -32 -34 0 -67 7 -90 19 -19 11 -39 17 -44 13 -4 -4 -4 -1 0 6 4 6 3 12
-2 12 -11 0 -103 78 -187 159 -38 38 -80 73 -93 80 -21 11 -22 11 -16 -16 11
-48 52 -128 78 -152 14 -13 42 -25 67 -28 33 -5 38 -8 24 -13 -23 -8 -67 3
-102 25 -14 9 -38 47 -55 83 -16 37 -35 77 -40 89 -6 12 -8 28 -5 36 9 24 68
63 129 86 l58 21 6 -28 c13 -59 22 -86 23 -71 1 9 16 21 34 27 l32 11 -36 -5
c-36 -6 -37 -5 -41 30 -5 41 -3 42 94 56 l63 9 -65 -3 c-36 -2 -73 -7 -82 -11
-11 -4 -18 -3 -18 4 0 6 8 12 18 12 16 1 16 2 0 6 -10 2 -18 9 -18 14 0 6 5 7
11 4 7 -5 8 5 4 29 -5 22 -3 42 4 50 7 8 8 22 3 36 -7 19 -11 8 -22 -53 -11
-67 -16 -77 -34 -78 -19 -2 -19 -2 2 -6 36 -7 21 -25 -36 -44 -29 -10 -65 -27
-81 -38 -38 -27 -43 -26 -39 7 3 23 11 30 63 49 33 12 54 22 48 22 -7 1 -35
-8 -63 -18 l-50 -19 -10 42 c-17 67 -41 126 -51 126 -5 0 -2 -15 7 -32 22 -42
45 -129 38 -140 -3 -5 -18 -6 -34 -3 -24 5 -29 2 -38 -25 -6 -17 -8 -38 -5
-48 4 -13 3 -14 -6 -6 -7 6 -18 50 -26 98 -8 48 -25 124 -39 169 -34 117 -37
129 -52 257 l-13 115 3 -113 c2 -62 6 -116 10 -119 3 -3 6 -15 6 -25 0 -10 9
-43 19 -73 l19 -55 -34 26 c-44 34 -43 26 5 -30 29 -33 40 -57 45 -93 4 -26
10 -56 13 -66 4 -16 2 -17 -16 -8 -12 7 -21 8 -21 4 0 -4 -7 3 -16 15 -16 23
-40 31 -29 10 4 -7 -1 -4 -9 6 -9 11 -16 16 -16 11 0 -5 -6 -1 -13 8 -6 10
-22 19 -34 21 -19 4 -73 34 -73 41 0 1 27 -8 61 -22 33 -13 68 -23 77 -21 9 2
-15 16 -54 31 -173 67 -288 187 -350 366 -12 36 -23 58 -23 49 -1 -25 33 -108
79 -191 28 -51 33 -63 15 -42 -39 47 -92 154 -110 225 -19 71 -17 218 2 242 6
7 14 34 18 61 4 26 11 47 15 47 9 0 46 85 54 125 6 27 5 26 -8 -6 -8 -20 -22
-51 -32 -70 l-17 -34 -13 30 c-20 46 -18 62 5 41 17 -16 19 -15 34 16 20 42
67 191 63 196 -3 2 -10 -12 -17 -32 -7 -19 -16 -33 -20 -31 -3 3 -9 -9 -13
-27 -11 -53 -13 -27 -6 58 5 50 16 96 29 122 12 23 18 42 14 42 -4 0 1 6 12
13 11 9 15 19 10 27 -5 9 -4 11 3 6 11 -7 17 6 13 27 -1 5 2 6 7 3 5 -3 16 12
25 33 9 20 33 56 53 79 23 28 29 40 17 35 -17 -6 -17 -5 1 15 11 12 16 25 13
28 -4 4 3 18 13 32 11 13 20 30 20 36 0 6 14 26 31 44 16 17 24 32 17 32 -7 0
3 14 22 31 l35 30 -30 -6 c-34 -8 -34 -7 20 30 l40 28 -42 -7 c-46 -7 -93 -25
-93 -36 0 -4 10 -12 23 -18 21 -10 21 -11 -8 -11 -20 -1 -26 -4 -17 -10 11 -7
11 -9 -2 -14 -8 -3 -18 -2 -21 4 -4 5 -10 7 -13 5 -4 -2 -8 23 -9 55 -1 49 2
62 18 72 10 6 19 19 20 27 0 10 3 8 9 -5 7 -17 11 -13 31 30 25 54 38 158 21
169 -6 4 -8 -2 -5 -14 3 -11 2 -37 -3 -57 l-7 -38 -8 53 c-7 55 -38 102 -67
102 -9 0 -6 -6 9 -18 l22 -19 -34 2 c-19 2 -38 -1 -44 -5 -11 -9 -76 -25 -87
-22 -5 1 -8 -4 -8 -10 0 -9 -3 -8 -9 2 -6 8 -7 18 -4 24 3 5 1 6 -5 3 -5 -4
-8 -15 -6 -25 4 -11 -5 -23 -25 -35 -57 -33 -107 -117 -156 -262 -53 -154
-125 -263 -224 -338 -102 -76 -163 -80 -211 -14 l-24 32 33 -28 c43 -36 71
-42 114 -23 48 20 130 97 177 166 73 109 63 108 -13 -1 -79 -113 -168 -177
-226 -162 -40 10 -114 154 -161 315 -28 91 -53 142 -82 162 -12 9 -20 17 -17
19 13 11 164 68 229 86 327 91 308 84 417 148 104 62 218 98 280 88 l48 -9
-53 -7 c-29 -4 -64 -14 -77 -23 -14 -9 -30 -14 -34 -11 -5 3 -31 -16 -58 -42
-27 -27 -33 -33 -13 -15 54 48 56 39 5 -23 -58 -71 -79 -115 -125 -250 -21
-60 -41 -119 -45 -130 -6 -16 -5 -17 4 -5 6 8 27 65 47 125 46 138 84 211 141
270 99 103 216 113 336 29 27 -20 47 -29 47 -21 1 22 49 -77 50 -102 0 -17
-20 -44 -62 -87 -35 -35 -64 -68 -66 -74 -3 -14 57 -13 99 2 42 14 95 53 104
76 3 9 -8 3 -25 -15 -41 -42 -68 -50 -85 -26 -12 16 -10 22 15 48 33 34 47 79
32 98 -6 7 -7 18 -3 26 6 10 12 3 20 -22 15 -43 49 -89 62 -82 19 13 212 45
302 51 80 6 100 4 121 -10 35 -22 101 -112 147 -199 21 -39 39 -68 39 -64 0
25 -90 176 -134 225 l-51 55 130 -7 c72 -4 175 -13 230 -21 55 -8 121 -17 147
-20 29 -4 63 -18 90 -37 l43 -31 -30 33 c-16 17 -48 41 -70 52 -48 25 -53 32
-47 65 l5 26 18 -24 c10 -13 17 -29 15 -34 -2 -7 9 -9 29 -7 37 4 105 -14 105
-29 0 -5 8 -10 18 -10 16 -1 16 -2 0 -6 -28 -7 -21 -23 12 -30 34 -6 50 -23
23 -23 -15 0 -15 -2 -3 -9 8 -6 17 -8 21 -5 4 2 10 0 14 -6 3 -6 -4 -10 -17
-10 -21 -1 -20 -2 8 -18 18 -10 29 -23 26 -31 -3 -10 4 -12 32 -9 50 6 41 -15
-10 -23 -36 -6 -37 -6 -9 -9 17 -2 38 -3 48 -2 26 2 21 -7 -10 -19 l-28 -11
40 -18 c22 -10 49 -22 60 -26 19 -7 19 -8 -3 -12 -20 -3 -21 -6 -11 -19 21
-25 20 -45 -2 -38 -28 9 -23 0 14 -24 30 -19 30 -21 8 -21 -18 0 -21 -3 -12
-13 6 -8 8 -16 5 -19 -2 -3 10 -18 28 -33 l32 -27 23 26 c12 14 20 33 17 41
-3 8 -1 29 5 48 7 19 13 43 15 53 10 46 28 75 58 94 30 19 31 20 7 15 -19 -5
-34 0 -57 20 l-31 26 -46 -42 c-50 -46 -56 -44 -23 10 42 68 81 110 113 121
35 11 79 51 162 146 50 56 151 193 173 234 17 32 10 37 -8 4 -23 -40 -134
-183 -163 -210 -13 -12 -60 -32 -104 -44 -44 -11 -94 -30 -112 -40 -29 -17
-31 -17 -26 -2 3 9 10 23 16 30 5 6 6 12 2 12 -11 0 34 34 70 53 17 9 24 16
17 17 -7 0 -22 -5 -33 -10 -13 -8 -19 -7 -19 0 0 17 60 48 145 76 80 26 115
43 62 30 -15 -3 -35 -2 -45 3 -12 6 -27 5 -47 -4 -17 -8 -41 -19 -55 -25 -14
-5 -36 -18 -50 -27 -21 -15 -20 -12 7 20 18 20 36 38 40 38 17 1 34 23 29 35
-3 8 0 13 6 11 7 -1 12 3 13 8 0 6 21 35 46 65 25 30 59 73 75 95 16 22 36 47
44 55 13 12 13 13 1 5 -16 -11 5 30 38 73 l16 22 0 -24 c0 -13 -4 -24 -9 -23
-5 1 -11 -5 -13 -13 -3 -9 -1 -11 4 -5 8 10 23 15 58 19 12 1 27 6 34 10 11 7
12 -18 7 -135 -8 -196 -8 -203 4 -207 5 -2 11 -13 11 -25 1 -12 10 46 19 128
32 258 25 325 -32 325 -44 0 -56 -9 -163 -131 -64 -71 -128 -132 -178 -166
-44 -31 -74 -59 -71 -65 5 -7 2 -8 -5 -3 -8 5 -31 -10 -64 -41 -39 -38 -45
-42 -28 -17 12 17 56 64 99 104 60 56 67 65 32 41 -60 -40 -130 -115 -173
-182 -36 -58 -87 -186 -87 -223 -1 -36 -70 50 -70 88 l-1 30 -18 -22 c-11 -13
-27 -23 -36 -23 -15 0 -17 7 -12 45 4 25 13 58 21 73 20 39 319 297 381 329
l30 16 -25 -29 c-14 -16 -58 -64 -98 -107 -85 -92 -124 -148 -152 -213 -32
-73 -19 -60 24 24 35 69 64 102 272 310 128 127 243 236 256 241 41 17 74 12
101 -15z m-463 -478 c0 -2 -8 -10 -17 -17 -16 -13 -17 -12 -4 4 13 16 21 21
21 13z m-84 -77 c-42 -47 -60 -79 -37 -64 6 3 -1 -14 -15 -38 -14 -26 -27 -69
-30 -105 -8 -74 -24 -82 -24 -12 0 74 35 156 93 217 64 68 73 69 13 2z m-261
-11 c-2 -7 -9 -32 -15 -55 -10 -38 -14 -43 -40 -43 -27 0 -30 3 -29 33 0 17 3
27 5 20 3 -6 20 2 42 23 42 38 43 39 37 22z m-1318 -180 c-3 -8 -6 -5 -6 6 -1
11 2 17 5 13 3 -3 4 -12 1 -19z m-1013 -99 c26 -30 30 -41 27 -67 -3 -22 20
-82 31 -82 6 0 9 -3 6 -6 -4 -3 0 -17 7 -31 10 -20 11 -28 2 -38 -15 -17 -21
-7 -63 110 -26 73 -36 91 -54 93 -35 6 -78 -17 -115 -61 -45 -52 -45 -36 -1
29 33 48 82 83 118 84 9 0 28 -14 42 -31z m938 -226 c16 4 17 3 7 -9 -18 -21
-38 -17 -70 15 -42 42 -36 59 7 21 24 -20 43 -30 56 -27z m2013 -71 c-4 -20
-10 -31 -12 -24 -3 6 -11 12 -19 12 -8 0 -14 9 -14 20 0 11 4 20 9 20 5 0 12
10 15 23 6 21 7 21 17 4 7 -11 8 -34 4 -55z m-2143 -46 c6 4 8 2 4 -4 -3 -6 4
-18 16 -26 l22 -16 -26 0 c-20 0 -28 7 -37 31 -14 39 -14 50 0 26 6 -9 15 -14
21 -11z m-248 -121 c15 -27 36 -65 48 -83 l21 -34 -49 26 c-86 44 -137 83
-120 89 9 4 26 27 38 52 20 42 23 44 29 23 3 -13 18 -45 33 -73z m201 75 c3
-5 24 -10 46 -10 50 0 48 -14 -10 -104 -44 -67 -86 -106 -115 -106 -27 0 -18
15 22 38 l37 21 -40 -6 c-46 -7 -41 3 13 27 l37 18 -30 12 c-25 11 -27 14 -11
18 15 3 16 6 5 13 -9 7 -1 8 26 4 29 -4 35 -3 20 4 -19 9 -18 10 5 11 23 1 23
2 5 10 -18 8 -18 9 5 10 23 1 24 2 5 10 -25 9 -52 40 -37 40 6 0 14 -4 17 -10z
m1940 -30 c7 -12 -2 -12 -30 0 -19 8 -19 9 2 9 12 1 25 -3 28 -9z m-2121 -47
c9 -18 14 -33 12 -33 -6 0 -36 55 -36 66 0 11 5 3 24 -33z m2226 -48 c-21 -25
-79 -57 -97 -53 -13 2 -7 10 22 28 67 41 97 51 75 25z m-2267 -30 c69 -38 103
-68 93 -84 -10 -16 12 -23 36 -10 13 7 41 26 62 43 l39 30 -7 -34 c-3 -19 -9
-51 -12 -70 -7 -40 -17 -56 -58 -88 -22 -17 -41 -22 -85 -21 -53 1 -54 2 -18
9 41 8 81 41 110 90 l18 30 -38 -22 c-51 -31 -213 -39 -277 -14 -47 18 -96 59
-59 50 11 -3 35 -1 54 5 l34 11 -39 -3 -39 -3 39 34 c34 29 36 33 14 27 -33
-9 -70 -33 -70 -45 0 -6 -5 -10 -11 -10 -6 0 -9 12 -7 26 2 22 11 29 44 39 23
7 52 20 65 29 32 22 39 21 112 -19z m184 29 c-3 -3 -12 -4 -19 -1 -8 3 -5 6 6
6 11 1 17 -2 13 -5z m-168 -208 c39 -11 41 -14 21 -19 -14 -4 -37 2 -59 13
-42 22 -25 25 38 6z m2042 -7 l24 -20 -30 17 c-39 24 -40 24 -28 24 6 0 21 -9
34 -21z m-83 -52 c3 -12 -3 -17 -22 -17 -25 0 -35 18 -19 34 12 12 38 2 41
-17z m-1836 -18 c-19 -17 -27 -19 -50 -10 l-27 11 28 -4 c15 -2 27 0 27 5 0 4
8 10 18 12 9 3 19 5 21 6 3 0 -5 -8 -17 -20z m1893 -42 c-11 -41 -50 -77 -82
-76 -27 1 -27 1 5 9 42 10 61 35 62 80 0 24 3 31 11 23 5 -5 7 -22 4 -36z
m-124 -54 c13 -16 12 -17 -3 -4 -17 13 -22 21 -14 21 2 0 10 -8 17 -17z m99
-33 c-24 -15 -36 -11 -14 4 10 8 21 12 24 10 2 -3 -2 -9 -10 -14z m-97 -7 c-7
-2 -19 -2 -25 0 -7 3 -2 5 12 5 14 0 19 -2 13 -5z m217 -159 c0 -103 -23 -191
-66 -259 l-25 -40 6 35 c4 19 15 64 26 99 25 85 23 112 -4 36 -18 -52 -22 -57
-27 -35 -5 19 -8 13 -13 -30 -4 -30 -7 -75 -7 -99 0 -64 -7 -48 -25 57 -15 85
-15 94 1 124 9 18 24 39 33 46 13 11 13 12 1 7 -8 -4 -1 6 15 20 17 15 23 24
15 20 -12 -5 -11 -4 1 7 9 7 16 16 15 20 -1 3 8 29 19 57 25 66 35 49 35 -65z
m-1997 -399 c-5 -58 -9 -73 -14 -55 -7 24 -7 24 -8 3 -2 -34 48 -175 141 -403
61 -148 104 -237 157 -320 108 -171 223 -417 236 -503 2 -17 7 -43 11 -56 5
-16 4 -22 -3 -18 -10 6 -25 -14 -27 -36 -1 -4 -6 -11 -13 -15 -8 -5 -9 -13 -3
-22 12 -19 13 -33 1 -26 -5 4 -7 -4 -3 -16 4 -16 2 -19 -9 -14 -8 4 -5 0 6 -9
11 -9 19 -23 17 -32 -2 -9 1 -12 8 -8 6 3 9 3 8 -2 -1 -4 4 -18 11 -31 11 -21
10 -24 -9 -29 -20 -5 -20 -7 -4 -24 9 -11 14 -19 11 -19 -3 0 -27 28 -53 62
-27 34 -41 58 -33 54 7 -4 4 1 -9 10 -54 40 -161 234 -210 379 -11 33 -32 119
-47 190 -14 72 -37 173 -50 225 -13 52 -29 127 -36 165 -6 39 -29 125 -50 192
-21 67 -44 153 -50 190 -10 64 -5 225 9 283 l5 25 9 -30 c5 -16 5 -66 1 -110z
m118 -218 c17 -34 43 -77 57 -96 14 -19 19 -31 11 -27 -8 4 -3 -2 11 -13 14
-11 21 -21 15 -21 -5 0 1 -7 13 -16 19 -13 21 -18 10 -32 -7 -10 -8 -14 -4
-10 11 9 68 -31 61 -42 -3 -5 6 -17 20 -26 13 -9 23 -20 20 -24 -3 -5 3 -13
12 -19 10 -6 13 -11 8 -11 -6 0 -16 5 -23 12 -18 18 -14 3 9 -37 12 -19 30
-40 40 -45 15 -9 17 -15 9 -36 -8 -19 -7 -23 3 -18 9 6 9 5 0 -7 -9 -11 -4
-35 27 -113 21 -54 38 -105 37 -114 -1 -18 48 -108 64 -118 5 -3 7 -10 4 -15
-3 -5 1 -6 9 -3 10 4 16 1 16 -8 0 -19 -29 -58 -42 -58 -6 0 -9 3 -5 6 3 4 -1
13 -9 21 -8 9 -13 22 -10 30 3 8 2 11 -3 8 -12 -7 -24 31 -15 46 5 8 3 9 -6 4
-10 -6 -12 -4 -7 8 3 9 2 16 -2 14 -5 -1 -38 45 -73 103 -35 58 -88 142 -117
186 -60 93 -177 403 -157 416 7 5 7 8 -2 8 -7 0 -11 4 -8 8 3 5 -6 41 -19 81
-14 40 -27 99 -30 130 l-6 56 26 -83 c14 -45 39 -111 56 -145z m59 63 c14 -14
19 -21 10 -16 -26 17 92 -104 153 -155 33 -28 64 -46 70 -43 7 4 9 4 5 -1 -9
-10 49 -55 71 -55 10 0 12 -3 5 -8 -8 -5 -5 -20 9 -52 11 -25 21 -49 21 -55 1
-5 12 -10 24 -10 28 0 49 -26 58 -71 3 -19 14 -36 27 -41 14 -7 17 -12 9 -17
-7 -4 -12 -2 -12 3 0 6 -10 11 -22 11 -33 0 -8 -20 31 -25 33 -4 56 -15 32
-15 -8 0 -7 -5 4 -16 9 -9 13 -24 10 -33 -15 -37 -55 -204 -51 -209 12 -12 64
22 79 51 l16 32 -6 -35 c-6 -36 -20 -67 -50 -109 -17 -23 -17 -24 7 -16 31 9
84 59 112 104 l21 33 14 -26 c7 -14 20 -26 28 -26 8 0 15 -9 15 -20 0 -11 7
-20 16 -20 8 0 12 5 9 10 -3 6 -1 10 5 10 7 0 9 -9 5 -22 -15 -52 -28 -77 -38
-71 -6 3 -7 1 -3 -6 4 -6 -14 -38 -43 -75 -28 -35 -59 -82 -69 -105 -10 -22
-22 -38 -26 -33 -4 4 -4 -11 0 -33 6 -36 6 -38 -9 -24 -8 9 -17 29 -20 45 -2
16 -5 -8 -6 -54 -1 -86 12 -134 46 -169 10 -11 19 -24 20 -29 1 -5 11 -29 22
-54 l21 -45 0 40 c0 26 -3 35 -9 26 -12 -18 -3 114 15 224 8 49 20 94 26 100
8 7 9 4 3 -10 -4 -11 -11 -78 -16 -149 -10 -142 -2 -222 32 -311 31 -82 42
-76 13 7 -46 135 -42 317 9 401 l22 36 1 -77 c1 -48 7 -91 18 -115 22 -50 29
-47 10 6 -16 45 -24 207 -10 207 4 0 5 7 2 16 -3 8 -2 13 3 10 8 -5 12 -1 21
26 1 3 26 32 56 65 30 32 54 61 54 66 0 4 4 7 9 7 4 0 2 -23 -5 -52 -8 -29
-14 -84 -14 -122 0 -60 6 -82 48 -177 26 -59 48 -104 50 -100 1 4 -18 53 -43
108 -45 101 -54 133 -34 133 5 0 7 -4 4 -10 -3 -5 -1 -10 5 -10 6 0 9 -4 5 -9
-3 -6 3 -14 12 -20 10 -6 14 -11 9 -11 -4 0 6 -16 23 -35 17 -20 31 -43 31
-51 0 -9 5 -12 11 -8 7 4 9 0 5 -14 -4 -11 -2 -23 3 -27 6 -3 11 -16 11 -28 1
-48 12 -127 18 -127 11 0 3 177 -15 312 -13 106 -14 140 -4 200 9 58 47 199
57 216 1 2 21 -2 43 -9 32 -9 40 -16 36 -28 -4 -9 -13 -42 -21 -74 -14 -51
-13 -66 0 -140 9 -46 16 -106 17 -133 0 -27 4 -67 8 -89 8 -36 9 -34 10 30 0
39 -6 101 -14 140 -20 94 -19 164 3 196 l17 27 2 -72 c1 -39 11 -100 22 -136
11 -36 21 -75 21 -87 0 -12 3 -29 7 -39 6 -16 7 -16 13 1 5 15 11 8 24 -30 24
-68 31 -242 13 -315 l-14 -55 3 100 c3 99 3 99 -5 25 -18 -161 -45 -244 -116
-356 -44 -69 -116 -156 -123 -149 -3 2 1 13 8 22 23 32 -69 -71 -111 -124 -22
-29 -50 -69 -61 -90 l-20 -38 6 70 c15 165 18 220 11 213 -4 -4 -7 -30 -7 -58
1 -83 -10 -49 -15 47 -5 90 -23 143 -23 66 0 -23 -5 -43 -12 -45 -9 -3 -8 -18
5 -57 20 -64 22 -89 2 -44 -8 18 -51 89 -95 158 -90 139 -100 159 -142 293
-16 50 -31 92 -34 92 -3 0 -3 -9 0 -20 17 -59 13 -59 -20 5 -21 39 -38 84 -39
100 -2 40 -22 175 -45 305 -10 58 -22 130 -25 160 -12 98 -43 235 -69 302 -13
37 -22 69 -19 72 4 3 2 6 -3 6 -5 0 -21 21 -34 48 -14 26 -29 50 -35 54 -7 5
-7 8 0 8 6 0 3 5 -5 10 -8 5 -15 14 -15 19 0 5 -12 19 -27 31 -15 11 -27 24
-26 28 1 4 -15 25 -35 47 -58 62 -137 181 -168 254 -37 85 -37 104 -1 66 15
-17 38 -41 52 -55z m-173 48 c-3 -8 -6 -5 -6 6 -1 11 2 17 5 13 3 -3 4 -12 1
-19z m193 -13 c13 -14 21 -25 18 -25 -2 0 -15 11 -28 25 -13 14 -21 25 -18 25
2 0 15 -11 28 -25z m61 -52 c13 -16 12 -17 -3 -4 -10 7 -18 15 -18 17 0 8 8 3
21 -13z m1492 10 c-34 -2 -93 -2 -130 0 -37 2 -9 3 62 3 72 0 102 -1 68 -3z
m108 -52 c10 -13 19 -26 19 -30 0 -7 -288 -4 -301 4 -13 9 -11 42 4 49 6 3 68
4 135 3 117 -2 125 -3 143 -26z m-463 -96 c4 -6 -1 -2 -10 8 -10 11 -18 27
-17 36 0 10 4 7 10 -8 5 -14 13 -30 17 -36z m-703 -112 c-6 -24 -7 -25 -20 -7
-20 26 -18 51 3 63 13 8 18 6 20 -11 2 -11 1 -31 -3 -45z m850 20 c-13 -9 -32
-13 -54 -9 -52 8 -56 22 -5 17 25 -2 51 2 57 8 6 6 13 8 16 5 3 -3 -3 -12 -14
-21z m355 7 c-12 -22 -27 -25 -50 -10 -12 8 -9 10 12 10 15 0 30 5 33 10 12
19 16 10 5 -10z m-86 -69 c-5 -5 -44 30 -44 40 0 4 11 -2 24 -14 14 -12 23
-24 20 -26z m-1172 -49 c-7 -2 -9 -9 -6 -14 4 -7 2 -8 -4 -4 -6 4 -9 13 -6 21
4 8 11 12 17 8 8 -5 7 -8 -1 -11z m798 -126 c0 -2 -7 -7 -16 -10 -8 -3 -12 -2
-9 4 6 10 25 14 25 6z m-353 -148 c64 -19 63 -37 0 -26 -70 13 -92 29 -123 91
l-26 52 53 -52 c34 -32 70 -57 96 -65z m-390 70 c-3 -8 -6 -5 -6 6 -1 11 2 17
5 13 3 -3 4 -12 1 -19z m30 -30 c-3 -7 -5 -2 -5 12 0 14 2 19 5 13 2 -7 2 -19
0 -25z m201 -28 c13 -6 26 -9 29 -6 3 3 19 -6 35 -19 23 -19 41 -25 79 -25 31
0 48 -4 44 -10 -3 -5 -27 -10 -52 -10 -50 0 -141 48 -185 98 l-23 27 25 -21
c14 -12 36 -27 48 -34z m-115 33 c-7 -2 -19 -2 -25 0 -7 3 -2 5 12 5 14 0 19
-2 13 -5z m877 -18 c0 -20 -49 -55 -78 -55 -25 0 -25 0 -6 22 16 19 14 18 -16
-4 -63 -46 -140 -58 -244 -40 l-40 7 45 19 c24 11 52 26 61 34 14 12 19 11 35
-7 l17 -21 23 27 c14 16 23 21 23 12 0 -11 2 -11 10 1 8 13 10 12 10 -2 0 -17
1 -17 20 -1 23 20 53 27 43 10 -4 -7 1 -6 10 2 14 11 17 11 17 0 0 -10 3 -10
8 -3 4 6 15 10 25 8 9 -1 17 2 17 7 0 6 5 7 10 4 6 -3 10 -12 10 -20z m-392
-99 c51 -21 59 -36 20 -36 -20 0 -138 56 -138 66 0 9 61 -7 118 -30z m470 27
c-24 -49 -58 -128 -95 -223 -24 -63 -41 -104 -38 -90 32 147 55 275 53 289 -2
9 -21 -53 -42 -137 -21 -85 -64 -227 -96 -317 -32 -89 -62 -180 -66 -201 -7
-36 -8 -37 -15 -14 -4 14 -7 43 -8 65 -2 65 -33 195 -45 188 -6 -4 -5 0 2 9 9
12 10 22 4 35 -5 10 -8 64 -6 119 3 82 8 113 28 158 19 43 30 56 46 56 12 0
30 4 40 10 17 9 17 7 4 -43 -7 -28 -16 -81 -19 -117 l-5 -65 15 75 c25 132 35
150 90 171 26 10 53 23 59 29 11 11 100 14 94 3z m-1258 -63 c0 -5 -5 -10 -11
-10 -5 0 -7 5 -4 10 3 6 8 10 11 10 2 0 4 -4 4 -10z m427 -22 c-3 -7 -5 -2 -5
12 0 14 2 19 5 13 2 -7 2 -19 0 -25z m117 17 c-4 -8 -8 -15 -10 -15 -2 0 -4 7
-4 15 0 8 4 15 10 15 5 0 7 -7 4 -15z m-539 -34 c-3 -5 -1 -12 5 -16 12 -7 14
-25 3 -25 -5 0 -13 11 -20 25 -9 21 -9 25 4 25 8 0 12 -4 8 -9z m405 -12 c0
-11 -4 -18 -10 -14 -5 3 -7 12 -3 20 7 21 13 19 13 -6z m-380 -59 c0 -5 -5
-10 -11 -10 -5 0 -7 5 -4 10 3 6 8 10 11 10 2 0 4 -4 4 -10z m587 -67 c-3 -10
-5 -4 -5 12 0 17 2 24 5 18 2 -7 2 -21 0 -30z m-226 -6 c-10 -9 -11 -8 -5 6 3
10 9 15 12 12 3 -3 0 -11 -7 -18z m-344 -49 c-3 -8 -6 -5 -6 6 -1 11 2 17 5
13 3 -3 4 -12 1 -19z m366 -17 c-10 -16 -26 -34 -36 -41 -12 -7 -6 5 14 29 38
48 44 52 22 12z m-398 9 c-3 -5 -1 -10 5 -10 20 0 42 -30 36 -47 -4 -9 -3 -19
2 -22 4 -3 16 -55 25 -116 9 -60 19 -121 22 -135 l6 -25 -11 25 c-13 29 -62
226 -64 253 0 9 -3 17 -7 17 -4 0 -9 8 -12 18 -2 9 -8 25 -12 35 -4 10 -3 17
5 17 6 0 8 -4 5 -10z m632 -52 c-3 -7 -5 -2 -5 12 0 14 2 19 5 13 2 -7 2 -19
0 -25z m-100 -30 c-3 -7 -5 -2 -5 12 0 14 2 19 5 13 2 -7 2 -19 0 -25z m-199
-8 c-7 -10 -14 -17 -17 -15 -4 4 18 35 25 35 2 0 -1 -9 -8 -20z m268 -56 c-4
-9 -9 -15 -11 -12 -3 3 -3 13 1 22 4 9 9 15 11 12 3 -3 3 -13 -1 -22z m433
-103 c-6 -18 -13 -30 -15 -28 -2 2 1 18 7 36 6 18 13 30 15 28 2 -2 -1 -18 -7
-36z m-829 -67 c5 -23 12 -50 15 -60 4 -11 -3 -1 -14 20 -25 47 -36 100 -25
118 7 9 10 6 12 -12 1 -14 7 -44 12 -66z m47 -16 c1 -76 -1 -85 -7 -48 -11 59
-12 153 -2 146 4 -2 8 -47 9 -98z m-237 72 c0 -5 -5 -10 -11 -10 -5 0 -7 5 -4
10 3 6 8 10 11 10 2 0 4 -4 4 -10z m11 -277 c13 -16 12 -17 -3 -4 -17 13 -22
21 -14 21 2 0 10 -8 17 -17z m49 -55 c0 -6 -6 -5 -15 2 -8 7 -15 14 -15 16 0
2 7 1 15 -2 8 -4 15 -11 15 -16z m27 -230 c-3 -8 -6 -5 -6 6 -1 11 2 17 5 13
3 -3 4 -12 1 -19z m74 -118 c-16 -47 -30 -75 -30 -62 -1 15 -5 21 -13 16 -13
-8 -13 -10 29 100 22 55 29 65 35 50 6 -13 -1 -47 -21 -104z m-780 3 c13 -16
12 -17 -3 -4 -10 7 -18 15 -18 17 0 8 8 3 21 -13z m629 -18 c0 -5 -5 -3 -10 5
-8 12 -10 12 -10 1 0 -8 -2 -12 -5 -9 -3 3 -2 13 1 22 5 14 9 15 15 4 5 -7 9
-17 9 -23z m-519 -92 c13 -16 12 -17 -3 -4 -17 13 -22 21 -14 21 2 0 10 -8 17
-17z m636 -35 c-3 -7 -5 -2 -5 12 0 14 2 19 5 13 2 -7 2 -19 0 -25z m-581 -24
c2 -14 0 -14 -17 1 -10 10 -16 22 -13 27 8 12 27 -6 30 -28z m-429 -6 c-3 -7
-5 -2 -5 12 0 14 2 19 5 13 2 -7 2 -19 0 -25z m1010 -20 c-3 -7 -5 -2 -5 12 0
14 2 19 5 13 2 -7 2 -19 0 -25z m783 -61 c0 -2 -10 -12 -22 -23 l-23 -19 19
23 c18 21 26 27 26 19z"/>
<path d="M3754 4553 c-15 -20 -23 -33 -16 -29 13 8 56 66 49 66 -3 0 -17 -17
-33 -37z"/>
<path d="M3899 4483 c-13 -16 -12 -17 4 -4 16 13 21 21 13 21 -2 0 -10 -8 -17
-17z"/>
<path d="M3679 4443 c-13 -16 -12 -17 4 -4 16 13 21 21 13 21 -2 0 -10 -8 -17
-17z"/>
<path d="M3855 4440 c-11 -5 -16 -9 -11 -9 5 -1 1 -11 -10 -23 -10 -13 -4 -10
14 6 17 17 32 31 32 33 0 4 0 4 -25 -7z"/>
<path d="M3825 4118 l-50 -53 53 50 c48 46 57 55 49 55 -1 0 -25 -24 -52 -52z"/>
<path d="M4001 4144 c0 -11 3 -14 6 -6 3 7 2 16 -1 19 -3 4 -6 -2 -5 -13z"/>
<path d="M1340 4033 c-63 -67 -106 -144 -130 -232 -16 -62 -5 -62 15 1 29 87
72 164 130 233 31 36 54 65 51 65 -2 0 -32 -30 -66 -67z"/>
<path d="M1624 4078 l-19 -23 23 19 c21 18 27 26 19 26 -2 0 -12 -10 -23 -22z"/>
<path d="M3991 4084 c0 -11 3 -14 6 -6 3 7 2 16 -1 19 -3 4 -6 -2 -5 -13z"/>
<path d="M3341 4074 c0 -11 3 -14 6 -6 3 7 2 16 -1 19 -3 4 -6 -2 -5 -13z"/>
<path d="M2385 3945 c7 -31 16 -59 20 -63 4 -4 5 2 2 13 -3 11 -9 37 -13 58
-3 20 -10 39 -14 42 -5 3 -2 -20 5 -50z"/>
<path d="M1154 3964 c-18 -14 -18 -15 4 -4 12 6 22 13 22 15 0 8 -5 6 -26 -11z"/>
<path d="M2990 3967 c0 -3 19 -20 43 -38 23 -19 36 -26 28 -16 -16 20 -71 61
-71 54z"/>
<path d="M925 3924 c23 -23 39 -60 64 -140 40 -132 79 -234 96 -253 8 -7 -2
25 -21 72 -19 48 -45 126 -59 174 -29 100 -50 139 -85 162 -22 14 -21 12 5
-15z"/>
<path d="M1099 3923 l-24 -28 28 24 c25 23 32 31 24 31 -2 0 -14 -12 -28 -27z"/>
<path d="M2885 3919 c38 -29 83 -74 119 -119 15 -19 23 -26 17 -14 -17 35 -97
118 -132 137 l-34 18 30 -22z"/>
<path d="M2550 3905 c13 -14 26 -25 28 -25 3 0 -5 11 -18 25 -13 14 -26 25
-28 25 -3 0 5 -11 18 -25z"/>
<path d="M1860 3902 c0 -5 7 -9 15 -9 8 0 15 4 15 9 0 4 -7 8 -15 8 -8 0 -15
-4 -15 -8z"/>
<path d="M3868 3846 c-26 -29 -66 -63 -90 -75 -24 -11 -37 -21 -30 -21 40 0
117 60 157 123 26 40 15 33 -37 -27z"/>
<path d="M2521 3840 c-1 -48 9 -68 67 -133 38 -44 92 -126 92 -141 0 -6 -21
10 -47 34 -41 40 -40 38 11 -20 32 -36 71 -90 86 -120 47 -90 34 -43 -18 65
-28 58 -76 134 -113 179 -54 68 -65 88 -70 130 l-6 51 -2 -45z"/>
<path d="M2665 3820 c10 -11 20 -20 23 -20 3 0 -3 9 -13 20 -10 11 -20 20 -23
20 -3 0 3 -9 13 -20z"/>
<path d="M2065 3800 c-10 -11 -14 -20 -9 -20 5 0 0 -7 -10 -15 -11 -8 -15 -15
-9 -15 5 0 18 9 28 20 10 11 14 20 9 20 -5 0 -2 4 6 10 8 5 12 11 9 15 -3 3
-14 -4 -24 -15z"/>
<path d="M2734 3729 c52 -75 82 -140 101 -219 7 -30 14 -45 14 -34 3 64 -77
236 -135 294 -15 14 -6 -4 20 -41z"/>
<path d="M2020 3705 c-24 -25 -40 -45 -36 -45 5 0 2 -8 -5 -17 -10 -11 -10
-14 -1 -9 17 10 15 -4 -5 -29 -10 -12 -1 -4 19 18 21 22 35 43 32 48 -3 5 1 9
8 9 9 0 9 3 -2 10 -14 9 -7 14 13 11 5 -1 6 3 2 9 -3 5 -2 10 3 10 6 0 12 7
16 15 8 22 5 20 -44 -30z m-4 -30 c-1 -8 -7 -20 -13 -26 -13 -13 -13 7 0 29
11 16 16 15 13 -3z"/>
<path d="M3410 3736 c0 -2 8 -10 18 -17 15 -13 16 -12 3 4 -13 16 -21 21 -21
13z"/>
<path d="M2790 3715 c0 -5 5 -17 10 -25 5 -8 10 -10 10 -5 0 6 -5 17 -10 25
-5 8 -10 11 -10 5z"/>
<path d="M1984 3588 c-41 -44 -92 -116 -71 -99 26 21 20 3 -14 -40 -17 -22
-32 -45 -33 -53 -1 -8 -8 -22 -15 -32 -7 -11 5 1 28 24 22 24 40 47 40 50 -3
21 2 32 13 26 6 -4 8 -3 4 4 -3 6 -2 13 4 17 5 3 15 16 22 28 10 20 10 21 -5
8 -10 -7 -17 -10 -17 -6 0 12 37 55 44 50 3 -3 4 -2 1 2 -3 3 5 17 17 30 12
13 19 23 17 23 -3 0 -19 -15 -35 -32z m-74 -152 c0 -2 -8 -10 -17 -17 -16 -13
-17 -12 -4 4 13 16 21 21 21 13z"/>
<path d="M2485 3559 c93 -51 186 -134 218 -194 14 -27 23 -68 27 -125 l7 -85
1 78 c2 96 -20 149 -93 221 -49 49 -138 108 -180 121 -11 3 -2 -4 20 -16z"/>
<path d="M3108 3555 c-25 -17 -47 -47 -70 -92 -28 -57 -34 -81 -37 -151 -3
-88 10 -179 36 -244 8 -21 19 -36 23 -33 13 8 40 -6 40 -20 0 -8 6 -20 14 -28
8 -7 32 -49 55 -93 64 -126 47 -68 -23 78 -82 170 -97 216 -104 306 -3 50 -8
69 -14 60 -6 -8 -8 6 -4 41 6 63 41 128 93 170 45 37 41 40 -9 6z m-81 -327
c-3 -8 -6 -5 -6 6 -1 11 2 17 5 13 3 -3 4 -12 1 -19z"/>
<path d="M2861 3544 c0 -11 3 -14 6 -6 3 7 2 16 -1 19 -3 4 -6 -2 -5 -13z"/>
<path d="M2338 3533 c7 -3 16 -2 19 1 4 3 -2 6 -13 5 -11 0 -14 -3 -6 -6z"/>
<path d="M2448 3533 c6 -2 18 -2 25 0 6 3 1 5 -13 5 -14 0 -19 -2 -12 -5z"/>
<path d="M2875 3485 c3 -22 10 -89 15 -150 12 -132 45 -339 66 -415 15 -55
154 -353 161 -346 3 2 -25 62 -60 132 -36 71 -74 160 -86 197 -22 71 -52 262
-71 454 -6 62 -16 125 -21 140 -7 24 -8 22 -4 -12z"/>
<path d="M3250 3506 c0 -2 7 -7 16 -10 8 -3 12 -2 9 4 -6 10 -25 14 -25 6z"/>
<path d="M3154 3478 l-19 -23 23 19 c12 11 22 21 22 23 0 8 -8 2 -26 -19z"/>
<path d="M3314 3462 c17 -18 26 -32 20 -32 -5 0 16 -11 47 -24 31 -12 71 -33
90 -45 33 -22 33 -22 9 -1 -14 12 -46 33 -72 46 -26 13 -64 38 -85 56 l-38 32
29 -32z"/>
<path d="M3384 3454 c-18 -14 -18 -15 4 -4 12 6 22 13 22 15 0 8 -5 6 -26 -11z"/>
<path d="M2852 3430 c0 -14 2 -19 5 -12 2 6 2 18 0 25 -3 6 -5 1 -5 -13z"/>
<path d="M1778 3418 c-23 -35 -60 -110 -56 -113 2 -2 20 28 41 66 37 67 45 93
15 47z"/>
<path d="M2558 3420 c21 -13 42 -40 57 -73 26 -55 35 -50 11 6 -14 34 -69 87
-89 87 -7 0 3 -9 21 -20z"/>
<path d="M3244 3395 c-9 -14 -14 -28 -10 -32 3 -3 6 -1 6 5 0 7 9 21 20 32 11
11 16 20 10 20 -5 0 -17 -11 -26 -25z"/>
<path d="M3277 3392 c-15 -15 -27 -35 -27 -43 0 -7 9 0 19 18 11 17 28 36 38
42 10 6 13 11 7 11 -5 0 -22 -13 -37 -28z"/>
<path d="M2328 3403 c7 -3 16 -2 19 1 4 3 -2 6 -13 5 -11 0 -14 -3 -6 -6z"/>
<path d="M2411 3406 c2 -2 18 -6 34 -10 22 -5 26 -4 15 4 -14 9 -59 15 -49 6z"/>
<path d="M2258 3393 c7 -3 16 -2 19 1 4 3 -2 6 -13 5 -11 0 -14 -3 -6 -6z"/>
<path d="M2862 3360 c0 -19 2 -27 5 -17 2 9 2 25 0 35 -3 9 -5 1 -5 -18z"/>
<path d="M2492 3373 c1 -4 -2 -19 -6 -32 -5 -13 -4 -27 2 -33 8 -8 9 -4 5 13
-4 21 0 18 32 -16 l36 -40 -5 34 c-4 19 -11 40 -18 48 -14 17 -49 37 -46 26z
m58 -76 c0 -7 -11 2 -25 18 -32 39 -32 58 0 22 14 -15 25 -33 25 -40z"/>
<path d="M2772 3345 c0 -16 2 -22 5 -12 2 9 2 23 0 30 -3 6 -5 -1 -5 -18z"/>
<path d="M2394 3321 c4 -6 13 -8 19 -4 7 3 3 -3 -7 -15 -11 -12 -16 -22 -12
-22 4 0 2 -8 -3 -18 -6 -12 -5 -25 5 -42 24 -44 17 -51 -28 -30 -52 24 -82 25
-139 5 -51 -18 -112 -63 -103 -76 3 -5 2 -9 -3 -8 -4 1 -26 -6 -47 -15 -22
-10 -67 -22 -100 -27 -65 -11 -76 -17 -106 -59 -19 -27 -19 -27 2 -26 13 1 27
13 37 33 18 35 50 48 97 38 52 -12 84 -27 77 -38 -4 -6 0 -8 8 -5 14 5 33 -8
38 -27 1 -5 12 -15 24 -22 21 -12 21 -12 -8 -14 -31 -1 -26 -3 39 -14 25 -4
35 -9 27 -14 -17 -11 54 -18 149 -16 52 1 74 5 72 13 -3 16 20 15 37 0 11 -11
12 -10 6 1 -6 10 2 8 23 -5 17 -10 33 -25 35 -33 3 -11 5 -10 6 4 1 17 3 18
11 5 9 -13 10 -13 10 0 1 9 6 5 15 -10 l15 -25 -6 30 -7 30 24 -20 c17 -14 16
-11 -5 13 -31 34 -29 39 7 22 21 -10 21 -10 -1 6 -20 15 -21 18 -7 34 14 15
12 16 -18 13 l-32 -4 30 15 30 14 -35 2 c-31 1 -33 2 -18 14 17 12 16 14 -7
32 -29 22 -31 40 -7 68 13 17 14 18 1 8 -14 -11 -17 -9 -23 10 -3 13 -6 34 -7
48 -1 16 -6 7 -14 -25 l-13 -50 1 55 c0 68 -8 101 -30 118 -15 11 -15 12 0 12
9 0 23 -10 31 -22 9 -12 16 -18 16 -13 -1 16 -34 52 -50 53 -8 0 -26 4 -39 8
-17 5 -22 4 -17 -5z m-114 -142 c-24 -5 -66 -19 -92 -32 -52 -26 -56 -17 -5
10 44 22 76 31 112 31 23 0 19 -2 -15 -9z m88 -61 c3 -14 -4 -18 -31 -18 -40
0 -51 8 -35 27 16 19 62 12 66 -9z m-132 -117 c15 -12 22 -21 16 -21 -16 0
-72 69 -71 88 0 10 6 4 14 -14 8 -18 26 -41 41 -53z m-326 26 c0 -2 -10 -12
-22 -23 l-23 -19 19 23 c18 21 26 27 26 19z m290 -22 c13 -14 21 -25 18 -25
-2 0 -15 11 -28 25 -13 14 -21 25 -18 25 2 0 15 -11 28 -25z m170 11 c0 -2 -8
-10 -17 -17 -16 -13 -17 -12 -4 4 13 16 21 21 21 13z m-50 -36 c-8 -5 -24 -9
-35 -9 -16 1 -16 2 5 9 35 11 48 11 30 0z m115 -10 c-11 -5 -29 -8 -40 -8 -16
0 -15 2 5 8 34 11 60 11 35 0z"/>
<path d="M2144 3304 c-18 -14 -18 -14 6 -3 31 14 36 19 24 19 -6 0 -19 -7 -30
-16z"/>
<path d="M2873 3270 c0 -25 2 -35 4 -22 2 12 2 32 0 45 -2 12 -4 2 -4 -23z"/>
<path d="M2783 3260 c0 -25 2 -35 4 -22 2 12 2 32 0 45 -2 12 -4 2 -4 -23z"/>
<path d="M2088 3263 c-29 -32 -68 -93 -68 -108 0 -5 12 10 26 35 14 25 37 57
52 73 14 15 23 27 21 27 -3 0 -17 -12 -31 -27z"/>
<path d="M3480 3286 c0 -2 8 -10 18 -17 15 -13 16 -12 3 4 -13 16 -21 21 -21
13z"/>
<path d="M2501 3234 c0 -11 3 -14 6 -6 3 7 2 16 -1 19 -3 4 -6 -2 -5 -13z"/>
<path d="M2134 3208 l-29 -33 33 29 c17 17 32 31 32 33 0 8 -8 1 -36 -29z"/>
<path d="M2883 3175 c0 -22 2 -30 4 -17 2 12 2 30 0 40 -3 9 -5 -1 -4 -23z"/>
<path d="M2772 3170 c0 -14 2 -19 5 -12 2 6 2 18 0 25 -3 6 -5 1 -5 -13z"/>
<path d="M2697 3021 c-15 -72 -25 -136 -22 -141 3 -6 1 -10 -4 -10 -6 0 -11
-9 -11 -20 0 -26 -41 -109 -87 -175 -33 -48 -33 -49 -3 -15 47 53 120 204 151
310 30 102 32 138 3 46 -10 -31 -19 -54 -21 -52 -2 1 4 37 13 79 8 43 14 84
12 93 -2 9 -16 -42 -31 -115z m0 -93 c-3 -8 -6 -5 -6 6 -1 11 2 17 5 13 3 -3
4 -12 1 -19z"/>
<path d="M2756 3114 c-4 -14 -5 -28 -3 -31 3 -2 8 8 11 23 4 14 5 28 3 31 -3
2 -8 -8 -11 -23z"/>
<path d="M3190 3136 c0 -2 8 -10 18 -17 15 -13 16 -12 3 4 -13 16 -21 21 -21
13z"/>
<path d="M2892 3105 c0 -16 2 -22 5 -12 2 9 2 23 0 30 -3 6 -5 -1 -5 -18z"/>
<path d="M3190 3086 c0 -2 8 -10 18 -17 15 -13 16 -12 3 4 -13 16 -21 21 -21
13z"/>
<path d="M2902 3050 c0 -14 2 -19 5 -12 2 6 2 18 0 25 -3 6 -5 1 -5 -13z"/>
<path d="M2669 3033 c-13 -16 -12 -17 4 -4 16 13 21 21 13 21 -2 0 -10 -8 -17
-17z"/>
<path d="M2629 3003 c-13 -16 -12 -17 4 -4 16 13 21 21 13 21 -2 0 -10 -8 -17
-17z"/>
<path d="M2911 3004 c0 -11 3 -14 6 -6 3 7 2 16 -1 19 -3 4 -6 -2 -5 -13z"/>
<path d="M2168 2923 c7 -3 16 -2 19 1 4 3 -2 6 -13 5 -11 0 -14 -3 -6 -6z"/>
<path d="M1681 2838 c-13 -45 -21 -100 -21 -144 0 -108 42 -251 92 -316 12
-17 16 -16 63 6 28 14 43 25 34 25 -25 1 -117 88 -139 130 -42 83 -47 192 -14
310 8 29 13 55 11 57 -2 2 -14 -28 -26 -68z"/>
<path d="M1786 2843 c-10 -26 -19 -82 -21 -123 l-4 -75 9 70 c5 39 16 92 24
120 20 64 13 70 -8 8z"/>
<path d="M2110 2857 c48 -52 111 -82 147 -69 27 10 27 10 -12 11 -42 1 -89 24
-140 69 -25 23 -25 21 5 -11z"/>
<path d="M2437 2787 c-5 -21 -10 -46 -13 -55 -2 -9 3 -2 11 17 9 18 15 43 13
55 -3 15 -6 9 -11 -17z"/>
<path d="M1601 2784 c0 -11 3 -14 6 -6 3 7 2 16 -1 19 -3 4 -6 -2 -5 -13z"/>
<path d="M1981 2774 c0 -11 3 -14 6 -6 3 7 2 16 -1 19 -3 4 -6 -2 -5 -13z"/>
<path d="M2055 2769 c34 -46 114 -99 149 -99 28 1 25 3 -29 29 -34 15 -78 43
-100 62 -33 28 -36 30 -20 8z"/>
<path d="M2255 2763 l-60 -24 43 5 c39 4 42 3 31 -12 -7 -10 2 -3 21 15 19 18
32 34 29 36 -2 2 -31 -7 -64 -20z"/>
<path d="M2335 2769 c-4 -6 -5 -12 -2 -15 2 -3 7 2 10 11 7 17 1 20 -8 4z"/>
<path d="M2695 2718 l-40 -43 43 40 c39 36 47 45 39 45 -2 0 -21 -19 -42 -42z"/>
<path d="M1592 2715 c-1 -22 3 -58 7 -80 8 -34 9 -36 9 -10 0 17 -3 53 -8 80
-7 49 -7 49 -8 10z"/>
<path d="M1996 2711 c8 -58 8 -133 -1 -159 -5 -18 -3 -21 11 -15 15 5 16 17
11 87 -3 45 -11 92 -16 106 -9 21 -10 18 -5 -19z"/>
<path d="M1822 2700 c0 -19 2 -27 5 -17 2 9 2 25 0 35 -3 9 -5 1 -5 -18z"/>
<path d="M3300 2725 c0 -5 5 -17 10 -25 5 -8 10 -10 10 -5 0 6 -5 17 -10 25
-5 8 -10 11 -10 5z"/>
<path d="M2305 2620 c-14 -27 -23 -50 -20 -50 2 0 16 23 30 50 14 28 23 50 20
50 -2 0 -16 -22 -30 -50z"/>
<path d="M2201 2643 c7 -12 15 -20 18 -17 3 2 -3 12 -13 22 -17 16 -18 16 -5
-5z"/>
<path d="M2519 2603 c-13 -16 -12 -17 4 -4 9 7 17 15 17 17 0 8 -8 3 -21 -13z"/>
<path d="M2221 2582 c0 -18 -8 -49 -16 -70 -13 -32 -13 -35 0 -18 17 23 29 76
22 103 -3 10 -5 4 -6 -15z"/>
<path d="M1925 2525 c-3 -26 -4 -49 -1 -53 3 -3 6 6 6 20 0 29 21 42 41 25 8
-7 3 2 -11 18 -14 17 -26 31 -26 33 -1 2 -5 -18 -9 -43z"/>
<path d="M1881 2544 c0 -11 3 -14 6 -6 3 7 2 16 -1 19 -3 4 -6 -2 -5 -13z"/>
<path d="M3130 2535 c0 -5 5 -17 10 -25 5 -8 10 -10 10 -5 0 6 -5 17 -10 25
-5 8 -10 11 -10 5z"/>
<path d="M2466 2495 c-9 -26 -7 -32 5 -12 6 10 9 21 6 23 -2 3 -7 -2 -11 -11z"/>
<path d="M3130 2436 c0 -2 8 -10 18 -17 15 -13 16 -12 3 4 -13 16 -21 21 -21
13z"/>
<path d="M3291 2436 c2 -2 15 -9 29 -15 24 -11 24 -11 6 3 -16 13 -49 24 -35
12z"/>
<path d="M2805 2425 c23 -8 125 -11 113 -4 -7 5 -38 8 -68 8 -30 0 -50 -2 -45
-4z"/>
<path d="M2655 2100 c17 -4 41 -8 55 -8 22 0 22 1 -5 8 -16 4 -41 8 -55 8 -22
0 -22 -1 5 -8z"/>
<path d="M2755 2080 c27 -12 43 -12 25 0 -8 5 -22 9 -30 9 -10 0 -8 -3 5 -9z"/>
<path d="M2590 2045 c0 -19 -5 -25 -22 -26 -17 -1 -19 -2 -5 -6 20 -5 23 -39
5 -46 -9 -4 -8 -6 2 -6 8 0 22 4 30 9 11 7 11 10 2 10 -10 0 -12 11 -6 45 3
25 4 45 0 45 -3 0 -6 -11 -6 -25z"/>
<path d="M2668 2033 c6 -2 18 -2 25 0 6 3 1 5 -13 5 -14 0 -19 -2 -12 -5z"/>
<path d="M2628 1983 c7 -3 16 -2 19 1 4 3 -2 6 -13 5 -11 0 -14 -3 -6 -6z"/>
<path d="M2517 1940 c-18 -15 -27 -17 -30 -8 -4 9 -6 9 -6 -2 -1 -8 -16 -30
-33 -49 l-33 -35 34 28 c27 21 36 24 43 14 7 -10 8 -9 4 4 -3 12 6 26 27 43
18 13 29 25 26 25 -4 0 -18 -9 -32 -20z"/>
<path d="M2595 1933 c5 -18 -2 -29 -31 -55 -21 -18 -42 -32 -48 -30 -8 2 -8 0
0 -8 8 -8 21 -1 48 25 l38 36 35 -41 c19 -22 42 -40 51 -39 13 0 12 2 -4 9
-23 9 -64 56 -64 74 0 6 -8 20 -16 31 -16 20 -16 20 -9 -2z"/>
<path d="M2910 1850 c-9 -6 -10 -10 -3 -10 6 0 15 5 18 10 8 12 4 12 -15 0z"/>
<path d="M2499 1803 c-13 -16 -12 -17 4 -4 9 7 17 15 17 17 0 8 -8 3 -21 -13z"/>
<path d="M2748 1743 c7 -3 16 -2 19 1 4 3 -2 6 -13 5 -11 0 -14 -3 -6 -6z"/>
<path d="M2788 1733 c7 -3 16 -2 19 1 4 3 -2 6 -13 5 -11 0 -14 -3 -6 -6z"/>
<path d="M1555 3245 c-16 -8 -23 -14 -14 -15 8 0 24 7 35 15 23 18 18 18 -21
0z"/>
<path d="M1810 1426 c0 -11 30 -66 36 -66 2 0 -3 15 -12 33 -19 36 -24 44 -24
33z"/>
<path d="M1859 1335 c5 -11 17 -29 26 -40 l16 -20 -10 20 c-5 11 -17 29 -26
40 l-16 20 10 -20z"/>
<path d="M1885 1065 c39 -64 105 -153 150 -201 41 -44 55 -45 17 -2 -7 9 -11
22 -6 29 4 7 3 10 -4 5 -6 -3 -42 34 -83 86 -81 105 -101 127 -74 83z"/>
<path d="M2002 990 c0 -14 2 -19 5 -12 2 6 2 18 0 25 -3 6 -5 1 -5 -13z"/>
<path d="M1814 1942 c4 -3 14 -7 22 -8 9 -1 13 0 10 4 -4 3 -14 7 -22 8 -9 1
-13 0 -10 -4z"/>
<path d="M1854 1896 c11 -9 24 -16 30 -16 12 0 7 5 -24 19 -24 11 -24 11 -6
-3z"/>
<path d="M1780 1856 c0 -2 8 -10 18 -17 15 -13 16 -12 3 4 -13 16 -21 21 -21
13z"/>
<path d="M1830 1795 c13 -14 26 -25 28 -25 3 0 -5 11 -18 25 -13 14 -26 25
-28 25 -3 0 5 -11 18 -25z"/>
<path d="M2109 1833 c-13 -16 -12 -17 4 -4 9 7 17 15 17 17 0 8 -8 3 -21 -13z"/>
<path d="M2522 1165 c0 -16 2 -22 5 -12 2 9 2 23 0 30 -3 6 -5 -1 -5 -18z"/>
<path d="M2515 1085 c4 -27 14 -63 21 -80 8 -16 12 -21 8 -10 -3 11 -10 44
-14 74 -12 69 -24 83 -15 16z"/>
<path d="M2193 1050 c0 -25 2 -35 4 -22 2 12 2 32 0 45 -2 12 -4 2 -4 -23z"/>
<path d="M2942 1040 c0 -14 2 -19 5 -12 2 6 2 18 0 25 -3 6 -5 1 -5 -13z"/>
<path d="M2963 1005 c0 -27 2 -38 4 -22 2 15 2 37 0 50 -2 12 -4 0 -4 -28z"/>
<path d="M2896 930 c-20 -34 -33 -46 -38 -37 -8 12 -9 10 -12 -25 -1 -7 -4
-15 -7 -18 -4 -3 -10 -16 -14 -30 -4 -14 18 13 49 60 49 73 63 101 54 100 -2
0 -16 -23 -32 -50z"/>
<path d="M2705 750 c0 -61 3 -101 7 -88 3 13 6 52 6 88 0 36 -3 75 -6 88 -4
13 -7 -27 -7 -88z"/>
<path d="M2800 740 c-7 -28 -10 -53 -8 -55 3 -3 10 18 16 47 7 28 11 53 8 55
-2 2 -9 -19 -16 -47z"/>
<path d="M2776 644 c-4 -14 -5 -28 -3 -31 3 -2 8 8 11 23 4 14 5 28 3 31 -3 2
-8 -8 -11 -23z"/>
<path d="M2331 635 c0 -5 20 -48 44 -95 24 -47 44 -80 44 -75 0 6 -20 48 -44
95 -24 47 -44 81 -44 75z"/>
<path d="M2520 480 c0 -11 4 -20 9 -20 5 0 7 9 4 20 -3 11 -7 20 -9 20 -2 0
-4 -9 -4 -20z"/>
<path d="M2671 424 c0 -11 3 -14 6 -6 3 7 2 16 -1 19 -3 4 -6 -2 -5 -13z"/>
<path d="M2769 363 c-13 -16 -12 -17 4 -4 16 13 21 21 13 21 -2 0 -10 -8 -17
-17z"/>
<path d="M2646 344 c-4 -14 -5 -28 -3 -31 3 -2 8 8 11 23 4 14 5 28 3 31 -3 2
-8 -8 -11 -23z"/>
<path d="M2611 344 c0 -11 3 -14 6 -6 3 7 2 16 -1 19 -3 4 -6 -2 -5 -13z"/>
<path d="M2602 290 c0 -14 2 -19 5 -12 2 6 2 18 0 25 -3 6 -5 1 -5 -13z"/>
<path d="M2621 269 c-6 -18 -9 -34 -7 -36 2 -2 9 10 15 28 6 18 9 34 7 36 -2
2 -9 -10 -15 -28z"/>
<path d="M3583 2213 c9 -2 25 -2 35 0 9 3 1 5 -18 5 -19 0 -27 -2 -17 -5z"/>
<path d="M3573 2153 c9 -2 23 -2 30 0 6 3 -1 5 -18 5 -16 0 -22 -2 -12 -5z"/>
<path d="M3683 2149 c45 -11 90 -32 137 -67 30 -22 32 -23 16 -4 -26 30 -133
82 -165 81 -21 -1 -18 -3 12 -10z"/>
<path d="M3860 2057 c0 -2 15 -16 33 -33 l32 -29 -29 33 c-28 30 -36 37 -36
29z"/>
<path d="M3573 1720 c0 -25 2 -35 4 -22 2 12 2 32 0 45 -2 12 -4 2 -4 -23z"/>
<path d="M3551 1734 c0 -11 3 -14 6 -6 3 7 2 16 -1 19 -3 4 -6 -2 -5 -13z"/>
<path d="M1601 1679 c-1 -8 6 -24 15 -35 15 -19 15 -19 6 1 -5 11 -12 27 -15
35 -5 13 -6 13 -6 -1z"/>
<path d="M3371 1574 c0 -11 3 -14 6 -6 3 7 2 16 -1 19 -3 4 -6 -2 -5 -13z"/>
<path d="M1500 1413 c-7 -38 -10 -77 -7 -88 3 -13 5 -9 6 12 0 18 6 55 12 83
6 28 9 54 6 56 -3 3 -10 -25 -17 -63z"/>
<path d="M1531 1444 c0 -11 3 -14 6 -6 3 7 2 16 -1 19 -3 4 -6 -2 -5 -13z"/>
<path d="M1522 1390 c0 -19 2 -27 5 -17 2 9 2 25 0 35 -3 9 -5 1 -5 -18z"/>
<path d="M3466 1398 c19 -61 43 -122 43 -112 1 14 -40 134 -46 134 -2 0 -1
-10 3 -22z"/>
<path d="M1462 1385 c0 -16 2 -22 5 -12 2 9 2 23 0 30 -3 6 -5 -1 -5 -18z"/>
<path d="M3511 1254 c0 -11 3 -14 6 -6 3 7 2 16 -1 19 -3 4 -6 -2 -5 -13z"/>
<path d="M3291 1154 c-19 -52 -31 -97 -28 -100 3 -3 19 38 37 91 18 53 30 98
28 100 -2 2 -19 -39 -37 -91z"/>
<path d="M1461 1144 c0 -11 3 -14 6 -6 3 7 2 16 -1 19 -3 4 -6 -2 -5 -13z"/>
<path d="M1651 1010 c-1 -8 4 -31 10 -50 6 -19 12 -53 14 -75 1 -24 30 -100
72 -190 38 -82 75 -170 81 -195 10 -40 22 -147 25 -222 0 -16 5 -28 9 -28 5 0
6 -4 3 -10 -3 -6 1 -7 9 -4 9 3 25 21 37 40 18 29 21 47 17 110 -2 41 -8 78
-13 82 -6 4 -11 14 -13 22 -6 33 -25 69 -33 64 -5 -3 -6 2 -3 10 3 9 0 18 -8
21 -8 3 -15 11 -15 18 0 7 -23 53 -51 103 -42 74 -91 184 -135 304 -5 13 -6
13 -6 0z m250 -723 c-10 -9 -11 -8 -5 6 3 10 9 15 12 12 3 -3 0 -11 -7 -18z"/>
<path d="M1500 981 c5 -11 15 -23 21 -27 6 -3 3 5 -6 20 -20 30 -30 35 -15 7z"/>
<path d="M1351 734 c0 -11 3 -14 6 -6 3 7 2 16 -1 19 -3 4 -6 -2 -5 -13z"/>
<path d="M3507 727 c-8 -12 -36 -47 -62 -77 -83 -97 -255 -365 -255 -397 0 -4
16 21 36 56 52 95 143 226 213 310 55 66 99 131 87 131 -2 0 -10 -10 -19 -23z"/>
<path d="M1360 694 c-1 -49 109 -252 130 -239 5 3 7 0 5 -8 -4 -8 20 -41 56
-78 l61 -64 -50 60 c-58 68 -60 86 -4 33 61 -58 243 -193 309 -230 35 -19 61
-38 58 -41 -3 -4 -2 -5 1 -3 3 3 19 -10 35 -27 21 -23 27 -26 22 -12 -6 20 -6
20 18 1 13 -11 39 -36 56 -55 18 -20 33 -31 33 -25 0 34 -97 112 -215 172
-124 62 -364 266 -438 372 -17 24 -41 69 -54 100 -12 30 -23 50 -23 44z"/>
<path d="M1282 665 c0 -16 2 -22 5 -12 2 9 2 23 0 30 -3 6 -5 -1 -5 -18z"/>
<path d="M3066 559 c-12 -112 7 -191 66 -288 l21 -33 17 53 c9 30 26 73 39 97
24 46 22 50 -14 26 -23 -15 -27 -15 -51 1 -33 21 -52 68 -62 152 l-8 68 -8
-76z"/>
<path d="M3524 488 c-53 -78 -188 -218 -271 -281 -66 -49 -69 -59 -6 -15 102
70 247 224 312 331 37 61 18 42 -35 -35z"/>
<path d="M2002 495 c0 -16 2 -22 5 -12 2 9 2 23 0 30 -3 6 -5 -1 -5 -18z"/>
<path d="M1352 425 c0 -16 2 -22 5 -12 2 9 2 23 0 30 -3 6 -5 -1 -5 -18z"/>
<path d="M2961 414 c0 -11 3 -14 6 -6 3 7 2 16 -1 19 -3 4 -6 -2 -5 -13z"/>
<path d="M3756 395 c-9 -26 -7 -32 5 -12 6 10 9 21 6 23 -2 3 -7 -2 -11 -11z"/>
<path d="M1312 370 c0 -14 2 -19 5 -12 2 6 2 18 0 25 -3 6 -5 1 -5 -13z"/>
<path d="M1361 374 c0 -11 3 -14 6 -6 3 7 2 16 -1 19 -3 4 -6 -2 -5 -13z"/>
<path d="M2971 354 c0 -11 3 -14 6 -6 3 7 2 16 -1 19 -3 4 -6 -2 -5 -13z"/>
<path d="M3736 343 c-6 -14 -5 -15 5 -6 7 7 10 15 7 18 -3 3 -9 -2 -12 -12z"/>
<path d="M1370 342 c0 -43 140 -253 211 -317 18 -17 11 -5 -18 27 -60 67 -136
180 -169 252 -13 28 -24 45 -24 38z"/>
<path d="M1322 315 c0 -11 3 -29 8 -40 11 -25 11 1 0 35 -6 20 -8 21 -8 5z"/>
<path d="M2981 304 c0 -11 3 -14 6 -6 3 7 2 16 -1 19 -3 4 -6 -2 -5 -13z"/>
<path d="M3705 294 c-9 -15 -12 -23 -6 -20 11 7 35 46 28 46 -3 0 -12 -12 -22
-26z"/>
<path d="M2992 250 c0 -14 2 -19 5 -12 2 6 2 18 0 25 -3 6 -5 1 -5 -13z"/>
<path d="M1340 247 c0 -15 51 -108 70 -127 11 -11 17 -20 13 -20 -5 0 0 -5 10
-11 9 -6 15 -15 11 -20 -3 -5 0 -8 7 -7 6 2 14 -3 17 -11 3 -9 0 -11 -9 -6 -8
5 -11 4 -6 -1 5 -5 14 -9 20 -9 7 0 12 -7 11 -16 -1 -8 7 -16 18 -16 11 -1 16
3 12 10 -5 8 -3 8 7 -1 7 -6 17 -12 21 -12 4 0 -25 33 -66 73 -40 39 -87 97
-104 127 -18 30 -32 51 -32 47z"/>
<path d="M3659 233 c-13 -16 -12 -17 4 -4 16 13 21 21 13 21 -2 0 -10 -8 -17
-17z"/>
<path d="M2324 205 c18 -31 105 -132 90 -105 -7 14 -89 118 -102 130 -3 3 3
-8 12 -25z"/>
<path d="M3621 169 c-12 -16 -52 -63 -88 -102 -65 -71 -65 -71 14 9 45 44 86
91 92 102 17 31 9 27 -18 -9z"/>
<path d="M1842 144 c4 -6 35 -30 70 -54 35 -24 56 -36 48 -28 -23 23 -125 94
-118 82z"/>
<path d="M1293 60 c0 -40 3 -57 8 -45 7 17 8 18 8 3 1 -10 8 -18 16 -18 16 0
20 12 8 24 -5 4 -15 28 -24 54 l-16 47 0 -65z"/>
<path d="M2721 69 c-28 -29 -51 -56 -51 -62 0 -6 1 -8 3 -6 1 2 27 30 57 62
30 31 51 57 48 57 -4 0 -30 -23 -57 -51z"/>
<path d="M2783 73 c-51 -62 -57 -73 -41 -73 7 0 22 15 34 33 11 17 29 44 38
60 28 42 12 32 -31 -20z"/>
<path d="M2310 86 c0 -14 43 -86 53 -86 4 0 0 12 -11 28 -10 15 -24 36 -30 47
-6 11 -12 16 -12 11z"/>
</g>
</svg>