<svg version="1.0" xmlns="http://www.w3.org/2000/svg"
 width="100%" height="100%" viewBox="0 0 512 512"
 preserveAspectRatio="xMidYMid meet">
<g transform="translate(0, 512) scale(0.1,-0.1)"
stroke="none">
<path d="M1430 4600 l35 -31 -39 7 c-28 5 -37 4 -32 -5 4 -6 14 -11 22 -11 12
0 9 -8 -10 -30 -36 -43 -46 -90 -46 -210 0 -96 5 -145 26 -269 5 -32 4 -42 -4
-37 -8 4 -12 0 -12 -11 0 -34 50 -204 75 -258 l26 -54 -21 -42 c-12 -23 -33
-85 -47 -138 -48 -183 -31 -418 41 -559 l25 -49 -87 -22 c-94 -24 -192 -66
-232 -99 -18 -16 -6 -12 45 13 65 31 239 85 276 85 9 0 30 -17 47 -39 l31 -39
-95 -46 c-140 -67 -243 -142 -308 -224 -24 -30 -19 -27 25 14 64 60 115 99
188 143 72 43 203 101 214 94 5 -3 -26 -24 -69 -47 -87 -45 -163 -95 -184
-121 -8 -10 19 4 61 31 41 27 107 64 146 83 l71 34 53 -38 52 -39 -24 -15
c-35 -24 -139 -112 -139 -119 0 -3 10 4 23 15 34 32 139 103 151 103 6 0 21
-8 34 -18 l23 -18 -26 -55 c-61 -134 -82 -319 -51 -440 11 -42 12 -66 5 -100
-6 -24 -9 -78 -7 -119 3 -72 1 -78 -45 -170 -118 -237 -121 -474 -6 -719 21
-46 56 -109 78 -141 l39 -57 -51 -34 c-74 -49 -112 -114 -112 -193 0 -75 26
-133 73 -159 26 -15 60 -20 164 -25 115 -4 136 -8 165 -28 42 -28 143 -39 291
-31 159 9 296 9 502 2 201 -8 241 -2 304 40 33 22 42 24 74 15 98 -27 359 -2
428 41 27 16 43 19 74 14 22 -4 38 -11 35 -16 -4 -5 1 -6 10 -3 8 4 15 11 14
18 -4 35 -1 36 168 36 l168 0 -40 21 c-100 52 -111 71 -37 64 32 -3 39 -2 22
3 -24 8 -24 9 11 15 55 11 188 81 246 129 145 122 220 304 193 471 -6 37 -15
78 -20 93 -24 63 -30 115 -18 155 15 51 -3 72 -60 72 -49 0 -91 -24 -122 -71
-23 -33 -25 -47 -30 -181 -5 -146 -5 -146 -38 -194 -67 -96 -185 -147 -337
-147 -111 0 -113 2 -92 92 56 241 45 460 -35 686 -54 155 -150 325 -285 503
-66 88 -74 103 -89 175 -16 78 -52 177 -81 222 -8 13 -13 25 -11 26 2 1 29 21
61 45 l58 42 97 -51 c53 -29 126 -73 162 -98 36 -25 58 -38 51 -28 -24 29
-131 102 -220 149 -75 41 -82 46 -63 56 17 9 32 5 88 -25 103 -55 166 -97 251
-170 l78 -66 -73 72 c-70 68 -196 159 -273 195 l-37 18 32 43 c19 26 39 43 52
43 54 2 237 -72 314 -126 34 -24 34 -24 -5 12 -48 45 -176 109 -250 126 l-53
12 29 62 c82 174 75 467 -14 660 l-33 70 28 50 c27 49 61 162 72 239 9 69 -13
25 -43 -81 -15 -55 -42 -126 -59 -156 l-31 -56 30 -66 c51 -114 73 -223 73
-370 0 -98 -4 -145 -18 -190 -24 -81 -63 -155 -81 -155 -19 0 -20 -3 15 71 73
158 80 363 19 572 -28 93 -32 81 -7 -18 15 -60 21 -116 22 -220 1 -159 -16
-235 -76 -335 -32 -52 -36 -55 -68 -51 -190 20 -332 39 -320 44 8 3 42 9 75
13 33 3 54 9 48 11 -7 3 -43 0 -80 -6 l-67 -10 -34 40 c-35 41 -92 83 -177
132 -27 16 -42 26 -32 23 139 -44 216 -44 299 1 86 46 136 132 137 236 l1 57
28 -7 c47 -13 111 -9 129 9 15 16 15 17 -4 12 -26 -7 -84 18 -131 55 -122 95
-289 122 -387 61 -46 -28 -104 -95 -126 -144 -20 -47 -49 -197 -49 -258 l0
-39 33 17 c17 9 29 13 25 9 -3 -3 30 -25 75 -48 51 -27 102 -63 141 -102 l61
-60 -65 -5 c-76 -6 -58 -20 26 -20 30 0 54 -4 54 -9 0 -5 3 -17 6 -25 5 -14
-1 -16 -52 -12 -43 4 -51 3 -29 -3 17 -5 45 -9 63 -10 26 -1 32 -5 32 -22 0
-14 -5 -19 -14 -16 -8 3 -43 8 -78 11 l-63 5 78 -16 c78 -17 90 -27 68 -62 -7
-11 -19 -10 -72 8 -34 11 -64 19 -66 18 -2 -2 24 -15 57 -30 69 -29 70 -42 9
-76 -89 -50 -223 -32 -346 48 -90 58 -113 100 -74 135 11 10 21 30 23 44 2 20
11 28 36 34 40 11 59 45 43 76 -15 28 -69 42 -158 42 -83 0 -117 -10 -133 -40
-15 -29 8 -65 55 -84 19 -8 35 -22 35 -30 0 -8 14 -26 30 -39 17 -14 30 -30
30 -36 0 -18 -59 -78 -108 -109 -100 -64 -222 -87 -305 -58 -39 14 -77 42 -77
58 0 4 24 19 53 32 28 14 45 25 37 25 -8 0 -34 -8 -58 -19 l-43 -19 -9 25 c-6
14 -10 27 -10 28 0 2 27 9 60 16 33 7 63 17 66 22 3 5 -5 6 -18 3 -105 -24
-108 -24 -108 -4 0 12 9 21 28 24 15 3 41 10 57 15 23 7 18 8 -22 4 -53 -6
-59 -2 -47 30 4 12 22 16 63 18 l56 2 -47 3 c-27 2 -48 8 -48 13 0 16 101 109
164 151 34 23 60 45 59 50 -3 9 50 4 68 -6 8 -5 9 12 4 61 -15 154 -55 267
-117 331 -77 80 -209 99 -348 50 -41 -14 -86 -28 -100 -31 -14 -2 -8 -4 13 -2
l37 2 -27 -23 c-55 -46 -103 -65 -154 -61 -27 1 -49 2 -49 1 0 -2 19 -12 42
-24 32 -16 54 -20 95 -17 52 5 53 4 53 -23 0 -15 9 -57 21 -94 48 -157 199
-228 379 -180 80 21 82 19 15 -23 -33 -21 -85 -62 -116 -90 -53 -49 -59 -51
-120 -55 l-64 -3 63 -2 c34 -1 62 -6 62 -10 0 -12 -401 -46 -410 -35 -3 4 -16
21 -28 37 -12 16 -22 24 -22 19 0 -6 9 -22 20 -36 20 -25 20 -25 0 -30 -22 -6
-40 17 -40 50 0 11 -9 47 -21 80 -11 34 -26 96 -34 139 l-14 79 5 -79 c3 -43
14 -108 24 -145 10 -36 17 -67 16 -69 -6 -6 -60 126 -73 178 -17 75 -16 224 3
318 8 42 30 110 49 150 l34 72 -29 48 c-27 42 -80 180 -80 206 0 6 13 -5 30
-24 34 -41 38 -35 11 17 -37 71 -56 196 -56 363 0 172 11 214 61 226 74 19
251 -79 504 -278 72 -57 143 -112 157 -122 l26 -20 -17 26 -17 26 68 16 c202
48 434 46 636 -5 43 -10 45 -12 36 -36 -7 -19 7 -10 58 37 147 134 414 317
508 346 115 37 130 7 129 -246 -1 -203 -25 -354 -65 -396 -12 -13 -24 -23 -25
-21 -2 2 10 43 26 92 38 121 53 232 48 367 -3 84 -9 122 -22 147 -17 32 -20
33 -66 29 -35 -4 -67 -17 -112 -46 -84 -55 -221 -174 -277 -242 l-45 -55 54
50 c42 39 49 43 34 20 -26 -41 -74 -139 -69 -143 2 -2 12 1 22 6 63 34 256 50
328 28 11 -3 1 3 -21 14 -28 13 -65 20 -110 21 l-69 2 39 13 c21 8 73 18 115
23 l76 8 -81 2 c-46 0 -102 -5 -129 -13 -26 -8 -44 -11 -39 -7 40 34 98 74
126 86 18 8 26 14 18 14 -8 0 -35 -8 -60 -19 -34 -15 -40 -16 -25 -4 19 16 98
54 140 68 15 6 17 9 6 16 -8 4 -21 6 -30 4 -9 -2 0 3 19 12 19 9 49 18 66 21
26 4 34 1 44 -18 16 -29 16 -157 0 -234 -13 -62 -48 -155 -59 -155 -3 0 -16
11 -29 25 -45 47 -128 39 -178 -16 -18 -20 -18 -20 10 -10 47 19 123 14 146
-9 11 -11 20 -27 20 -36 0 -14 -2 -15 -17 -3 -14 12 -16 12 -9 0 5 -7 23 -49
41 -93 l33 -80 51 49 c28 27 51 55 51 62 0 8 -9 3 -21 -10 -14 -16 -12 -11 4
12 87 122 114 553 42 675 l-25 42 21 25 20 26 -48 -25 c-41 -22 -45 -23 -24
-5 34 30 12 26 -43 -9 -26 -17 -75 -44 -109 -61 -99 -50 -213 -127 -343 -230
l-121 -96 -104 24 c-90 22 -128 25 -284 25 -155 1 -196 -3 -292 -24 l-112 -25
-83 66 c-177 142 -260 195 -473 305 -107 55 -124 61 -95 36z m694 -1106 c43
-44 31 -94 -28 -114 -28 -9 -40 -8 -64 4 -47 24 -55 66 -21 110 28 36 77 36
113 0z m876 6 c28 -28 27 -84 -2 -104 -50 -35 -118 0 -118 60 0 33 34 64 70
64 17 0 39 -9 50 -20z m-1080 5 c0 -2 -9 -19 -20 -37 -47 -77 -14 -207 64
-253 108 -63 226 8 246 148 l7 52 16 -37 c22 -49 21 -90 -3 -138 -18 -36 -19
-40 -4 -40 33 0 5 -12 -58 -26 -116 -25 -194 -13 -264 41 -100 77 -119 242
-31 280 34 15 47 18 47 10z m1241 -43 c17 -22 20 -38 17 -88 -6 -102 -72 -177
-180 -206 -41 -10 -61 -9 -150 9 -58 12 -88 22 -70 22 l33 1 -26 34 c-34 45
-42 94 -21 134 9 18 18 32 21 32 2 0 9 -25 15 -56 20 -97 105 -166 183 -150
81 16 147 99 147 183 0 23 -10 59 -24 86 l-25 45 30 -10 c16 -5 39 -22 50 -36z
m-81 -67 c0 -16 -27 -32 -37 -22 -3 4 -3 13 0 22 8 20 37 20 37 0z m-469 -355
c10 -6 19 -17 19 -25 0 -17 -11 -19 -25 -6 -16 16 -181 17 -199 2 -13 -11 -16
-11 -16 2 0 9 8 21 18 26 22 14 178 14 203 1z m-621 -119 c0 -18 -32 -41 -56
-41 -39 0 -165 -31 -160 -39 3 -4 -8 -6 -24 -5 -16 1 -47 17 -69 35 l-40 34
112 11 c147 14 237 16 237 5z m1240 -1 c47 -5 100 -13 119 -16 l33 -5 -28 -31
c-33 -34 -31 -34 -193 1 -85 18 -110 30 -111 54 0 10 80 9 180 -3z m-1618 -36
c17 -16 17 -18 0 -31 -9 -8 -12 -12 -5 -9 14 8 63 -10 63 -23 0 -5 -9 -11 -19
-14 -18 -4 -50 22 -90 76 -12 15 -11 17 9 17 13 0 32 -7 42 -16z m1838 -12 c0
-4 -13 -23 -28 -42 -21 -25 -33 -32 -47 -26 -16 6 -15 10 15 41 32 33 60 45
60 27z m-1470 -20 c0 -13 -24 -25 -100 -51 -97 -33 -101 -33 -120 -16 -11 10
-18 21 -15 25 2 4 32 13 65 20 42 9 57 16 48 22 -8 6 -4 7 12 3 14 -2 41 -1
60 4 50 13 50 13 50 -7z m1190 -1 c47 -11 95 -23 108 -28 l23 -9 -25 -13 c-22
-12 -36 -11 -113 10 -63 18 -89 29 -91 42 -4 21 -6 21 98 -2z m-4 -58 c35 -9
64 -20 64 -24 0 -4 -24 -19 -54 -35 -50 -26 -56 -27 -73 -13 -10 9 -25 19 -33
24 -8 4 -1 -4 15 -18 l30 -25 -30 -12 c-42 -16 -136 -40 -155 -40 -8 1 4 10
27 22 52 25 103 80 103 112 0 28 9 38 28 31 7 -3 42 -13 78 -22z m-1184 -7
c15 -22 7 -33 -42 -56 -63 -30 -58 -39 6 -11 l48 21 30 -29 c17 -17 47 -37 66
-45 l35 -15 -33 -1 c-86 -1 -302 64 -302 91 0 11 90 50 101 43 5 -3 9 0 9 6 0
7 8 9 21 5 16 -5 19 -4 14 5 -10 16 37 2 47 -14z m1383 -6 c10 -17 -42 -16
-59 1 -6 5 2 9 21 9 18 0 35 -4 38 -10z m-1671 -30 c22 -17 36 -30 33 -30 -9
0 -87 51 -87 56 0 10 18 1 54 -26z m867 -16 c55 -42 126 -74 202 -93 l72 -18
-50 -31 c-97 -63 -149 -77 -270 -76 -127 0 -195 21 -261 78 l-39 33 51 11 c63
14 124 41 194 86 30 19 58 36 61 36 3 0 21 -12 40 -26z m744 6 c-11 -18 -126
-81 -142 -78 -35 7 -20 25 49 59 66 33 106 41 93 19z m-1510 -60 c3 -6 3 -10
-2 -10 -11 1 -43 26 -43 34 0 9 37 -11 45 -24z m1345 -15 c11 -13 6 -18 -32
-35 -53 -23 -188 -56 -273 -66 l-59 -7 37 35 c32 31 45 36 104 42 38 3 97 14
133 25 36 10 68 19 71 20 4 0 12 -6 19 -14z m-1170 -21 c36 -7 101 -14 145
-14 80 0 80 0 109 -36 l29 -36 -29 6 c-16 4 -60 8 -99 11 -69 4 -161 27 -242
60 -46 18 -49 41 -4 30 14 -4 55 -13 91 -21z m1259 -67 c26 -42 78 -199 86
-257 4 -32 0 -24 -15 30 -11 41 -40 117 -65 168 -43 90 -47 125 -6 59z m-21
-29 c40 -71 80 -185 96 -277 8 -42 15 -63 15 -47 1 16 3 27 5 25 2 -2 0 -87
-4 -189 -11 -269 -41 -393 -168 -710 -52 -132 -123 -341 -121 -362 0 -7 20 43
44 112 23 69 70 193 103 275 112 280 150 440 159 670 3 77 9 146 13 154 8 14
22 -41 40 -148 5 -32 9 -41 14 -30 4 9 1 53 -6 98 -8 44 -13 81 -12 81 11 0
152 -229 203 -328 99 -195 128 -298 138 -487 9 -187 -29 -348 -117 -495 -27
-46 -48 -85 -46 -87 2 -3 14 1 26 7 20 11 21 10 15 -12 -4 -12 -11 -25 -16
-28 -4 -3 -4 -12 1 -20 6 -8 10 -33 9 -55 l0 -40 -19 35 c-46 86 -128 132
-249 138 -48 3 -89 10 -93 16 -6 8 -8 8 -8 0 0 -7 -6 -14 -14 -17 -19 -8 -14
32 13 101 37 93 68 147 118 202 46 51 47 53 14 34 -18 -10 -51 -43 -72 -73
-42 -58 -99 -194 -99 -236 0 -43 -17 -28 -30 26 -22 90 -7 153 100 419 96 238
112 296 117 423 3 65 2 117 -3 117 -5 0 -17 -42 -26 -93 -23 -122 -57 -224
-130 -382 -146 -318 -188 -436 -203 -562 l-7 -62 45 -28 c127 -76 108 -232
-31 -273 -31 -8 -31 -8 -16 15 43 66 40 148 -8 195 -36 37 -56 40 -23 4 61
-65 38 -187 -40 -220 -53 -22 -157 -18 -188 6 -44 35 -58 120 -33 192 17 48 0
50 -20 3 -16 -39 -21 -118 -9 -156 6 -20 0 -17 -35 19 -23 24 -46 55 -50 70
-7 24 -8 22 -9 -16 -1 -24 4 -52 9 -63 6 -10 8 -19 6 -19 -14 0 -36 65 -36
107 0 50 5 70 38 163 11 30 28 109 36 175 21 153 61 357 92 463 56 193 120
301 226 384 41 32 87 72 103 89 26 28 23 27 -20 -8 -27 -22 -95 -72 -150 -111
-55 -38 -119 -90 -141 -114 -40 -42 -130 -182 -180 -280 -13 -26 -29 -48 -34
-48 -5 0 -47 55 -94 123 -116 169 -148 202 -319 336 -81 64 -163 127 -180 141
-17 14 6 -18 52 -70 189 -214 257 -330 337 -574 52 -161 75 -255 104 -445 21
-143 26 -226 11 -235 -5 -3 -12 10 -15 28 -4 22 -20 46 -42 65 -46 41 -53 39
-15 -4 36 -42 46 -72 37 -123 -7 -49 -35 -84 -77 -99 -42 -15 -178 -17 -213
-3 -37 14 -66 67 -66 118 0 47 10 73 44 112 l21 24 -25 -15 c-36 -22 -72 -97
-66 -137 3 -17 1 -32 -5 -32 -5 0 -9 5 -9 11 0 6 -8 8 -19 4 -14 -4 -20 0 -25
17 -19 74 14 146 87 188 28 16 44 31 38 34 -6 4 -11 28 -11 53 0 71 -26 153
-105 337 -157 365 -203 503 -230 680 -16 112 -20 196 -7 196 4 0 15 -15 25
-33 10 -18 36 -53 58 -77 l40 -45 -27 44 c-65 109 -120 322 -110 429 4 34 9
76 13 92 7 38 31 40 26 3 -4 -29 15 -74 33 -80 5 -2 23 24 39 57 16 33 32 60
36 60 3 0 12 -7 19 -15 7 -8 19 -15 26 -15 8 0 14 -6 14 -12 0 -8 3 -9 8 -3 4
6 30 12 57 13 28 2 54 7 58 11 8 8 64 -1 107 -16 28 -10 399 -13 440 -4 26 6
40 5 40 -1 0 -6 9 -8 20 -5 11 3 18 1 14 -4 -3 -5 -14 -9 -24 -9 -10 0 -22 -5
-26 -11 -4 -7 0 -9 12 -6 11 4 32 9 47 13 22 5 26 9 15 16 -9 7 -4 8 14 4 30
-7 188 40 188 55 0 5 -24 -1 -52 -12 -51 -21 -107 -39 -118 -39 -3 0 -6 9 -6
19 0 15 10 20 51 26 27 3 76 13 109 21 32 8 65 13 73 10 9 -4 11 -2 7 6 -5 8
-2 9 9 5 10 -3 17 -2 17 3 0 6 6 10 13 10 7 0 44 15 82 34 39 19 73 35 77 35
3 1 20 -23 36 -51z m-1507 -943 c12 -135 40 -220 120 -360 69 -123 113 -215
104 -223 -7 -7 -2 -15 -105 171 -51 92 -95 166 -97 163 -2 -2 27 -64 66 -137
38 -74 77 -151 86 -173 l16 -38 -77 7 c-88 8 -96 14 -143 106 -83 158 -87 339
-13 531 14 37 28 66 30 63 2 -2 8 -51 13 -110z m2680 -146 c-15 -44 -14 -103
4 -169 21 -80 19 -204 -5 -283 -26 -84 -89 -178 -154 -229 -48 -39 -162 -98
-187 -98 -7 0 9 22 35 50 25 27 46 52 46 55 0 3 -15 -2 -32 -11 -91 -47 -234
-57 -339 -24 -93 29 -92 28 -67 88 l22 52 96 0 c158 0 281 43 368 128 74 73
85 105 91 264 6 135 7 137 36 168 25 26 82 53 94 44 2 -2 -2 -17 -8 -35z
m-1837 -236 c8 3 27 28 41 54 14 26 23 39 21 28 -11 -46 -70 -231 -76 -238 -4
-4 -15 14 -25 40 -10 26 -38 91 -62 143 l-44 95 65 -64 c42 -42 70 -62 80 -58z
m-608 -453 l27 -11 -37 -36 c-39 -40 -60 -97 -54 -149 3 -26 1 -31 -9 -22 -9
7 -17 7 -27 -1 -19 -16 -46 11 -47 47 0 23 -2 21 -14 -13 l-13 -40 -1 43 c-1
45 17 91 53 131 l21 24 -22 -12 c-63 -32 -97 -125 -68 -182 10 -19 14 -31 10
-27 -4 4 -18 3 -32 -3 -16 -6 -22 -6 -18 1 3 6 0 10 -8 10 -40 0 -47 127 -10
179 44 59 170 91 249 61z m1509 -9 c53 -24 112 -91 121 -137 8 -43 -14 -97
-47 -114 -19 -11 -20 -10 -12 12 11 32 8 110 -5 134 -9 15 -10 10 -6 -27 5
-34 1 -58 -14 -91 -19 -43 -22 -45 -68 -51 -27 -3 -50 -4 -51 -4 0 1 3 25 9
53 8 40 7 62 -5 100 l-15 49 -1 -72 c-1 -62 -4 -74 -22 -83 -22 -12 -95 -4
-105 11 -3 5 -10 6 -16 3 -7 -4 -8 -2 -4 4 4 7 2 12 -4 12 -7 0 -10 7 -7 15 4
8 2 17 -3 20 -6 4 -10 25 -10 49 0 49 31 103 70 123 38 19 148 16 195 -6z
m468 -178 c-7 -2 -21 -2 -30 0 -10 3 -4 5 12 5 17 0 24 -2 18 -5z"/>
<path d="M1937 2232 c58 -55 136 -98 198 -107 32 -5 27 -1 -27 18 -75 28 -125
56 -183 106 -22 18 -16 11 12 -17z"/>
<path d="M3045 2249 c-47 -31 -165 -90 -220 -110 -27 -10 -43 -18 -34 -18 46
-2 202 69 259 118 40 35 38 38 -5 10z"/>
<path d="M2188 2113 c6 -2 18 -2 25 0 6 3 1 5 -13 5 -14 0 -19 -2 -12 -5z"/>
<path d="M2491 1940 c-1 -74 12 -144 28 -154 5 -3 4 16 -1 42 -5 26 -13 79
-17 117 l-8 70 -2 -75z"/>
<path d="M2714 1849 c-36 -33 -59 -47 -64 -40 -9 15 -101 -83 -129 -138 l-22
-42 -35 42 c-49 59 -74 111 -74 155 0 47 -8 39 -18 -17 l-8 -44 -22 40 c-11
22 -21 33 -22 24 0 -21 53 -101 117 -176 31 -35 53 -71 53 -85 1 -22 2 -21 16
7 36 69 98 155 103 146 4 -6 33 19 65 55 124 139 135 159 40 73z"/>
<path d="M3496 1626 c28 -19 72 -59 98 -88 45 -52 62 -56 29 -8 -44 66 -95
108 -153 125 -16 4 -6 -6 26 -29z"/>
<path d="M3505 1423 c-77 -40 -170 -141 -195 -209 -9 -27 -9 -28 5 -9 85 112
126 152 225 218 31 22 5 22 -35 0z"/>
<path d="M2780 735 c-33 -19 -21 -19 21 0 19 8 27 14 19 14 -8 0 -26 -6 -40
-14z"/>
<path d="M4304 1240 c1 -52 -2 -115 -6 -140 -6 -36 -6 -41 3 -26 16 26 24 182
12 226 -8 28 -10 17 -9 -60z"/>
<path d="M1446 4478 c-20 -18 -29 -38 -37 -88 -19 -116 8 -348 52 -449 10 -24
16 -47 13 -52 -3 -5 20 -35 51 -67 54 -54 56 -55 50 -27 -3 17 -9 42 -12 56
-7 35 38 103 78 119 16 7 53 11 84 8 30 -3 55 -4 55 -2 0 1 -15 12 -34 23 -71
45 -146 20 -188 -62 l-21 -42 -24 55 c-39 87 -56 183 -50 285 6 110 11 125 46
125 28 0 94 -28 126 -54 18 -15 17 -15 -17 -1 -55 22 -70 17 -19 -6 25 -11 51
-17 58 -14 8 2 11 0 8 -5 -3 -6 -36 -10 -72 -10 -82 0 -79 -9 3 -11 69 -2 117
-14 135 -35 9 -10 -1 -9 -36 6 -26 11 -50 19 -52 17 -2 -2 29 -18 68 -36 74
-33 88 -48 28 -31 -44 13 -189 13 -209 0 -10 -7 8 -10 60 -10 41 0 93 -5 115
-12 l40 -11 -67 -13 c-73 -14 -97 -24 -119 -50 -10 -13 -3 -11 31 7 38 20 58
23 130 22 53 -1 108 -9 146 -21 l62 -19 -8 26 c-15 49 -23 66 -49 101 l-25 35
49 -40 50 -40 -43 52 c-110 133 -298 270 -394 288 -28 5 -40 2 -62 -17z"/>
<path d="M3333 4273 c9 -2 23 -2 30 0 6 3 -1 5 -18 5 -16 0 -22 -2 -12 -5z"/>
<path d="M2272 4102 c23 -27 61 -83 83 -125 22 -41 42 -74 44 -72 2 2 -15 42
-38 88 -41 83 -98 157 -121 157 -6 0 8 -22 32 -48z"/>
<path d="M2611 4037 c-55 -145 -60 -171 -16 -77 33 68 69 179 62 187 -2 1 -23
-48 -46 -110z"/>
<path d="M2431 4108 c-2 -10 39 -252 44 -263 15 -31 -7 160 -23 210 -11 33
-20 57 -21 53z"/>
<path d="M1613 4049 c-18 -5 -35 -15 -39 -21 -5 -8 -1 -9 12 -4 10 5 51 14 89
21 70 13 70 13 20 13 -27 0 -64 -4 -82 -9z"/>
<path d="M3287 4045 c39 -7 77 -16 84 -20 8 -5 10 -4 5 3 -9 16 -73 32 -121
31 -32 -1 -26 -3 32 -14z"/>
<path d="M2494 3810 c0 -58 1 -81 3 -52 2 28 2 76 0 105 -2 28 -3 5 -3 -53z"/>
<path d="M2141 3861 c49 -41 113 -126 155 -203 40 -75 44 -71 9 9 -35 78 -93
152 -151 191 -49 33 -49 33 -13 3z"/>
<path d="M1917 3846 c-26 -7 -51 -17 -55 -21 -4 -5 2 -5 13 0 37 14 110 17
151 6 23 -6 63 -30 89 -53 26 -23 43 -34 37 -23 -39 74 -145 115 -235 91z"/>
<path d="M2919 3846 c-80 -21 -154 -90 -195 -181 -38 -86 -37 -103 3 -31 73
134 168 205 279 207 48 1 53 3 29 9 -43 11 -64 10 -116 -4z"/>
<path d="M2655 3760 c-30 -47 -45 -84 -45 -108 0 -9 14 14 30 51 16 38 34 75
41 83 6 8 9 14 5 14 -3 0 -17 -18 -31 -40z"/>
<path d="M1501 3564 c0 -11 3 -14 6 -6 3 7 2 16 -1 19 -3 4 -6 -2 -5 -13z"/>
<path d="M3258 3563 c6 -2 18 -2 25 0 6 3 1 5 -13 5 -14 0 -19 -2 -12 -5z"/>
<path d="M1828 2983 c6 -2 18 -2 25 0 6 3 1 5 -13 5 -14 0 -19 -2 -12 -5z"/>
<path d="M2150 2910 c0 -5 7 -10 15 -10 8 0 15 5 15 10 0 6 -7 10 -15 10 -8 0
-15 -4 -15 -10z"/>
<path d="M2225 2910 c-3 -5 1 -10 10 -10 9 0 13 5 10 10 -3 6 -8 10 -10 10 -2
0 -7 -4 -10 -10z"/>
<path d="M2755 2910 c-3 -5 1 -10 10 -10 9 0 13 5 10 10 -3 6 -8 10 -10 10 -2
0 -7 -4 -10 -10z"/>
<path d="M2830 2910 c0 -5 7 -7 15 -4 8 4 15 8 15 10 0 2 -7 4 -15 4 -8 0 -15
-4 -15 -10z"/>
<path d="M2765 2830 c-3 -5 1 -10 10 -10 9 0 13 5 10 10 -3 6 -8 10 -10 10 -2
0 -7 -4 -10 -10z"/>
<path d="M2160 2820 c0 -5 5 -10 10 -10 6 0 10 5 10 10 0 6 -4 10 -10 10 -5 0
-10 -4 -10 -10z"/>
<path d="M2230 2820 c0 -5 5 -10 10 -10 6 0 10 5 10 10 0 6 -4 10 -10 10 -5 0
-10 -4 -10 -10z"/>
<path d="M1099 2743 c-13 -16 -12 -17 4 -4 9 7 17 15 17 17 0 8 -8 3 -21 -13z"/>
</g>
</svg>