<svg version="1.0" xmlns="http://www.w3.org/2000/svg"
 width="100%" height="100%" viewBox="0 0 512 512"
 preserveAspectRatio="xMidYMid meet">
<g transform="translate(-64, 586) scale(0.13,-0.13)" stroke="none">
<path d="M2500 3995 c-25 -8 -54 -19 -65 -24 -11 -6 -58 -20 -104 -31 -46 -12
-107 -33 -135 -47 -44 -22 -72 -42 -176 -122 -22 -17 -31 -18 -76 -9 -96 21
-140 -3 -371 -200 -54 -46 -129 -104 -168 -129 -128 -83 -155 -120 -155 -205
1 -116 71 -227 288 -452 169 -176 196 -196 242 -179 17 6 30 9 30 6 0 -2 -15
-32 -34 -66 -42 -77 -89 -223 -81 -255 9 -35 -92 -249 -121 -256 -12 -3 -42
-29 -67 -56 -129 -144 -116 -354 34 -524 l31 -36 -31 -26 c-44 -36 -61 -74
-61 -132 0 -90 60 -122 225 -123 86 0 95 -2 95 -19 0 -10 11 -32 25 -48 33
-40 128 -62 263 -62 168 0 264 28 292 86 l15 30 77 -4 c103 -6 162 4 197 34
32 27 75 32 136 15 22 -6 61 -11 86 -11 42 0 48 -3 53 -25 12 -46 139 -74 254
-56 56 9 72 15 96 42 27 31 32 32 110 34 87 1 137 19 156 56 12 22 5 95 -11
104 -4 3 0 28 11 56 35 88 19 220 -40 325 l-29 51 43 105 c24 58 64 145 90
194 51 96 53 122 11 150 -62 41 -128 -21 -210 -199 -27 -59 -52 -107 -56 -107
-4 0 -17 8 -29 18 -19 15 -20 21 -10 47 7 17 14 72 16 124 4 74 9 100 25 123
50 69 93 379 61 435 -15 26 -51 38 -88 29 -14 -4 -65 -45 -113 -91 -56 -55
-96 -85 -110 -85 -21 0 -22 3 -15 48 4 26 14 58 24 72 31 45 34 64 40 215 l5
150 12 -64 c14 -73 40 -130 66 -145 27 -16 43 12 57 97 14 83 33 124 97 210
87 118 133 236 133 339 0 99 -31 137 -175 213 -49 26 -125 72 -169 102 -110
77 -154 95 -226 92 -51 -2 -64 1 -94 25 -47 35 -143 86 -165 86 -12 0 -10 5 8
19 67 51 -98 93 -219 56z m162 -13 c9 -4 -24 -7 -73 -7 -50 0 -80 3 -67 6 31
9 119 9 140 1z m-41 -56 c-9 -11 -6 -16 17 -24 37 -13 73 -60 122 -157 20 -41
41 -71 45 -67 5 4 6 0 3 -9 -4 -9 1 -45 9 -80 22 -92 12 -221 -23 -324 -23
-66 -28 -97 -29 -180 0 -120 15 -156 94 -225 126 -111 181 -164 178 -174 -2
-6 5 -18 16 -26 29 -24 34 -97 9 -152 -55 -125 -192 -138 -320 -31 -18 15 -20
25 -16 58 5 32 12 43 37 55 17 8 35 24 41 35 6 10 16 25 23 32 22 24 26 56 9
68 -8 7 -14 14 -12 16 3 2 -39 3 -92 1 -75 -2 -93 0 -78 9 10 6 47 10 87 7 37
-2 63 0 56 4 -7 4 -43 8 -80 8 -104 0 -151 -33 -128 -92 12 -31 74 -86 107
-94 23 -6 25 -10 19 -43 -18 -97 -210 -194 -349 -175 -42 5 -59 15 -103 57
-59 55 -70 57 -22 2 17 -19 26 -35 20 -35 -19 0 -91 71 -97 96 -7 26 -24 33
-24 9 0 -20 0 -20 -87 20 -89 41 -132 72 -169 120 l-26 35 23 73 c13 39 23 79
24 87 0 8 4 41 9 73 8 57 9 57 42 57 28 0 34 4 34 20 0 49 99 187 124 173 6
-3 8 -3 4 2 -4 4 8 26 27 48 47 55 52 89 25 197 -17 68 -20 103 -15 148 8 71
-8 111 -55 139 -17 10 -28 23 -26 29 3 7 -6 9 -22 7 -24 -4 -21 1 26 45 111
104 294 168 486 171 57 1 67 -1 57 -13z m168 -201 c0 -5 -6 1 -14 15 -8 14
-14 30 -14 35 0 6 6 -1 14 -15 8 -14 14 -29 14 -35z m298 -42 c19 -21 49 -69
68 -108 53 -112 65 -188 63 -392 l-1 -178 -8 155 c-9 190 -14 233 -39 313 -20
65 -81 170 -128 220 -22 23 -23 27 -8 27 10 0 34 -17 53 -37z m-1375 -123
c-93 -89 -162 -132 -231 -144 -19 -3 -33 -4 -30 -2 95 86 316 235 349 235 3 0
-37 -40 -88 -89z m1664 10 c40 -22 83 -53 97 -70 33 -38 41 -99 24 -170 l-13
-55 0 92 c1 88 0 93 -29 123 -16 17 -57 46 -90 65 -86 49 -94 55 -75 55 8 0
47 -18 86 -40z m-85 -22 c15 -28 5 -21 -21 15 -15 20 -17 27 -6 18 9 -8 22
-23 27 -33z m-1337 23 c3 -4 -6 -23 -20 -42 -58 -78 -59 -81 -60 -384 0 -191
-4 -290 -12 -310 l-12 -30 6 35 c15 97 15 178 0 312 -17 149 -16 203 9 290 16
56 31 86 58 116 23 25 24 25 31 13z m-414 -205 c-17 -32 -30 -71 -31 -85 0
-14 -4 -35 -9 -46 -15 -35 -12 36 4 88 11 38 55 109 63 103 1 -1 -11 -28 -27
-60z m-243 -108 c-3 -8 -6 -5 -6 6 -1 11 2 17 5 13 3 -3 4 -12 1 -19z m1756
-7 c9 -9 8 -11 -6 -5 -32 12 -88 -7 -128 -43 -42 -38 -47 -37 -24 7 23 45 54
62 103 57 24 -3 49 -10 55 -16z m48 -108 c9 -10 19 -25 23 -33 4 -8 -1 -4 -12
9 -10 13 -30 32 -43 43 -18 15 -19 17 -4 10 11 -6 27 -18 36 -29z m49 -88 c0
-5 -5 -3 -10 5 -5 8 -10 20 -10 25 0 6 5 3 10 -5 5 -8 10 -19 10 -25z m-156
-8 c12 -20 -7 -39 -34 -34 -20 3 -26 37 -8 48 17 11 29 7 42 -14z m72 -126
c-9 -16 -20 -32 -25 -35 -5 -3 0 11 10 31 11 21 20 49 20 63 l2 25 4 -27 c2
-15 -3 -40 -11 -57z m71 -171 c-2 -36 -9 -78 -16 -94 l-12 -30 -20 35 c-12 19
-32 46 -46 60 l-24 27 30 10 c49 17 71 64 72 157 l2 80 9 -90 c5 -49 7 -119 5
-155z m140 155 c3 -29 2 -66 -2 -82 -7 -26 -8 -26 -15 -8 -13 31 -12 184 1
162 6 -10 13 -42 16 -72z m-246 16 c-17 -31 -65 -53 -93 -42 -21 9 -20 10 10
10 23 1 42 10 60 29 31 32 38 33 23 3z m381 -326 c21 -73 -31 -346 -74 -392
l-23 -24 -23 28 -24 28 22 -43 c30 -61 24 -81 -15 -52 -19 14 -16 10 8 -12 30
-27 37 -40 37 -69 0 -34 -2 -36 -27 -31 -16 2 -39 15 -53 28 -37 33 -156 84
-199 84 -58 0 -102 -64 -100 -144 0 -30 1 -30 12 -8 7 17 17 22 31 19 12 -3
37 -8 56 -11 l35 -7 -32 15 c-18 8 -33 20 -33 27 0 9 4 9 14 0 26 -21 69 -9
86 24 8 17 16 32 18 34 1 3 15 -7 30 -21 35 -33 104 -68 135 -68 21 0 23 -4
19 -26 -5 -28 -6 -28 -83 1 -54 21 -121 15 -159 -15 l-25 -20 55 0 c31 0 61 5
67 11 9 9 16 7 29 -5 21 -22 63 -38 80 -32 24 9 4 -21 -34 -51 -50 -40 -100
-65 -114 -57 -6 4 -8 3 -4 -4 4 -6 -1 -11 -11 -12 -10 0 -42 -3 -72 -6 -47 -5
-53 -4 -48 10 5 12 0 16 -18 16 -37 0 -104 30 -115 51 -8 15 -5 22 19 40 17
12 28 26 25 31 -7 11 -101 10 -109 -1 -3 -5 6 -18 20 -29 14 -11 25 -27 25
-35 0 -35 -96 -71 -125 -47 -12 10 -20 9 -40 -4 -14 -9 -25 -19 -25 -22 0 -4
12 1 26 11 21 13 28 14 41 3 19 -15 67 -11 106 9 26 13 33 13 68 -1 22 -9 51
-16 66 -16 26 0 26 0 7 -21 -56 -62 -159 -64 -196 -4 -5 8 -27 10 -61 7 -34
-3 -57 0 -61 7 -15 24 -61 10 -91 -27 -29 -37 -29 -37 -2 -13 27 24 57 36 57
23 0 -4 30 -8 68 -10 51 -3 75 -9 103 -28 49 -33 126 -34 166 0 23 19 44 24
123 30 123 9 119 8 117 18 -1 4 17 19 40 33 l41 25 12 -34 c6 -18 10 -63 9
-100 -2 -57 1 -70 21 -91 31 -33 40 -22 47 53 7 77 -1 121 -32 166 -31 46 -31
48 0 34 14 -6 25 -15 25 -20 0 -5 5 -6 12 -2 6 4 8 3 4 -4 -3 -6 3 -28 14 -49
11 -22 25 -66 31 -99 11 -58 8 -210 -5 -249 -4 -11 17 26 45 83 l52 102 -16
42 c-9 23 -15 43 -13 45 4 4 37 -79 57 -142 31 -97 7 -244 -39 -245 -13 -1
-10 -6 11 -21 31 -24 37 -68 11 -94 -21 -20 -37 -15 -45 16 -6 23 -6 23 -10
-6 -4 -27 -8 -30 -46 -33 l-43 -3 0 46 c0 42 3 47 33 60 l32 14 -29 1 c-44 0
-107 32 -100 50 16 44 34 129 34 161 0 46 -32 89 -67 89 l-25 0 31 -35 c19
-22 31 -47 31 -64 0 -44 -40 -167 -50 -151 -12 20 -11 -89 2 -142 9 -35 9 -54
0 -73 -16 -35 -32 -31 -33 8 l-1 32 -8 -30 c-4 -16 -8 -26 -9 -21 0 6 -7 2
-14 -8 -10 -13 -24 -17 -57 -14 l-45 3 1 49 c0 42 -1 46 -13 30 -7 -10 -13
-33 -13 -51 0 -37 -13 -42 -48 -17 -12 8 -22 12 -22 8 0 -3 -7 -1 -15 6 -21
17 -19 59 5 97 10 18 22 56 25 85 4 29 8 64 11 78 3 17 2 21 -4 12 -6 -9 -13
0 -22 32 -14 51 -10 60 34 87 38 23 26 25 -20 3 -43 -21 -51 -49 -30 -112 11
-33 14 -63 10 -91 -6 -40 -9 -42 -33 -36 -14 3 -38 15 -53 25 -19 14 -28 16
-31 7 -3 -7 -46 30 -101 88 -53 55 -96 96 -96 91 0 -6 -7 -1 -15 10 -8 10 -15
14 -15 8 0 -5 14 -23 30 -39 23 -22 29 -36 25 -52 -3 -13 -1 -23 5 -23 6 0 5
-11 -4 -28 -8 -16 -20 -51 -26 -78 -17 -74 -40 -120 -65 -134 -32 -17 -60 -9
-59 17 0 12 -3 20 -8 17 -4 -3 -8 -16 -8 -30 0 -23 -3 -25 -42 -22 -42 3 -43
3 -43 41 0 32 -2 35 -12 20 -7 -9 -13 -23 -13 -30 0 -20 -28 -15 -40 7 -15 29
-4 56 30 77 16 9 35 31 41 47 6 17 15 108 19 201 4 94 13 184 19 200 7 17 28
46 48 66 32 34 33 38 16 43 -11 3 -42 26 -68 50 l-49 44 39 1 c22 0 65 7 95
14 l55 14 -38 8 c-34 7 -58 5 -142 -7 -11 -2 -20 3 -22 12 -4 19 73 74 89 64
6 -4 8 -3 5 3 -3 5 7 19 23 31 l28 21 10 -29 c6 -16 22 -36 35 -45 24 -15 28
-15 59 0 l33 16 -24 -21 c-26 -22 -21 -26 11 -9 18 9 24 8 35 -7 12 -17 13
-17 13 3 0 32 -21 86 -43 111 -32 34 -83 29 -173 -18 -42 -22 -85 -40 -95 -40
-24 0 -24 35 0 110 l18 55 -28 26 c-16 15 -29 33 -29 41 0 7 -3 24 -7 38 -6
23 -5 24 13 10 10 -8 15 -10 11 -5 -5 5 16 14 50 21 55 11 59 11 76 -9 l17
-22 19 23 c11 12 21 26 23 31 2 5 17 6 35 4 21 -4 33 -12 37 -27 3 -11 17 -39
31 -61 l26 -40 -4 68 c-6 91 5 89 64 -14 l31 -54 -6 57 c-3 31 -9 65 -12 75
-6 14 -4 15 6 6 7 -6 15 -49 19 -96 8 -101 21 -126 21 -41 0 72 10 134 21 134
4 0 5 -40 2 -88 -7 -111 8 -152 25 -68 14 71 52 136 100 173 20 15 46 38 57
50 16 17 25 20 43 12 19 -7 22 -14 16 -31 -4 -13 -9 -30 -11 -38 -3 -8 5 1 18
20 l23 35 6 -25 c6 -24 7 -24 13 9 4 19 29 59 59 94 101 115 172 146 190 82z
m-1467 -99 c44 -43 147 -107 163 -101 7 2 10 0 7 -5 -7 -11 65 -49 82 -43 6 2
15 -1 19 -8 5 -8 3 -10 -7 -4 -9 5 -11 5 -4 -2 22 -21 105 -63 105 -53 0 6
-19 20 -42 30 -24 11 -39 20 -35 20 4 0 3 9 -3 19 -10 19 -9 19 17 5 16 -7 37
-14 48 -14 34 0 62 -27 79 -77 9 -25 23 -55 33 -65 14 -16 14 -22 3 -46 -21
-45 -29 -114 -18 -167 6 -27 11 -58 11 -67 1 -9 4 -15 7 -13 3 2 11 -5 18 -15
10 -16 7 -20 -16 -29 l-27 -11 30 5 c17 3 37 1 45 -5 13 -8 13 -10 -1 -10 -24
0 -33 -30 -13 -45 15 -11 15 -14 -2 -41 -16 -26 -13 -25 26 11 l44 40 -41 -52
c-39 -50 -41 -58 -49 -145 -4 -51 -9 -85 -12 -75 -3 15 -14 21 -34 18 -5 0 -8
4 -8 9 0 5 -4 9 -9 7 -6 -1 -23 7 -40 18 -27 18 -37 33 -46 74 -2 8 -6 25 -9
37 -5 17 3 34 26 61 l33 37 -37 -21 -38 -22 0 34 c0 69 -18 42 -29 -43 -29
-230 2 -405 88 -486 41 -40 55 -88 36 -132 -20 -48 -30 -42 -30 16 0 35 -6 55
-19 67 -18 17 -18 17 -7 -4 35 -68 -12 -141 -86 -134 -8 1 -13 15 -13 37 0 38
-26 104 -41 104 -6 0 -5 -9 1 -21 14 -24 16 -108 3 -119 -9 -10 -75 -15 -145
-12 -60 3 -82 31 -81 105 1 41 -1 47 -10 31 -6 -10 -11 -42 -11 -71 -1 -57
-10 -64 -43 -33 -47 43 -37 106 28 164 44 40 43 47 -3 14 l-31 -22 9 30 c15
48 10 203 -9 274 -10 36 -32 102 -48 147 -21 56 -30 94 -27 119 4 32 3 34 -9
18 -7 -10 -13 -23 -14 -28 0 -6 -5 3 -10 19 -11 36 -4 60 29 103 17 22 22 36
15 40 -15 10 -43 161 -43 234 0 41 7 72 22 101 l21 42 8 -27 c12 -45 46 -92
81 -112 l33 -20 -35 43 c-48 58 -64 90 -64 129 l0 32 -44 -42 -45 -43 7 35 c3
19 32 86 63 149 l57 114 31 -39 c16 -21 44 -52 60 -68z m181 -77 c24 -6 44
-15 44 -19 0 -5 -15 -4 -32 1 -18 6 -37 11 -43 13 -5 1 -19 8 -30 15 -18 11
-18 12 -1 7 10 -4 38 -11 62 -17z m82 -54 c-3 -3 -9 2 -12 12 -6 14 -5 15 5 6
7 -7 10 -15 7 -18z m-23 -5 c3 -6 -1 -7 -9 -4 -18 7 -21 14 -7 14 6 0 13 -4
16 -10z m1436 -200 c26 -15 24 -29 -14 -93 -18 -30 -48 -89 -67 -132 l-34 -78
-13 39 c-7 21 -20 45 -29 55 -14 16 -13 23 21 91 39 77 79 128 103 128 7 0 22
-5 33 -10z m-601 -70 c0 -11 -7 -20 -15 -20 -8 0 -15 9 -15 20 0 11 7 20 15
20 8 0 15 -9 15 -20z m-330 -15 c0 -8 -6 -15 -14 -15 -17 0 -28 14 -19 24 12
12 33 6 33 -9z m-1156 -152 c-48 -82 -67 -126 -74 -178 l-8 -50 -1 42 c-1 52
29 137 69 192 41 56 48 52 14 -6z m135 -59 c23 -20 55 -62 70 -93 45 -89 102
-259 84 -248 -4 3 -17 -7 -27 -22 -11 -14 -13 -20 -6 -13 8 6 22 12 32 12 16
0 18 -10 18 -85 l0 -84 -35 23 c-19 13 -58 30 -87 36 -74 18 -100 33 -146 86
-62 69 -82 119 -83 201 -1 93 16 150 56 190 43 43 71 42 124 -3z m1787 -109
l14 -30 -17 25 c-10 13 -31 40 -48 60 l-29 35 33 -30 c18 -16 39 -43 47 -60z
m-1199 -207 c-2 -24 -4 -5 -4 42 0 47 2 66 4 43 2 -24 2 -62 0 -85z m-514
-178 c30 -11 63 -30 74 -43 18 -20 19 -26 8 -57 l-12 -35 -8 35 c-7 35 -31 70
-46 70 -15 0 -97 -60 -103 -76 -3 -9 -6 -31 -6 -50 0 -56 -34 -44 -59 21 -11
30 -11 30 -7 -8 6 -45 -13 -47 -29 -3 -12 35 7 72 54 103 37 25 36 29 -1 12
-27 -12 -68 -68 -68 -92 0 -22 -17 -30 -24 -11 -26 68 49 154 136 154 20 0 61
-9 91 -20z m-27 -125 c-23 -71 -39 -79 -44 -22 -2 28 3 42 22 62 14 14 29 25
34 25 4 0 -1 -29 -12 -65z m1098 7 c3 -5 -1 -9 -9 -9 -8 0 -15 4 -15 9 0 4 4
8 9 8 6 0 12 -4 15 -8z m12 -49 c-10 -10 -19 5 -10 18 6 11 8 11 12 0 2 -7 1
-15 -2 -18z m31 5 c-3 -8 -6 -5 -6 6 -1 11 2 17 5 13 3 -3 4 -12 1 -19z"/>
<path d="M2741 3614 c0 -11 3 -14 6 -6 3 7 2 16 -1 19 -3 4 -6 -2 -5 -13z"/>
<path d="M2751 3564 c0 -11 3 -14 6 -6 3 7 2 16 -1 19 -3 4 -6 -2 -5 -13z"/>
<path d="M2761 3514 c0 -11 3 -14 6 -6 3 7 2 16 -1 19 -3 4 -6 -2 -5 -13z"/>
<path d="M2772 3404 c-1 -45 -9 -101 -17 -124 -17 -49 -18 -53 -7 -46 17 10
33 113 30 181 l-4 70 -2 -81z"/>
<path d="M2482 3365 c20 -35 20 -38 3 -25 -17 14 -18 13 -12 -10 24 -87 15
-237 -18 -317 -18 -43 -27 -38 -27 14 0 71 -44 123 -104 123 -39 0 -96 -19
-89 -30 3 -4 -5 -6 -17 -2 -13 3 -19 1 -15 -5 4 -6 -9 -20 -29 -32 -41 -24
-48 -26 -38 -8 3 6 -17 -12 -46 -40 -29 -29 -62 -53 -74 -54 -19 -1 -18 -2 4
-8 20 -6 26 -15 31 -51 18 -126 100 -203 197 -185 45 8 211 114 251 161 46 52
64 127 59 253 -4 113 -20 163 -74 227 l-24 29 22 -40z m-352 -309 c0 -2 -8
-10 -17 -17 -16 -13 -17 -12 -4 4 13 16 21 21 21 13z m175 -21 c0 -13 -8 -21
-24 -23 -29 -4 -44 9 -35 32 10 25 59 18 59 -9z m64 -127 c-12 -30 -44 -58
-67 -58 -7 0 3 16 23 35 23 24 37 49 42 78 l8 42 3 -34 c2 -18 -2 -47 -9 -63z
m-202 -31 c25 -26 25 -28 5 -16 -37 23 -65 75 -56 107 7 25 8 24 15 -17 5 -26
20 -57 36 -74z"/>
<path d="M2723 3315 c0 -22 2 -30 4 -17 2 12 2 30 0 40 -3 9 -5 -1 -4 -23z"/>
<path d="M2227 3216 c-27 -7 -54 -19 -60 -25 -7 -7 3 -6 25 3 62 26 136 21
191 -14 50 -31 54 -31 36 2 -23 44 -103 58 -192 34z"/>
<path d="M2234 2649 c-51 -15 -94 -61 -93 -101 l1 -33 10 30 c22 62 65 94 142
105 48 7 49 8 11 8 -22 0 -54 -4 -71 -9z"/>
<path d="M2968 2613 c7 -3 16 -2 19 1 4 3 -2 6 -13 5 -11 0 -14 -3 -6 -6z"/>
<path d="M2968 2533 c7 -3 16 -2 19 1 4 3 -2 6 -13 5 -11 0 -14 -3 -6 -6z"/>
<path d="M3000 2526 c0 -2 8 -10 18 -17 15 -13 16 -12 3 4 -13 16 -21 21 -21
13z"/>
<path d="M3238 2448 c-29 -45 -42 -96 -32 -125 13 -38 25 -35 40 10 12 34 12
37 -7 37 -24 0 -24 11 1 60 22 44 21 53 -2 18z"/>
<path d="M2479 2323 c-1 -5 -1 -16 0 -25 1 -10 -3 -18 -8 -18 -6 0 -11 -7 -11
-15 0 -24 24 -17 55 15 25 26 27 32 15 40 -18 12 -50 13 -51 3z"/>
<path d="M2975 2257 c-8 -20 3 -107 13 -107 4 0 12 8 18 18 9 13 7 28 -6 62
-14 35 -20 41 -25 27z"/>
<path d="M2680 2205 c0 -39 19 -87 31 -79 12 7 11 71 -1 95 -16 30 -30 23 -30
-16z"/>
<path d="M3035 2210 c-3 -6 1 -7 9 -4 18 7 21 14 7 14 -6 0 -13 -4 -16 -10z"/>
<path d="M3120 2038 c-15 -21 -17 -28 -6 -19 16 13 41 51 33 51 -2 0 -14 -15
-27 -32z"/>
<path d="M2560 2000 c26 -21 87 -37 97 -26 4 3 -5 6 -18 6 -14 0 -36 8 -49 17
-35 24 -61 26 -30 3z"/>
<path d="M3148 1883 c7 -3 16 -2 19 1 4 3 -2 6 -13 5 -11 0 -14 -3 -6 -6z"/>
<path d="M3188 1873 c7 -3 16 -2 19 1 4 3 -2 6 -13 5 -11 0 -14 -3 -6 -6z"/>
<path d="M2644 1854 c-18 -14 -18 -14 6 -3 31 14 36 19 24 19 -6 0 -19 -7 -30
-16z"/>
<path d="M3021 1866 c2 -2 15 -9 29 -15 24 -11 24 -11 6 3 -16 13 -49 24 -35
12z"/>
<path d="M2560 1655 c45 -63 123 -126 138 -111 3 3 0 6 -7 6 -7 0 -43 28 -79
63 -37 34 -60 53 -52 42z"/>
<path d="M2650 1646 c0 -2 8 -10 18 -17 15 -13 16 -12 3 4 -13 16 -21 21 -21
13z"/>
<path d="M3026 1580 c-52 -39 -57 -45 -21 -27 26 13 76 58 64 57 -2 0 -21 -14
-43 -30z"/>
<path d="M2760 1531 c5 -11 25 -30 42 -42 32 -21 31 -21 -7 19 -44 47 -51 51
-35 23z"/>
<path d="M2940 1508 c-11 -18 -20 -40 -20 -48 1 -8 7 0 16 19 8 19 19 41 26
48 6 7 8 13 4 13 -3 0 -15 -15 -26 -32z"/>
<path d="M2876 1475 c4 -16 11 -34 16 -40 7 -7 8 -1 3 15 -12 40 -26 59 -19
25z"/>
<path d="M3267 1446 c-4 -32 -5 -61 -3 -63 7 -7 19 82 14 103 -2 11 -7 -8 -11
-40z"/>
<path d="M3083 1293 c15 -2 37 -2 50 0 12 2 0 4 -28 4 -27 0 -38 -2 -22 -4z"/>
<path d="M2992 1160 c0 -14 2 -19 5 -12 2 6 2 18 0 25 -3 6 -5 1 -5 -13z"/>
<path d="M2320 2271 c0 -6 4 -13 10 -16 6 -3 7 1 4 9 -7 18 -14 21 -14 7z"/>
<path d="M1909 2216 c17 -21 89 -58 146 -76 113 -36 239 -137 262 -210 l11
-35 1 30 c2 64 -81 153 -203 217 -45 23 -75 34 -67 25 13 -17 -51 8 -133 50
-29 15 -30 15 -17 -1z"/>
<path d="M2158 1323 c7 -3 16 -2 19 1 4 3 -2 6 -13 5 -11 0 -14 -3 -6 -6z"/>
<path d="M3652 2704 c-24 -17 -30 -62 -10 -82 16 -16 63 -15 75 1 23 29 23 48
-2 73 -28 28 -33 29 -63 8z"/>
<path d="M3600 2606 c0 -16 58 -52 68 -42 3 3 3 7 1 9 -2 1 -19 12 -36 25 -26
18 -33 19 -33 8z"/>
</g>
</svg>