<svg version="1.0" xmlns="http://www.w3.org/2000/svg"
 width="100%" height="100%" viewBox="0 0 512 512"
 preserveAspectRatio="xMidYMid meet">
<g transform="translate(0, 512) scale(0.1,-0.1)"
 stroke="none">
<path d="M3709 4557 c-145 -60 -300 -169 -419 -294 -83 -87 -158 -181 -184
-231 l-17 -32 -47 24 c-118 60 -271 85 -339 57 -37 -15 -46 -35 -9 -22 33 13
151 -4 241 -34 91 -30 162 -65 230 -112 50 -35 25 -7 -28 32 l-28 20 38 62
c40 65 227 283 244 283 15 0 10 -16 -11 -35 -21 -19 -70 -98 -70 -112 0 -4 17
19 38 52 21 33 67 87 103 120 35 32 56 53 46 46 -9 -8 -20 -11 -23 -9 -5 6 48
48 61 48 3 0 3 -6 -1 -12 -4 -8 -3 -10 2 -5 5 5 9 14 9 19 0 6 6 13 14 16 9 3
11 0 6 -8 -5 -9 -4 -11 4 -6 6 4 9 12 5 17 -3 5 34 28 83 52 77 37 97 42 156
42 63 0 71 -2 93 -28 47 -55 59 -123 58 -342 0 -172 -3 -211 -22 -278 -26 -95
-92 -238 -134 -292 -17 -22 -35 -45 -40 -51 -6 -9 7 -11 46 -9 l55 2 -20 -28
c-11 -16 -34 -38 -51 -50 l-30 -22 27 -14 c15 -8 25 -17 22 -19 -3 -3 -35 -12
-72 -19 -37 -8 -81 -23 -99 -35 -39 -25 -30 -25 64 0 41 11 79 20 84 20 22 0
-60 -50 -122 -76 -37 -15 -74 -32 -82 -38 -8 -6 1 7 20 28 l35 39 -33 -19
c-36 -20 -82 -72 -107 -121 -15 -28 -15 -28 -16 27 0 30 -4 75 -8 100 -6 37
-8 22 -14 -79 -4 -68 -7 -184 -7 -256 0 -129 -9 -184 -36 -216 -20 -22 -17
-31 6 -24 29 9 24 -10 -10 -38 -33 -28 -39 -43 -14 -33 9 3 2 -11 -17 -35 -33
-42 -176 -156 -184 -147 -3 3 6 25 19 49 31 55 40 106 27 142 -17 43 -26 32
-26 -32 0 -45 -5 -67 -21 -88 -50 -68 -137 -95 -236 -73 -29 7 -105 37 -168
68 -108 54 -115 59 -118 89 -3 31 -1 33 37 39 84 13 151 82 159 163 2 27 -1
58 -8 70 -41 78 -304 92 -381 20 -28 -26 -30 -32 -23 -76 3 -26 13 -60 20 -74
19 -38 92 -88 136 -96 35 -5 38 -8 38 -38 0 -31 -4 -34 -122 -93 -68 -34 -144
-67 -170 -73 -127 -30 -242 41 -242 152 0 44 -2 49 -13 33 -29 -40 -3 -145 48
-190 13 -12 45 -29 72 -39 73 -27 125 -16 277 59 73 37 142 66 154 66 20 0
268 -118 274 -131 1 -3 15 -4 30 -2 19 3 23 2 14 -5 -30 -20 95 1 137 24 55
30 60 30 30 -2 -36 -39 -98 -67 -151 -68 -27 -1 -48 -4 -48 -7 0 -4 -21 -16
-47 -27 -163 -69 -338 -71 -468 -4 -38 19 -66 26 -116 27 -56 1 -74 6 -112 30
-145 96 -219 162 -259 230 -32 54 -29 22 4 -35 19 -33 17 -33 -31 14 -36 36
-47 52 -38 58 12 9 10 12 -40 46 -16 11 -15 11 5 2 26 -13 26 -11 7 60 -9 30
-19 105 -25 165 -5 61 -15 166 -22 235 l-13 125 -3 -84 -3 -85 -22 34 c-12 18
-27 42 -33 52 -22 38 -66 76 -81 71 -8 -3 -13 0 -11 8 2 7 -33 29 -89 54 -101
46 -143 71 -143 85 0 8 55 -5 143 -35 58 -20 44 -8 -35 30 -69 34 -70 35 -44
45 15 5 43 10 62 10 19 0 34 3 34 8 -1 4 -23 18 -51 31 -88 41 -170 166 -211
321 -25 96 -36 362 -19 465 23 137 78 192 180 180 75 -9 188 -47 309 -105 69
-33 101 -53 96 -61 -4 -8 -3 -9 5 -5 14 9 43 -12 36 -24 -3 -5 0 -12 6 -16 8
-4 9 -3 5 4 -4 7 -2 12 4 12 6 0 57 -46 113 -102 69 -69 113 -123 135 -165
l32 -62 67 31 c37 16 103 39 146 50 63 16 86 27 106 51 28 33 98 87 114 87 5
0 -10 -16 -35 -34 -42 -32 -58 -54 -58 -77 0 -4 20 11 44 36 41 41 123 92 132
82 2 -2 -5 -16 -17 -31 -12 -15 -20 -28 -18 -30 8 -6 199 50 193 57 -11 10
-78 9 -111 -3 -27 -10 -27 -9 7 20 l34 30 -36 0 c-97 0 -194 -37 -253 -96 -27
-27 -52 -39 -108 -53 -39 -11 -98 -31 -131 -45 -32 -14 -60 -26 -61 -26 -1 0
-20 29 -41 65 -75 129 -286 305 -466 389 -344 161 -479 69 -480 -329 -1 -217
31 -355 131 -552 28 -57 51 -105 51 -108 0 -2 -14 -2 -31 2 -29 6 -31 4 -24
-18 33 -107 106 -180 235 -234 96 -40 116 -59 154 -138 30 -64 34 -85 40 -182
3 -60 9 -120 12 -132 5 -18 1 -22 -21 -25 l-27 -3 50 -71 c50 -70 121 -140
174 -172 l27 -16 -58 -62 c-64 -68 -121 -170 -121 -216 0 -16 4 -27 9 -23 6 3
-1 -21 -14 -52 -30 -77 -48 -168 -41 -212 4 -24 -2 -57 -19 -104 -14 -37 -30
-109 -35 -159 -6 -51 -12 -94 -14 -96 -2 -2 -31 -7 -64 -12 -154 -21 -224
-127 -201 -300 18 -127 110 -266 252 -380 31 -24 55 -45 53 -47 -1 -1 -29 2
-61 7 -105 17 -174 -8 -223 -80 -20 -30 -23 -44 -19 -104 4 -60 7 -71 26 -78
12 -4 19 -12 16 -18 -3 -5 -2 -10 4 -10 5 0 11 5 13 12 3 8 9 8 19 2 14 -9 19
-10 77 -13 21 0 34 -7 38 -18 3 -10 9 -25 14 -34 4 -8 4 -23 -1 -32 -12 -21 8
-32 91 -45 122 -20 223 -24 305 -12 44 7 88 12 98 12 9 -1 17 3 17 8 0 4 9 6
20 3 12 -3 20 0 20 7 0 7 11 25 25 42 14 16 25 40 25 53 0 13 4 26 8 29 21 13
158 28 272 30 101 3 136 -1 179 -15 30 -11 62 -19 73 -19 10 0 18 -7 18 -16 0
-20 52 -114 63 -114 5 0 5 6 2 13 -4 6 0 5 7 -5 17 -20 53 -27 188 -34 107 -6
262 9 268 26 2 5 9 7 17 4 15 -6 65 71 65 99 0 13 10 17 48 18 55 1 158 16
123 18 l-24 1 20 22 c29 32 36 77 22 132 -11 46 -58 108 -89 118 -11 3 -3 18
31 59 61 72 84 113 103 180 9 31 25 64 35 73 35 32 71 131 86 238 22 158 32
182 142 326 34 45 60 82 57 82 -25 0 -151 -87 -204 -140 -57 -57 -130 -168
-130 -198 0 -6 -4 -23 -10 -37 l-10 -26 -50 42 c-30 25 -54 55 -61 78 -7 20
-29 73 -51 119 -32 70 -38 95 -38 148 0 75 -24 199 -50 264 -10 25 -21 72 -24
105 l-5 60 19 -45 c10 -25 21 -54 25 -65 6 -19 7 -19 17 -1 30 53 -28 233
-115 358 -10 15 -8 21 13 35 54 38 111 98 148 157 22 34 47 67 56 75 20 17 21
31 1 31 -11 0 -12 5 -5 25 7 19 6 23 -5 19 -12 -5 -12 0 -5 27 6 18 9 87 8
154 -2 97 0 126 14 151 19 34 94 104 113 104 33 0 161 75 206 121 51 52 59 69
35 69 -27 0 -27 19 -3 52 14 18 32 48 42 67 l17 34 -37 -7 c-20 -4 -44 -10
-53 -13 -11 -5 -7 5 11 28 38 50 102 191 126 277 63 229 48 567 -30 666 -47
60 -133 72 -230 33z m-264 -217 c-16 -16 -33 -30 -39 -30 -5 0 3 14 19 30 16
17 33 30 39 30 5 0 -3 -13 -19 -30z m-1990 -830 c3 -5 1 -10 -4 -10 -6 0 -11
5 -11 10 0 6 2 10 4 10 3 0 8 -4 11 -10z m95 -180 c11 0 20 -4 20 -9 0 -5 21
-21 46 -36 25 -15 44 -29 41 -31 -11 -11 -197 84 -197 101 0 2 16 -3 35 -11
19 -7 44 -14 55 -14z m70 -25 c14 -8 21 -14 15 -14 -5 0 -21 6 -35 14 -14 8
-20 14 -15 14 6 0 21 -6 35 -14z m65 -45 c10 -11 16 -20 13 -20 -3 0 -13 9
-23 20 -10 11 -16 20 -13 20 3 0 13 -9 23 -20z m1109 -340 c8 -10 3 -11 -23
-6 -18 3 -61 6 -95 7 -47 1 -55 3 -36 10 34 11 140 4 154 -11z m-204 -125 c-7
-8 -22 -15 -34 -14 l-21 0 21 9 c12 5 25 14 29 20 4 6 9 9 12 6 3 -3 0 -12 -7
-21z m190 -5 c5 0 12 5 15 10 4 6 11 8 16 4 14 -8 -9 -34 -30 -34 -21 0 -41
19 -41 38 0 10 3 10 16 -2 8 -9 19 -16 24 -16z m-726 -357 c2 -10 7 -37 11
-60 4 -26 11 -40 18 -37 7 2 29 -29 51 -71 22 -41 41 -73 43 -71 2 2 -12 38
-32 81 -19 43 -28 72 -20 65 8 -7 15 -9 15 -5 0 4 6 3 13 -3 19 -16 134 -59
207 -78 49 -13 104 -16 225 -15 157 2 229 12 324 45 68 25 91 22 91 -11 -1
-36 -29 -99 -63 -139 -37 -43 -34 -54 4 -18 41 39 69 95 76 154 5 42 9 49 32
55 14 4 47 17 74 30 34 17 47 20 47 11 0 -37 -23 -126 -45 -174 -14 -31 -19
-49 -11 -43 22 19 54 101 67 176 16 91 32 105 77 62 36 -34 95 -126 107 -167
7 -23 5 -22 -34 13 -22 20 -43 37 -46 37 -2 0 3 -17 12 -37 11 -27 14 -59 11
-113 -5 -85 -23 -127 -89 -210 -38 -48 -39 -51 -13 -33 42 31 79 72 102 116
l20 38 15 -48 c39 -121 53 -327 35 -493 l-8 -65 18 63 17 64 45 -44 c179 -176
196 -207 187 -339 -7 -109 -41 -175 -136 -268 -73 -72 -120 -101 -161 -101
-17 0 -20 6 -20 38 0 80 31 237 70 350 38 113 50 182 31 182 -5 0 -12 -17 -16
-37 -7 -37 -8 -36 -30 50 -12 48 -26 91 -30 95 -4 4 -5 -2 -2 -13 24 -84 36
-181 30 -233 l-8 -57 -5 70 -5 70 -28 -141 c-59 -297 -58 -405 3 -491 63 -88
74 -158 30 -198 -19 -17 -19 -16 -13 17 7 48 -25 118 -68 148 l-34 24 21 -25
c34 -38 44 -64 44 -113 0 -49 -25 -86 -57 -86 -10 0 -35 -3 -57 -7 -36 -6 -38
-5 -27 15 16 30 13 118 -5 153 -8 17 -17 29 -19 27 -1 -1 2 -28 8 -59 8 -49 7
-62 -9 -95 -17 -35 -22 -39 -56 -38 -43 1 -65 17 -85 59 l-14 30 6 -42 7 -42
-38 12 c-70 21 -95 111 -53 192 l20 40 -25 -30 c-30 -35 -50 -97 -42 -134 5
-24 4 -24 -9 4 -18 38 -18 76 -1 167 27 141 29 201 11 365 l-18 159 32 66 c20
43 54 89 94 129 61 62 61 62 11 21 -97 -79 -157 -161 -174 -237 -6 -25 -9 -17
-17 45 -10 73 -10 74 -12 23 0 -29 10 -106 24 -170 16 -76 25 -150 25 -209 0
-133 -5 -150 -54 -179 -71 -41 -126 -50 -235 -35 -53 7 -104 12 -113 12 -10
-1 -18 4 -18 9 0 6 -4 7 -10 4 -12 -7 -52 13 -46 23 2 4 -2 34 -10 67 -14 62
-17 213 -6 300 l7 50 24 -59 c29 -71 104 -186 181 -281 85 -105 82 -103 124
-53 40 46 96 151 96 179 0 10 4 20 8 23 4 3 7 -8 6 -25 -1 -16 2 -29 7 -29 4
0 6 -7 3 -15 -4 -8 -1 -15 5 -15 6 0 8 -6 5 -14 -3 -8 -1 -17 5 -21 8 -4 11
20 11 75 0 78 -1 80 -20 70 -19 -10 -20 -7 -21 32 -1 24 -4 54 -8 68 -6 21 -9
16 -15 -28 -10 -77 -51 -198 -86 -260 l-31 -53 -53 68 c-83 107 -132 184 -208
326 -88 165 -115 205 -197 287 -36 36 -47 46 -25 21 53 -59 86 -119 113 -203
21 -67 21 -69 3 -120 -10 -29 -26 -66 -34 -82 -14 -27 -15 -24 -21 79 -4 60
-8 138 -9 174 -1 58 -2 55 -8 -34 -13 -179 -10 -424 6 -530 29 -191 29 -178 1
-211 l-26 -29 6 59 c7 64 -10 73 -22 13 -18 -81 -54 -107 -153 -107 -42 0 -44
2 -64 46 -19 45 -20 87 -2 141 5 14 3 13 -10 -4 -25 -34 -35 -105 -21 -147
l13 -36 -44 0 c-96 0 -142 47 -131 132 6 45 28 81 69 111 31 23 134 33 196 19
23 -5 42 -8 42 -5 0 12 -75 33 -117 33 -75 0 -117 -17 -171 -68 -42 -39 -51
-55 -57 -95 -4 -26 -5 -57 -2 -70 l6 -22 -20 24 c-36 44 -22 116 37 188 74 91
78 127 33 369 -36 196 -35 243 10 355 35 84 15 68 -41 -36 -29 -54 -33 -69
-33 -142 0 -113 -16 -88 -24 39 l-7 103 -8 -67 c-11 -88 0 -170 30 -237 14
-30 28 -67 31 -82 3 -16 10 -29 15 -29 5 0 8 -8 7 -18 -1 -9 1 -25 6 -35 15
-36 -5 -28 -65 24 -158 137 -230 297 -185 406 14 33 14 34 -2 22 -15 -13 -16
-11 -9 16 15 66 71 115 141 122 37 5 52 2 75 -15 l29 -22 16 58 c9 31 23 70
31 87 l15 30 -22 -25 -21 -25 7 55 c4 30 14 84 22 119 l16 64 16 -34 c9 -19
21 -34 26 -34 6 0 24 -10 40 -21 73 -51 80 -49 32 12 -87 112 -106 199 -68
309 l18 50 12 -37 c22 -68 126 -164 241 -223 31 -16 27 -9 -35 57 -87 94 -130
164 -150 248 -9 36 -18 72 -21 81 -3 9 8 32 23 50 28 33 22 33 -31 -5 l-30
-20 34 49 c46 67 109 135 126 135 7 0 15 -8 18 -17z m1253 -58 c14 -30 14 -30
-17 5 -17 19 -35 44 -42 55 -9 16 -5 15 17 -5 15 -14 33 -38 42 -55z m-1343
-333 c14 -29 43 -72 64 -95 28 -33 30 -37 7 -17 -83 71 -122 145 -130 240 l-5
65 18 -70 c10 -38 31 -94 46 -123z m1910 -334 c-5 -7 -23 -33 -42 -57 -35 -47
-90 -147 -74 -137 5 3 3 -25 -4 -62 -7 -37 -13 -79 -14 -94 0 -31 -33 -125
-54 -153 -12 -17 -15 -14 -25 35 -8 37 -8 57 -1 64 13 13 13 29 -1 20 -16 -10
-1 89 23 151 26 65 97 164 150 209 47 39 53 42 42 24z m-424 -150 c0 -15 -4
-16 -23 -7 -19 9 -22 16 -18 57 l4 47 18 -40 c10 -22 19 -48 19 -57z m37 -40
c-3 -8 -6 -5 -6 6 -1 11 2 17 5 13 3 -3 4 -12 1 -19z m42 -724 c44 -31 70
-146 39 -172 -10 -8 -13 2 -13 43 0 46 -4 58 -29 84 -16 17 -38 33 -48 37 -10
3 -18 10 -18 15 0 15 44 10 69 -7z m-1789 -10 c6 -6 -7 -26 -34 -54 -34 -35
-45 -55 -50 -93 -8 -50 -22 -59 -48 -29 -30 34 -30 77 -3 145 5 13 3 16 -8 11
-24 -9 -40 -60 -35 -114 5 -44 3 -50 -14 -50 -25 0 -68 44 -68 70 0 35 26 85
56 109 26 21 37 23 112 19 45 -3 87 -9 92 -14z m1764 -48 c23 -30 29 -117 10
-136 -6 -6 -29 -13 -51 -16 l-40 -4 -45 77 c-60 103 -62 112 -35 118 79 17
128 6 161 -39z m-1031 -83 c-7 -2 -19 -2 -25 0 -7 3 -2 5 12 5 14 0 19 -2 13
-5z m65 -60 c-10 -2 -26 -2 -35 0 -10 3 -2 5 17 5 19 0 27 -2 18 -5z"/>
<path d="M2051 2334 c0 -11 3 -14 6 -6 3 7 2 16 -1 19 -3 4 -6 -2 -5 -13z"/>
<path d="M2140 2325 c0 -16 60 -101 92 -130 25 -23 28 -24 12 -5 -12 14 -40
52 -63 84 -23 33 -41 56 -41 51z"/>
<path d="M2057 2297 c-24 -37 -37 -97 -35 -162 l1 -60 6 75 c4 46 15 93 29
120 24 48 23 64 -1 27z"/>
<path d="M2112 2165 c0 -16 2 -22 5 -12 2 9 2 23 0 30 -3 6 -5 -1 -5 -18z"/>
<path d="M2121 2084 c0 -11 3 -14 6 -6 3 7 2 16 -1 19 -3 4 -6 -2 -5 -13z"/>
<path d="M2262 2048 c-2 -57 28 -160 49 -174 6 -3 4 7 -4 22 -15 30 -35 114
-40 174 -2 21 -4 12 -5 -22z"/>
<path d="M3171 2082 c-5 -84 -118 -218 -259 -309 -48 -30 -98 -65 -111 -77
l-25 -21 24 34 24 34 -34 -19 c-99 -57 -200 -187 -200 -258 0 -27 -5 -23 -44
44 -24 41 -68 104 -97 140 -29 36 -72 89 -96 118 -24 30 -58 78 -75 108 -17
30 -32 53 -35 51 -14 -15 88 -242 137 -307 l20 -25 -9 32 c-5 18 -12 38 -16
45 -16 31 52 -57 129 -167 46 -66 94 -129 106 -140 l22 -20 -7 47 c-9 60 15
141 56 188 20 24 27 28 19 12 -19 -40 -2 -37 37 5 33 35 232 173 249 173 4 0
31 25 60 55 80 84 141 204 131 257 l-4 23 -2 -23z"/>
<path d="M2893 1956 c-12 -18 -70 -67 -130 -108 -106 -73 -154 -124 -168 -178
-5 -22 -4 -22 11 5 36 63 68 96 154 154 80 55 160 131 160 153 0 13 -4 9 -27
-26z"/>
<path d="M2550 1863 c-14 -48 -24 -256 -11 -228 5 11 10 56 11 100 0 44 5 98
10 120 12 52 5 58 -10 8z"/>
<path d="M2725 1863 c-66 -38 -101 -68 -117 -98 -7 -14 0 -10 23 11 19 17 62
50 97 73 34 23 62 44 62 46 0 6 4 8 -65 -32z"/>
<path d="M2103 1607 c17 -45 85 -133 145 -185 36 -31 74 -66 85 -76 20 -19 20
-19 15 41 -6 60 -38 137 -77 183 -17 20 -16 15 6 -24 22 -41 57 -155 50 -162
-7 -7 -148 130 -185 181 -25 33 -42 52 -39 42z"/>
<path d="M2861 1525 c-31 -36 -106 -173 -98 -181 2 -2 14 7 27 21 l24 25 12
-27 c11 -25 12 -26 13 -6 1 12 21 39 49 63 27 25 37 37 22 30 -14 -7 -32 -19
-42 -27 -15 -13 -15 -11 -7 29 6 24 19 58 29 76 25 42 10 41 -29 -3z"/>
<path d="M3591 1193 c0 -12 -4 -30 -7 -40 -5 -14 -4 -15 5 -7 7 6 11 24 8 40
-3 21 -4 23 -6 7z"/>
<path d="M3060 719 c-11 -8 -5 -9 26 -5 37 5 124 -4 169 -19 11 -3 4 3 -15 14
-39 22 -153 29 -180 10z"/>
<path d="M3758 4460 c-16 -5 -58 -25 -95 -46 -82 -44 -242 -202 -291 -285 -40
-69 -66 -183 -58 -261 5 -51 4 -57 -12 -51 -9 3 10 -14 43 -39 91 -68 102 -87
27 -49 -34 17 -62 29 -62 27 0 -2 32 -25 70 -51 39 -26 70 -49 70 -51 0 -7
-70 25 -100 46 -25 18 -23 11 27 -72 89 -149 159 -208 231 -195 15 3 65 19
112 35 65 24 78 31 54 31 -18 1 -57 -11 -89 -25 -108 -50 -173 -21 -250 109
-33 56 -34 58 -9 38 17 -13 41 -21 66 -21 l40 0 -27 32 c-21 25 -24 33 -13 43
7 7 49 43 93 81 71 60 135 128 135 141 0 3 -21 -18 -46 -46 -46 -51 -179 -152
-198 -150 -6 0 -27 19 -46 41 l-34 40 20 37 c11 20 35 62 53 93 l32 57 -65
-29 c-75 -34 -86 -36 -86 -15 0 20 36 91 67 131 52 69 195 149 295 165 49 7
46 8 -27 5 -69 -2 -90 -8 -150 -38 -38 -20 -92 -55 -120 -79 l-49 -44 24 35
c98 143 217 257 324 310 128 64 176 24 192 -160 7 -83 -7 -233 -31 -325 -33
-129 -118 -258 -227 -345 -60 -48 -70 -66 -17 -33 56 36 150 137 189 203 99
167 139 518 75 654 -27 56 -74 75 -137 56z m-336 -577 c-11 -16 -29 -44 -40
-63 l-21 -34 -12 26 c-16 36 -7 53 38 77 51 27 57 26 35 -6z"/>
<path d="M1437 4412 c-52 -32 -71 -91 -75 -238 -5 -152 11 -247 58 -350 53
-118 150 -221 223 -239 38 -10 34 10 -5 26 -52 21 -133 111 -172 191 -60 121
-79 218 -74 377 4 151 18 193 72 220 79 38 337 -102 448 -242 l32 -40 -51 37
c-58 41 -126 73 -198 92 -78 21 -87 15 -15 -10 104 -36 187 -85 239 -141 51
-57 71 -106 71 -180 l0 -47 -42 54 c-24 29 -41 58 -40 63 2 6 0 7 -3 3 -4 -4
-24 4 -44 17 -48 33 -57 31 -33 -7 23 -37 66 -194 57 -208 -7 -11 -31 -3 -69
23 l-29 20 16 -24 c22 -36 50 -128 43 -145 -5 -12 -26 3 -88 61 -46 43 -96 87
-111 99 -16 12 -47 45 -68 75 -40 56 -50 61 -24 12 7 -15 49 -61 92 -100 43
-40 101 -99 129 -132 l50 -58 -21 -88 c-24 -98 -43 -121 -114 -130 -48 -7 -66
-23 -24 -23 35 0 102 31 125 56 9 11 29 53 43 94 29 82 76 170 101 191 8 7 20
21 25 31 10 18 9 19 -13 8 -13 -7 -36 -24 -51 -39 l-29 -26 4 24 c2 15 15 30
35 41 18 9 30 19 27 22 -2 3 -15 40 -28 82 l-24 77 46 -43 c26 -23 54 -52 64
-63 16 -20 16 -20 24 10 5 17 8 62 8 101 -2 122 -70 236 -203 338 -109 84
-248 146 -325 146 -17 0 -44 -8 -59 -18z"/>
<path d="M3292 4125 c-17 -37 -14 -45 4 -12 9 16 14 31 11 33 -2 2 -9 -7 -15
-21z"/>
<path d="M2149 3913 c-13 -16 -12 -17 4 -4 9 7 17 15 17 17 0 8 -8 3 -21 -13z"/>
<path d="M2094 3868 l-29 -33 33 29 c30 28 37 36 29 36 -2 0 -16 -15 -33 -32z"/>
<path d="M2633 3600 c0 -102 3 -216 7 -255 7 -68 7 -67 7 35 0 58 -3 173 -7
255 l-6 150 -1 -185z"/>
<path d="M3800 3649 c-30 -28 -84 -69 -119 -92 -71 -46 -66 -64 6 -21 53 31
124 94 154 136 11 15 19 28 17 28 -2 -1 -28 -24 -58 -51z"/>
<path d="M2337 3591 c47 -34 86 -81 107 -131 8 -19 15 -29 16 -22 1 46 -66
139 -122 168 -44 23 -44 16 -1 -15z"/>
<path d="M1580 3556 c25 -13 59 -26 75 -29 20 -4 9 4 -30 23 -33 17 -67 30
-75 30 -8 -1 5 -11 30 -24z"/>
<path d="M2246 3556 c52 -17 98 -51 135 -100 16 -22 29 -35 29 -29 0 6 -15 31
-33 55 -35 46 -105 88 -147 87 -20 0 -16 -3 16 -13z"/>
<path d="M2945 3547 c-47 -34 -75 -75 -89 -127 -4 -15 2 -9 15 15 27 51 45 71
93 106 21 16 33 29 25 29 -8 0 -27 -11 -44 -23z"/>
<path d="M2148 3499 c-54 -8 -126 -54 -159 -101 -20 -28 -15 -26 45 20 37 29
70 52 74 52 4 1 29 7 56 14 60 15 49 25 -16 15z"/>
<path d="M3129 3490 c35 -10 84 -33 110 -50 26 -19 40 -25 31 -14 -38 49 -108
84 -165 83 -38 0 -38 -1 24 -19z"/>
<path d="M2461 3404 c0 -11 3 -14 6 -6 3 7 2 16 -1 19 -3 4 -6 -2 -5 -13z"/>
<path d="M3579 3393 l-24 -28 28 24 c25 23 32 31 24 31 -2 0 -14 -12 -28 -27z"/>
<path d="M2199 3365 c60 -17 105 -46 123 -78 10 -19 8 -18 -20 5 -17 14 -54
34 -81 43 -72 24 -119 9 -190 -62 l-56 -55 50 40 c52 43 112 73 142 71 10 0 4
-6 -15 -12 -18 -7 -55 -31 -82 -55 -27 -23 -69 -51 -92 -62 -33 -14 -38 -19
-20 -19 13 -1 33 4 45 10 20 9 20 9 5 -4 -13 -10 -18 -29 -18 -69 0 -140 129
-216 267 -157 l48 20 -55 -56 c-30 -31 -83 -79 -117 -107 -35 -29 -63 -55 -63
-60 0 -13 70 39 160 117 145 127 337 190 505 166 169 -25 280 -80 417 -210 48
-46 88 -78 88 -71 0 7 -44 56 -98 110 -69 69 -90 95 -71 88 68 -24 157 39 180
127 6 22 15 48 20 57 5 10 9 26 9 37 0 13 8 21 23 24 21 3 21 4 -4 15 -15 6
-49 31 -77 55 -87 78 -161 85 -236 25 -36 -28 -39 -29 -25 -8 26 39 63 62 112
67 61 7 108 -11 175 -65 l57 -46 -33 41 c-41 53 -120 93 -181 93 -72 0 -136
-50 -146 -112 -2 -13 -13 -48 -24 -78 -11 -30 -20 -72 -21 -94 0 -30 -3 -37
-15 -32 -30 11 -14 -4 25 -24 22 -11 40 -22 40 -23 0 -2 -39 7 -87 19 -155 40
-348 30 -477 -25 l-48 -21 26 31 c31 36 34 85 11 172 -33 126 -82 177 -179
184 l-51 3 54 -15z m922 -121 c17 -21 0 -49 -32 -49 -27 0 -37 28 -19 50 16
19 34 19 51 -1z m-863 -6 c30 -30 0 -68 -39 -48 -24 13 -25 36 -1 49 22 13 26
13 40 -1z m972 -107 c0 -98 -90 -166 -175 -131 -15 6 -11 7 16 7 78 -2 146 84
136 172 -5 43 -4 44 9 21 7 -14 13 -45 14 -69z m-1100 -40 c14 -26 61 -51 97
-51 15 0 44 10 63 21 l35 21 -19 -21 c-24 -26 -86 -46 -118 -38 -62 16 -106
87 -91 146 6 23 8 22 14 -16 4 -23 13 -51 19 -62z m869 -15 c12 -11 42 -23 68
-27 47 -8 47 -8 -11 -5 -50 2 -63 7 -83 30 -15 18 -23 39 -23 64 l1 37 14 -39
c7 -22 23 -48 34 -60z m-912 -34 c11 -14 39 -36 64 -49 l44 -22 -38 -1 c-22 0
-52 7 -67 17 -54 31 -89 130 -58 161 9 9 15 2 24 -34 6 -25 20 -57 31 -72z
m269 32 c-4 -13 -15 -28 -26 -34 -18 -10 -19 -9 -5 17 8 16 17 42 21 58 7 28
8 28 12 6 2 -12 1 -34 -2 -47z m637 -39 c12 -8 17 -15 11 -15 -16 0 -64 47
-64 62 0 7 7 3 15 -9 9 -12 26 -29 38 -38z"/>
<path d="M1645 3358 c11 -6 38 -25 60 -42 21 -17 36 -25 31 -18 -11 18 -86 72
-100 72 -6 0 -2 -6 9 -12z"/>
<path d="M2617 3103 c18 -2 50 -2 70 0 21 2 7 4 -32 4 -38 0 -55 -2 -38 -4z"/>
<path d="M3133 2943 c9 -2 25 -2 35 0 9 3 1 5 -18 5 -19 0 -27 -2 -17 -5z"/>
<path d="M2460 2669 c0 -5 5 -7 10 -4 6 3 10 8 10 11 0 2 -4 4 -10 4 -5 0 -10
-5 -10 -11z"/>
<path d="M2500 2670 c0 -5 5 -10 11 -10 5 0 7 5 4 10 -3 6 -8 10 -11 10 -2 0
-4 -4 -4 -10z"/>
<path d="M2860 2670 c0 -6 7 -10 15 -10 8 0 15 2 15 4 0 2 -7 6 -15 10 -8 3
-15 1 -15 -4z"/>
<path d="M3060 2620 c0 -5 5 -10 10 -10 6 0 10 5 10 10 0 6 -4 10 -10 10 -5 0
-10 -4 -10 -10z"/>
<path d="M2275 2600 c-3 -5 -1 -10 4 -10 6 0 11 5 11 10 0 6 -2 10 -4 10 -3 0
-8 -4 -11 -10z"/>
<path d="M2355 2590 c-3 -5 -2 -10 4 -10 5 0 13 5 16 10 3 6 2 10 -4 10 -5 0
-13 -4 -16 -10z"/>
<path d="M2980 2589 c0 -5 5 -7 10 -4 6 3 10 8 10 11 0 2 -4 4 -10 4 -5 0 -10
-5 -10 -11z"/>
</g>
</svg>